<?xml version="1.0" encoding="UTF-8" standalone="yes"?><svg xmlns="http://www.w3.org/2000/svg" xmlns:xlink="http://www.w3.org/1999/xlink" height="162pt" " version="1.1" viewBox="0 0 191 162" width="191pt"><defs><filter height="300%" id="f1" width="300%" x="-1" y="-1"><feGaussianBlur result="blurOut" stdDeviation="2.0"/><feColorMatrix in="blurOut" result="blurOut2" type="matrix" values="0 0 0 0 0 0 0 0 0 0 0 0 0 0 0 0 0 0 .4 0"/><feOffset dx="4.0" dy="4.0" in="blurOut2" result="blurOut3"/><feBlend in="SourceGraphic" in2="blurOut3" mode="normal"/></filter></defs><g><rect fill="#FEFECE" filter="url(#f1)" height="144.8516" style="stroke: #A80036; stroke-width: 1.5;" width="176" x="6" y="8.5"/><ellipse cx="49.35" cy="24.5" fill="#ADD1B2" rx="11" ry="11" style="stroke: #A80036; stroke-width: 1.0;"/><path d="M52.1156,20.375 Q52.2719,20.1563 52.4594,20.0469 Q52.6469,19.9375 52.8656,19.9375 Q53.2406,19.9375 53.475,20.1953 Q53.7094,20.4531 53.7094,21.0625 L53.7094,22.5156 Q53.7094,23.125 53.475,23.3906 Q53.2406,23.6563 52.8656,23.6563 Q52.5219,23.6563 52.3188,23.4531 Q52.1156,23.2656 52.0063,22.75 Q51.9594,22.3906 51.7719,22.2031 Q51.4438,21.8281 50.8344,21.6094 Q50.225,21.3906 49.6,21.3906 Q48.8344,21.3906 48.2016,21.7188 Q47.5688,22.0469 47.0766,22.7969 Q46.5844,23.5469 46.5844,24.5781 L46.5844,25.6719 Q46.5844,26.9063 47.475,27.7266 Q48.3656,28.5469 49.9594,28.5469 Q50.8969,28.5469 51.5531,28.2969 Q51.9438,28.1406 52.3656,27.7031 Q52.6313,27.4375 52.7797,27.3594 Q52.9281,27.2813 53.1313,27.2813 Q53.4594,27.2813 53.7172,27.5391 Q53.975,27.7969 53.975,28.1406 Q53.975,28.4844 53.6313,28.8906 Q53.1313,29.4688 52.3344,29.7969 Q51.2563,30.25 49.9594,30.25 Q48.4438,30.25 47.2406,29.625 Q46.2563,29.125 45.5688,28.0547 Q44.8813,26.9844 44.8813,25.7031 L44.8813,24.5469 Q44.8813,23.2188 45.4984,22.0703 Q46.1156,20.9219 47.2094,20.3047 Q48.3031,19.6875 49.5375,19.6875 Q50.2719,19.6875 50.9203,19.8516 Q51.5688,20.0156 52.1156,20.375 Z "/><text fill="#000000" font-family="SansSerif" font-size="12" lengthAdjust="spacingAndGlyphs" textLength="81" x="69.65" y="28.9531">MyDemoClass</text><line style="stroke: #A80036; stroke-width: 1.5;" x1="7" x2="181" y1="40.5" y2="40.5"/><rect fill="none" height="6" style="stroke: #C82930; stroke-width: 1.0;" width="6" x="14" y="49.918"/><text fill="#000000" font-family="SansSerif" font-size="11" lengthAdjust="spacingAndGlyphs" textLength="74" x="26" y="55.5">String mainText</text><rect fill="none" height="6" style="stroke: #C82930; stroke-width: 1.0;" width="6" x="14" y="63.7539"/><text fill="#000000" font-family="SansSerif" font-size="11" lengthAdjust="spacingAndGlyphs" textLength="32" x="26" y="69.3359">int age</text><rect fill="none" height="6" style="stroke: #C82930; stroke-width: 1.0;" width="6" x="14" y="77.5898"/><text fill="#000000" font-family="SansSerif" font-size="11" lengthAdjust="spacingAndGlyphs" text-decoration="underline" textLength="74" x="26" y="83.1719">String AUTHOR</text><line style="stroke: #A80036; stroke-width: 1.5;" x1="7" x2="181" y1="90.0078" y2="90.0078"/><ellipse cx="17" cy="102.4258" fill="#84BE84" rx="3" ry="3" style="stroke: #038048; stroke-width: 1.0;"/><text fill="#000000" font-family="SansSerif" font-size="11" lengthAdjust="spacingAndGlyphs" text-decoration="underline" textLength="87" x="26" y="105.0078">String getAuthor()</text><ellipse cx="17" cy="116.2617" fill="#84BE84" rx="3" ry="3" style="stroke: #038048; stroke-width: 1.0;"/><text fill="#000000" font-family="SansSerif" font-size="11" lengthAdjust="spacingAndGlyphs" textLength="150" x="26" y="118.8438">MyDemoClass(String mainText)</text><ellipse cx="17" cy="130.0977" fill="#84BE84" rx="3" ry="3" style="stroke: #038048; stroke-width: 1.0;"/><text fill="#000000" font-family="SansSerif" font-size="11" lengthAdjust="spacingAndGlyphs" textLength="88" x="26" y="132.6797">void doTheDemo()</text><ellipse cx="17" cy="143.9336" fill="#84BE84" rx="3" ry="3" style="stroke: #038048; stroke-width: 1.0;"/><text fill="#000000" font-family="SansSerif" font-size="11" lengthAdjust="spacingAndGlyphs" textLength="76" x="26" y="146.5156">String toString()</text></g></svg>