<?xml version="1.0" encoding="UTF-8" standalone="yes"?><svg xmlns="http://www.w3.org/2000/svg" xmlns:xlink="http://www.w3.org/1999/xlink" height="563pt" " version="1.1" viewBox="0 0 565 563" width="565pt"><defs><filter height="300%" id="f1" width="300%" x="-1" y="-1"><feGaussianBlur result="blurOut" stdDeviation="2.0"/><feColorMatrix in="blurOut" result="blurOut2" type="matrix" values="0 0 0 0 0 0 0 0 0 0 0 0 0 0 0 0 0 0 .4 0"/><feOffset dx="4.0" dy="4.0" in="blurOut2" result="blurOut3"/><feBlend in="SourceGraphic" in2="blurOut3" mode="normal"/></filter></defs><g><rect fill="#FFFFFF" filter="url(#f1)" height="172" style="stroke: #000000; stroke-width: 2.0;" width="270" x="22" y="198"/><text fill="#000000" font-size="14" font-weight="bold" lengthAdjust="spacingAndGlyphs" textLength="61" x="126.5" y="214">DomAPIs</text><ellipse cx="157.1715" cy="251.2343" fill="#FEFECE" filter="url(#f1)" rx="66.6715" ry="15.7343" style="stroke: #A80036; stroke-width: 1.5;"/><text fill="#000000" font-size="14" lengthAdjust="spacingAndGlyphs" textLength="92" x="111.1715" y="256.539">getChildNodes</text><ellipse cx="157.2025" cy="328.1405" fill="#FEFECE" filter="url(#f1)" rx="118.7025" ry="26.1405" style="stroke: #A80036; stroke-width: 1.5;"/><text fill="#000000" font-size="14" lengthAdjust="spacingAndGlyphs" textLength="214" x="50.2025" y="333.4452">getElementsByTagName "identity"</text><polygon fill="#FBFB77" filter="url(#f1)" points="352,7.5,352,66.5547,540,66.5547,540,17.5,530,7.5,352,7.5" style="stroke: #A80036; stroke-width: 1.0;"/><line style="stroke: #A80036; stroke-width: 1.0;" x1="530" x2="530" y1="7.5" y2="17.5"/><line style="stroke: #A80036; stroke-width: 1.0;" x1="540" x2="530" y1="17.5" y2="17.5"/><text fill="#000000" font-size="13" lengthAdjust="spacingAndGlyphs" textLength="139" x="358" y="25.5">the getChildNodes() API</text><text fill="#000000" font-size="13" lengthAdjust="spacingAndGlyphs" textLength="167" x="358" y="41.8516">gets all the nodes regardless</text><text fill="#000000" font-size="13" lengthAdjust="spacingAndGlyphs" textLength="97" x="358" y="58.2031">of their tag name</text><polygon fill="#FBFB77" filter="url(#f1)" points="336,299.5,336,358.5547,556,358.5547,556,309.5,546,299.5,336,299.5" style="stroke: #A80036; stroke-width: 1.0;"/><polygon fill="#FBFB77" points="336,299.5,336,324.602,275.562,328.41,336,332.602,336,358.5547,556,358.5547,556,309.5,546,299.5,336,299.5" style="stroke: #A80036; stroke-width: 1.0;"/><line style="stroke: #A80036; stroke-width: 1.0;" x1="546" x2="546" y1="299.5" y2="309.5"/><line style="stroke: #A80036; stroke-width: 1.0;" x1="556" x2="546" y1="309.5" y2="309.5"/><text fill="#000000" font-size="13" lengthAdjust="spacingAndGlyphs" textLength="199" x="342" y="317.5">the getElementsByTagName() API</text><text fill="#000000" font-size="13" lengthAdjust="spacingAndGlyphs" textLength="185" x="342" y="333.8516">gets all the nodes with the given</text><text fill="#000000" font-size="13" lengthAdjust="spacingAndGlyphs" textLength="145" x="342" y="350.2031">tag name as a parameter</text><ellipse cx="445.8198" cy="116.9517" fill="#FEFECE" filter="url(#f1)" rx="34.8198" ry="15.4517" style="stroke: #A80036; stroke-width: 1.5;"/><text fill="#000000" font-size="14" lengthAdjust="spacingAndGlyphs" textLength="45" x="423.3198" y="122.2564">Node 1</text><ellipse cx="445.8198" cy="182.9517" fill="#FEFECE" filter="url(#f1)" rx="34.8198" ry="15.4517" style="stroke: #A80036; stroke-width: 1.5;"/><text fill="#000000" font-size="14" lengthAdjust="spacingAndGlyphs" textLength="45" x="423.3198" y="188.2564">Node 2</text><ellipse cx="445.8198" cy="248.9517" fill="#FEFECE" filter="url(#f1)" rx="34.8198" ry="15.4517" style="stroke: #A80036; stroke-width: 1.5;"/><text fill="#000000" font-size="14" lengthAdjust="spacingAndGlyphs" textLength="45" x="423.3198" y="254.2564">Node n</text><ellipse cx="445.8051" cy="408.9517" fill="#FEFECE" filter="url(#f1)" rx="43.3051" ry="15.4517" style="stroke: #A80036; stroke-width: 1.5;"/><text fill="#000000" font-size="14" lengthAdjust="spacingAndGlyphs" textLength="57" x="417.3051" y="414.2564">identity 1</text><ellipse cx="445.8051" cy="474.9517" fill="#FEFECE" filter="url(#f1)" rx="43.3051" ry="15.4517" style="stroke: #A80036; stroke-width: 1.5;"/><text fill="#000000" font-size="14" lengthAdjust="spacingAndGlyphs" textLength="57" x="417.3051" y="480.2564">identity 2</text><ellipse cx="445.8051" cy="540.9517" fill="#FEFECE" filter="url(#f1)" rx="43.3051" ry="15.4517" style="stroke: #A80036; stroke-width: 1.5;"/><text fill="#000000" font-size="14" lengthAdjust="spacingAndGlyphs" textLength="57" x="417.3051" y="546.2564">identity n</text><path d="M170.882,235.771 C198.414,203.991 266.189,129.77 336,84 C344.442,78.465 353.644,73.328 363.007,68.638 " fill="none" style="stroke: #A80036; stroke-width: 1.0; stroke-dasharray: 7.0,7.0;"/><path d="M179.662,236.598 C212.386,215.338 276.893,175.343 336,150 C359.889,139.757 387.987,131.332 409.671,125.559 " fill="none" style="stroke: #A80036; stroke-width: 1.0;"/><path d="M203.793,240.15 C261.132,226.565 358.106,203.588 409.907,191.315 " fill="none" style="stroke: #A80036; stroke-width: 1.0;"/><path d="M223.484,250.544 C279.558,250.153 358.466,249.603 405.403,249.276 " fill="none" style="stroke: #A80036; stroke-width: 1.0;"/><path d="M230.422,348.44 C286.386,364.234 361.644,385.474 406.55,398.148 " fill="none" style="stroke: #A80036; stroke-width: 1.0;"/><path d="M190.854,352.994 C225.42,378.318 282.174,417.196 336,442 C357.778,452.035 383.384,459.9686 404.304,465.5392 " fill="none" style="stroke: #A80036; stroke-width: 1.0;"/><path d="M176.606,353.753 C206.094,392.744 267.308,466.5918 336,508 C356.066,520.0959 380.91,528.0645 401.81,533.1349 " fill="none" style="stroke: #A80036; stroke-width: 1.0;"/></g></svg>