<?xml version="1.0" encoding="UTF-8" standalone="yes"?><svg xmlns="http://www.w3.org/2000/svg" xmlns:xlink="http://www.w3.org/1999/xlink" height="290pt" " version="1.1" viewBox="0 0 478 290" width="478pt"><defs><filter height="300%" id="f1" width="300%" x="-1" y="-1"><feGaussianBlur result="blurOut" stdDeviation="2.0"/><feColorMatrix in="blurOut" result="blurOut2" type="matrix" values="0 0 0 0 0 0 0 0 0 0 0 0 0 0 0 0 0 0 .4 0"/><feOffset dx="4.0" dy="4.0" in="blurOut2" result="blurOut3"/><feBlend in="SourceGraphic" in2="blurOut3" mode="normal"/></filter></defs><g><ellipse cx="98.316" cy="28.9132" fill="#FEFECE" filter="url(#f1)" rx="92.566" ry="20.9132" style="stroke: #A80036; stroke-width: 1.5;"/><text fill="#000000" font-size="14" lengthAdjust="spacingAndGlyphs" textLength="156" x="20.316" y="34.2179">DocumentBuilderFactory</text><ellipse cx="98.4211" cy="141.9342" fill="#FEFECE" filter="url(#f1)" rx="72.6711" ry="16.9342" style="stroke: #A80036; stroke-width: 1.5;"/><text fill="#000000" font-size="14" lengthAdjust="spacingAndGlyphs" textLength="108" x="44.4211" y="147.2389">DocumentBuilder</text><polygon fill="#FBFB77" filter="url(#f1)" points="240.75,112.5,240.75,171.5547,469.75,171.5547,469.75,122.5,459.75,112.5,240.75,112.5" style="stroke: #A80036; stroke-width: 1.0;"/><polygon fill="#FBFB77" points="240.75,112.5,240.75,138,170.281,142,240.75,146,240.75,171.5547,469.75,171.5547,469.75,122.5,459.75,112.5,240.75,112.5" style="stroke: #A80036; stroke-width: 1.0;"/><line style="stroke: #A80036; stroke-width: 1.0;" x1="459.75" x2="459.75" y1="112.5" y2="122.5"/><line style="stroke: #A80036; stroke-width: 1.0;" x1="469.75" x2="459.75" y1="122.5" y2="122.5"/><text fill="#000000" font-size="13" lengthAdjust="spacingAndGlyphs" textLength="160" x="246.75" y="130.5">The document builder takes</text><text fill="#000000" font-size="13" lengthAdjust="spacingAndGlyphs" textLength="208" x="246.75" y="146.8516">the file as an argument for the parse</text><text fill="#000000" font-size="13" lengthAdjust="spacingAndGlyphs" textLength="43" x="246.75" y="163.2031">method</text><ellipse cx="98.0048" cy="267.9517" fill="#FEFECE" filter="url(#f1)" rx="48.2548" ry="15.4517" style="stroke: #A80036; stroke-width: 1.5;"/><text fill="#000000" font-size="14" lengthAdjust="spacingAndGlyphs" textLength="64" x="66.0048" y="273.2564">Document</text><path d="M98,50.101 C98,69.715 98,99.452 98,119.523 " fill="none" style="stroke: #A80036; stroke-width: 1.0;"/><path d="M98,159.211 C98,181.793 98,222.6849 98,247.0911 " fill="none" style="stroke: #A80036; stroke-width: 1.0;"/><text fill="#000000" font-size="13" lengthAdjust="spacingAndGlyphs" textLength="83" x="99" y="216.5">Parses the file</text></g></svg>