<?xml version="1.0" encoding="UTF-8" standalone="yes"?><svg xmlns="http://www.w3.org/2000/svg" xmlns:xlink="http://www.w3.org/1999/xlink" height="425pt" style="width:1094px;height:425px;" version="1.1" viewBox="0 0 1094 425" width="1094pt"><defs><filter height="300%" id="f1" width="300%" x="-1" y="-1"><feGaussianBlur result="blurOut" stdDeviation="2.0"/><feColorMatrix in="blurOut" result="blurOut2" type="matrix" values="0 0 0 0 0 0 0 0 0 0 0 0 0 0 0 0 0 0 .4 0"/><feOffset dx="4.0" dy="4.0" in="blurOut2" result="blurOut3"/><feBlend in="SourceGraphic" in2="blurOut3" mode="normal"/></filter></defs><g><rect fill="#FFFFFF" filter="url(#f1)" height="164" style="stroke: #000000; stroke-width: 2.0;" width="454" x="120" y="254"/><text fill="#000000" font-family="sans-serif" font-size="14" font-weight="bold" lengthAdjust="spacingAndGlyphs" textLength="114" x="290" y="270.5332">DevelopmentOS</text><rect fill="#FFFFFF" filter="url(#f1)" height="206" style="stroke: #000000; stroke-width: 2.0;" width="638" x="234" y="24"/><text fill="#000000" font-family="sans-serif" font-size="14" font-weight="bold" lengthAdjust="spacingAndGlyphs" textLength="65" x="520.5" y="40.5332">TargetOS</text><rect fill="#FFFFFF" filter="url(#f1)" height="91" style="stroke: #000000; stroke-width: 2.0;" width="102" x="258" y="115"/><path d="M326,116 L326,125.6094 L316,135.6094 L258,135.6094 " fill="#FFFFFF" style="stroke: #000000; stroke-width: 2.0;"/><text fill="#000000" font-family="sans-serif" font-size="14" font-weight="bold" lengthAdjust="spacingAndGlyphs" textLength="58" x="261" y="130.5332">Binaries</text><ellipse cx="309.098" cy="309.9517" fill="#FEFECE" filter="url(#f1)" rx="42.598" ry="15.4517" style="stroke: #A80036; stroke-width: 1.5;"/><text fill="#000000" font-family="sans-serif" font-size="14" lengthAdjust="spacingAndGlyphs" textLength="56" x="281.098" y="315.2564">Compiler</text><rect fill="#FFFFFF" filter="url(#f1)" height="37.6094" style="stroke: #A80036; stroke-width: 1.5;" width="50" x="136" y="291"/><text fill="#000000" font-family="sans-serif" font-size="14" lengthAdjust="spacingAndGlyphs" textLength="30" x="146" y="315.5332">.java</text><rect fill="#FFFFFF" filter="url(#f1)" height="37.6094" style="stroke: #A80036; stroke-width: 1.5;" width="56" x="502" y="291"/><text fill="#000000" font-family="sans-serif" font-size="14" lengthAdjust="spacingAndGlyphs" textLength="36" x="512" y="315.5332">.class</text><rect fill="#FFA500" filter="url(#f1)" height="37.6094" style="stroke: #A80036; stroke-width: 1.5;" width="45" x="138.5" y="364"/><text fill="#000000" font-family="sans-serif" font-size="14" lengthAdjust="spacingAndGlyphs" textLength="25" x="148.5" y="388.5332">JDK</text><ellipse cx="529.8848" cy="125.9517" fill="#FEFECE" filter="url(#f1)" rx="21.3848" ry="15.4517" style="stroke: #A80036; stroke-width: 1.5;"/><text fill="#000000" font-family="sans-serif" font-size="14" lengthAdjust="spacingAndGlyphs" textLength="26" x="516.8848" y="131.2564">JVM</text><ellipse cx="775.0917" cy="126.1183" fill="#FEFECE" filter="url(#f1)" rx="81.0917" ry="18.6183" style="stroke: #A80036; stroke-width: 1.5;"/><text fill="#000000" font-family="sans-serif" font-size="14" lengthAdjust="spacingAndGlyphs" textLength="129" x="710.5917" y="131.423">OS Core Operations</text><rect fill="#FFA500" filter="url(#f1)" height="37.6094" style="stroke: #A80036; stroke-width: 1.5;" width="45" x="286.5" y="61"/><text fill="#000000" font-family="sans-serif" font-size="14" lengthAdjust="spacingAndGlyphs" textLength="25" x="296.5" y="85.5332">JRE</text><rect fill="#FFFFFF" filter="url(#f1)" height="37.6094" style="stroke: #A80036; stroke-width: 1.5;" width="70" x="274" y="152"/><text fill="#000000" font-family="sans-serif" font-size="14" lengthAdjust="spacingAndGlyphs" textLength="50" x="284" y="176.5332">Classes</text><rect fill="#FFFFFF" filter="url(#f1)" height="37.6094" style="stroke: #A80036; stroke-width: 1.5;" width="63" x="1024.5" y="107"/><text fill="#000000" font-family="sans-serif" font-size="14" lengthAdjust="spacingAndGlyphs" textLength="43" x="1034.5" y="131.5332">Output</text><ellipse cx="39" cy="277.5" fill="#FEFECE" filter="url(#f1)" rx="8" ry="8" style="stroke: #A80036; stroke-width: 2.0;"/><path d="M39,285.5 L39,312.5 M26,293.5 L52,293.5 M39,312.5 L26,327.5 M39,312.5 L52,327.5 " fill="#FEFECE" filter="url(#f1)" style="stroke: #A80036; stroke-width: 2.0;"/><text fill="#000000" font-family="sans-serif" font-size="14" lengthAdjust="spacingAndGlyphs" textLength="65" x="6.5" y="349.0332">Developer</text><path d="M71.5286,310 C89.7786,310 112.604,310 130.498,310 " fill="none" style="stroke: #A80036; stroke-width: 1.0;"/><polygon fill="#A80036" points="135.883,310,126.883,306,130.883,310,126.883,314,135.883,310" style="stroke: #A80036; stroke-width: 1.0;"/><path d="M186.109,310 C206.449,310 236.161,310 261.158,310 " fill="none" style="stroke: #A80036; stroke-width: 1.0;"/><polygon fill="#A80036" points="266.416,310,257.416,306,261.416,310,257.416,314,266.416,310" style="stroke: #A80036; stroke-width: 1.0;"/><path d="M351.708,310 C393.99,310 458.506,310 496.942,310 " fill="none" style="stroke: #A80036; stroke-width: 1.0;"/><polygon fill="#A80036" points="501.958,310,492.958,306,496.958,310,492.958,314,501.958,310" style="stroke: #A80036; stroke-width: 1.0;"/><path d="M327.1,194.399 C340.487,211.381 360.406,233.928 382,249 C419.838,275.41 470.866,293.322 501.772,302.584 " fill="none" style="stroke: #A80036; stroke-width: 1.0;"/><polygon fill="#A80036" points="323.84,190.209,326.2102,199.7684,326.9106,194.1551,332.5239,194.8554,323.84,190.209" style="stroke: #A80036; stroke-width: 1.0;"/><text fill="#000000" font-family="sans-serif" font-size="13" lengthAdjust="spacingAndGlyphs" textLength="67" x="393" y="244.4951">deployment</text><path d="M183.543,372.2286 C210.195,358.9027 255.465,336.2674 283.439,322.28 " fill="none" style="stroke: #A80036; stroke-width: 1.0; stroke-dasharray: 7.0,7.0;"/><path d="M331.553,83.932 C362.657,89.68 421.897,100.905 472,112 C484.536,114.776 498.54,118.211 509.53,120.984 " fill="none" style="stroke: #A80036; stroke-width: 1.0; stroke-dasharray: 7.0,7.0;"/><path d="M344.219,163.969 C388.544,154.861 464.768,139.198 504.024,131.132 " fill="none" style="stroke: #A80036; stroke-width: 1.0;"/><polygon fill="#A80036" points="509.082,130.093,499.4613,127.9853,504.1842,131.0988,501.0707,135.8217,509.082,130.093" style="stroke: #A80036; stroke-width: 1.0;"/><text fill="#000000" font-family="sans-serif" font-size="13" font-weight="bold" lengthAdjust="spacingAndGlyphs" textLength="86" x="383.5" y="134.4951">Interpretation</text><path d="M551.718,126 C581.9,126 639.715,126 688.817,126 " fill="none" style="stroke: #A80036; stroke-width: 1.0;"/><polygon fill="#A80036" points="693.844,126,684.844,122,688.844,126,684.844,130,693.844,126" style="stroke: #A80036; stroke-width: 1.0;"/><text fill="#000000" font-family="sans-serif" font-size="13" font-weight="bold" lengthAdjust="spacingAndGlyphs" textLength="71" x="591" y="121.4951">Translation</text><path d="M856.324,126 C910.092,126 978.258,126 1019.15,126 " fill="none" style="stroke: #A80036; stroke-width: 1.0;"/><polygon fill="#A80036" points="1024.49,126,1015.49,122,1019.49,126,1015.49,130,1024.49,126" style="stroke: #A80036; stroke-width: 1.0;"/><text fill="#000000" font-family="sans-serif" font-size="13" font-weight="bold" lengthAdjust="spacingAndGlyphs" textLength="102" x="889.5" y="121.4951">Execution result</text></g></svg>