<?xml version="1.0" encoding="UTF-8" standalone="yes"?><svg xmlns="http://www.w3.org/2000/svg" xmlns:xlink="http://www.w3.org/1999/xlink" height="204pt" style="width:218px;height:204px;" version="1.1" viewBox="0 0 218 204" width="218pt"><defs><filter height="300%" id="f1" width="300%" x="-1" y="-1"><feGaussianBlur result="blurOut" stdDeviation="2.0"/><feColorMatrix in="blurOut" result="blurOut2" type="matrix" values="0 0 0 0 0 0 0 0 0 0 0 0 0 0 0 0 0 0 .4 0"/><feOffset dx="4.0" dy="4.0" in="blurOut2" result="blurOut3"/><feBlend in="SourceGraphic" in2="blurOut3" mode="normal"/></filter></defs><g><ellipse cx="64.5" cy="20" fill="#000000" filter="url(#f1)" rx="10" ry="10" style="stroke: none; stroke-width: 1.0;"/><polygon fill="#FBFB77" filter="url(#f1)" points="123,94.5508,123,137.2539,201,137.2539,201,104.5508,191,94.5508,123,94.5508" style="stroke: #A80036; stroke-width: 1.0;"/><polygon fill="#FBFB77" points="123,94.5508,123,111.9023,103,115.9023,123,119.9023,123,137.2539,201,137.2539,201,104.5508,191,94.5508,123,94.5508" style="stroke: #A80036; stroke-width: 1.0;"/><line style="stroke: #A80036; stroke-width: 1.0;" x1="191" x2="191" y1="94.5508" y2="104.5508"/><line style="stroke: #A80036; stroke-width: 1.0;" x1="191" x2="201" y1="104.5508" y2="104.5508"/><text fill="#000000" font-family="sans-serif" font-size="13" lengthAdjust="spacingAndGlyphs" textLength="29" x="129" y="113.0459">auto-</text><text fill="#000000" font-family="sans-serif" font-size="13" lengthAdjust="spacingAndGlyphs" textLength="57" x="129" y="129.3975">increment</text><rect fill="#FEFECE" filter="url(#f1)" height="35.0938" rx="12.5" ry="12.5" style="stroke: #A80036; stroke-width: 1.5;" width="77" x="26" y="98.3555"/><text fill="#000000" font-family="sans-serif" font-size="12" lengthAdjust="spacingAndGlyphs" textLength="57" x="36" y="120.8125">instruction</text><polygon fill="#FEFECE" filter="url(#f1)" points="51.5,50,77.5,50,89.5,62,77.5,74,51.5,74,39.5,62,51.5,50" style="stroke: #A80036; stroke-width: 1.5;"/><text fill="#000000" font-family="sans-serif" font-size="11" lengthAdjust="spacingAndGlyphs" textLength="26" x="51.5" y="66.501">i &lt; 10</text><polygon fill="#A80036" points="209,94,213,84,217,94,213,90" style="stroke: #A80036; stroke-width: 1.0;"/><polygon fill="#A80036" points="10,99.9023,14,109.9023,18,99.9023,14,103.9023" style="stroke: #A80036; stroke-width: 1.0;"/><ellipse cx="64.5" cy="187.4492" fill="none" filter="url(#f1)" rx="10" ry="10" style="stroke: #000000; stroke-width: 1.0;"/><ellipse cx="65" cy="187.9492" fill="#000000" filter="url(#f1)" rx="6" ry="6" style="stroke: none; stroke-width: 1.0;"/><line style="stroke: #A80036; stroke-width: 1.5;" x1="64.5" x2="64.5" y1="74" y2="98.3555"/><polygon fill="#A80036" points="60.5,88.3555,64.5,98.3555,68.5,88.3555,64.5,92.3555" style="stroke: #A80036; stroke-width: 1.0;"/><line style="stroke: #A80036; stroke-width: 1.5;" x1="64.5" x2="64.5" y1="133.4492" y2="145.4492"/><line style="stroke: #A80036; stroke-width: 1.5;" x1="64.5" x2="213" y1="145.4492" y2="145.4492"/><line style="stroke: #A80036; stroke-width: 1.5;" x1="213" x2="213" y1="62" y2="145.4492"/><line style="stroke: #A80036; stroke-width: 1.5;" x1="89.5" x2="213" y1="62" y2="62"/><polygon fill="#A80036" points="99.5,58,89.5,62,99.5,66,95.5,62" style="stroke: #A80036; stroke-width: 1.0;"/><line style="stroke: #A80036; stroke-width: 1.5;" x1="14" x2="39.5" y1="62" y2="62"/><line style="stroke: #A80036; stroke-width: 1.5;" x1="14" x2="14" y1="62" y2="162.4492"/><line style="stroke: #A80036; stroke-width: 1.5;" x1="14" x2="64.5" y1="162.4492" y2="162.4492"/><line style="stroke: #A80036; stroke-width: 1.5;" x1="64.5" x2="64.5" y1="30" y2="50"/><polygon fill="#A80036" points="60.5,40,64.5,50,68.5,40,64.5,44" style="stroke: #A80036; stroke-width: 1.0;"/><line style="stroke: #A80036; stroke-width: 1.5;" x1="64.5" x2="64.5" y1="162.4492" y2="177.4492"/><polygon fill="#A80036" points="60.5,167.4492,64.5,177.4492,68.5,167.4492,64.5,171.4492" style="stroke: #A80036; stroke-width: 1.0;"/></g></svg>