<?xml version="1.0" encoding="UTF-8" standalone="yes"?><svg xmlns="http://www.w3.org/2000/svg" xmlns:xlink="http://www.w3.org/1999/xlink" height="275pt" style="width:99px;height:275px;" version="1.1" viewBox="0 0 99 275" width="99pt"><defs><filter height="300%" id="f1" width="300%" x="-1" y="-1"><feGaussianBlur result="blurOut" stdDeviation="2.0"/><feColorMatrix in="blurOut" result="blurOut2" type="matrix" values="0 0 0 0 0 0 0 0 0 0 0 0 0 0 0 0 0 0 .4 0"/><feOffset dx="4.0" dy="4.0" in="blurOut2" result="blurOut3"/><feBlend in="SourceGraphic" in2="blurOut3" mode="normal"/></filter></defs><g><ellipse cx="46" cy="20" fill="#000000" filter="url(#f1)" rx="10" ry="10" style="stroke: none; stroke-width: 1.0;"/><rect fill="#FEFECE" filter="url(#f1)" height="35.0938" rx="12.5" ry="12.5" style="stroke: #A80036; stroke-width: 1.5;" width="72" x="10" y="94"/><text fill="#000000" font-family="sans-serif" font-size="12" lengthAdjust="spacingAndGlyphs" textLength="52" x="20" y="116.457">operation</text><rect fill="#FEFECE" filter="url(#f1)" height="35.0938" rx="12.5" ry="12.5" style="stroke: #A80036; stroke-width: 1.5;" width="37" x="27.5" y="149.0938"/><text fill="#000000" font-family="sans-serif" font-size="12" lengthAdjust="spacingAndGlyphs" textLength="17" x="37.5" y="171.5508">i++</text><polygon fill="#FEFECE" filter="url(#f1)" points="46,50,58,62,46,74,34,62,46,50" style="stroke: #A80036; stroke-width: 1.5;"/><polygon fill="#FEFECE" filter="url(#f1)" points="33,204.1875,59,204.1875,71,216.1875,59,228.1875,33,228.1875,21,216.1875,33,204.1875" style="stroke: #A80036; stroke-width: 1.5;"/><text fill="#000000" font-family="sans-serif" font-size="11" lengthAdjust="spacingAndGlyphs" textLength="26" x="33" y="220.6885">i &lt; 10</text><polygon fill="#A80036" points="90,165.5938,94,155.5938,98,165.5938,94,161.5938" style="stroke: #A80036; stroke-width: 1.0;"/><ellipse cx="46" cy="258.1875" fill="none" filter="url(#f1)" rx="10" ry="10" style="stroke: #000000; stroke-width: 1.0;"/><ellipse cx="46.5" cy="258.6875" fill="#000000" filter="url(#f1)" rx="6" ry="6" style="stroke: none; stroke-width: 1.0;"/><line style="stroke: #A80036; stroke-width: 1.5;" x1="46" x2="46" y1="129.0938" y2="149.0938"/><polygon fill="#A80036" points="42,139.0938,46,149.0938,50,139.0938,46,143.0938" style="stroke: #A80036; stroke-width: 1.0;"/><line style="stroke: #A80036; stroke-width: 1.5;" x1="46" x2="46" y1="74" y2="94"/><polygon fill="#A80036" points="42,84,46,94,50,84,46,88" style="stroke: #A80036; stroke-width: 1.0;"/><line style="stroke: #A80036; stroke-width: 1.5;" x1="71" x2="94" y1="216.1875" y2="216.1875"/><line style="stroke: #A80036; stroke-width: 1.5;" x1="94" x2="94" y1="62" y2="216.1875"/><line style="stroke: #A80036; stroke-width: 1.5;" x1="58" x2="94" y1="62" y2="62"/><polygon fill="#A80036" points="68,58,58,62,68,66,64,62" style="stroke: #A80036; stroke-width: 1.0;"/><line style="stroke: #A80036; stroke-width: 1.5;" x1="46" x2="46" y1="184.1875" y2="204.1875"/><polygon fill="#A80036" points="42,194.1875,46,204.1875,50,194.1875,46,198.1875" style="stroke: #A80036; stroke-width: 1.0;"/><line style="stroke: #A80036; stroke-width: 1.5;" x1="46" x2="46" y1="30" y2="50"/><polygon fill="#A80036" points="42,40,46,50,50,40,46,44" style="stroke: #A80036; stroke-width: 1.0;"/><line style="stroke: #A80036; stroke-width: 1.5;" x1="46" x2="46" y1="228.1875" y2="248.1875"/><polygon fill="#A80036" points="42,238.1875,46,248.1875,50,238.1875,46,242.1875" style="stroke: #A80036; stroke-width: 1.0;"/></g></svg>