<?xml version="1.0" encoding="UTF-8" standalone="yes"?><svg xmlns="http://www.w3.org/2000/svg" xmlns:xlink="http://www.w3.org/1999/xlink" height="257pt" style="width:349px;height:257px;" version="1.1" viewBox="0 0 349 257" width="349pt"><defs><filter height="300%" id="f1" width="300%" x="-1" y="-1"><feGaussianBlur result="blurOut" stdDeviation="2.0"/><feColorMatrix in="blurOut" result="blurOut2" type="matrix" values="0 0 0 0 0 0 0 0 0 0 0 0 0 0 0 0 0 0 .4 0"/><feOffset dx="4.0" dy="4.0" in="blurOut2" result="blurOut3"/><feBlend in="SourceGraphic" in2="blurOut3" mode="normal"/></filter></defs><g><rect fill="#FEFECE" filter="url(#f1)" height="131.0156" style="stroke: #A80036; stroke-width: 1.5;" width="80" x="6" y="8.5"/><ellipse cx="22.35" cy="24.5" fill="#ADD1B2" rx="11" ry="11" style="stroke: #A80036; stroke-width: 1.0;"/><path d="M25.1156,20.375 Q25.2719,20.1563 25.4594,20.0469 Q25.6469,19.9375 25.8656,19.9375 Q26.2406,19.9375 26.475,20.1953 Q26.7094,20.4531 26.7094,21.0625 L26.7094,22.5156 Q26.7094,23.125 26.475,23.3906 Q26.2406,23.6563 25.8656,23.6563 Q25.5219,23.6563 25.3188,23.4531 Q25.1156,23.2656 25.0063,22.75 Q24.9594,22.3906 24.7719,22.2031 Q24.4438,21.8281 23.8344,21.6094 Q23.225,21.3906 22.6,21.3906 Q21.8344,21.3906 21.2016,21.7188 Q20.5688,22.0469 20.0766,22.7969 Q19.5844,23.5469 19.5844,24.5781 L19.5844,25.6719 Q19.5844,26.9063 20.475,27.7266 Q21.3656,28.5469 22.9594,28.5469 Q23.8969,28.5469 24.5531,28.2969 Q24.9438,28.1406 25.3656,27.7031 Q25.6313,27.4375 25.7797,27.3594 Q25.9281,27.2813 26.1313,27.2813 Q26.4594,27.2813 26.7172,27.5391 Q26.975,27.7969 26.975,28.1406 Q26.975,28.4844 26.6313,28.8906 Q26.1313,29.4688 25.3344,29.7969 Q24.2563,30.25 22.9594,30.25 Q21.4438,30.25 20.2406,29.625 Q19.2563,29.125 18.5688,28.0547 Q17.8813,26.9844 17.8813,25.7031 L17.8813,24.5469 Q17.8813,23.2188 18.4984,22.0703 Q19.1156,20.9219 20.2094,20.3047 Q21.3031,19.6875 22.5375,19.6875 Q23.2719,19.6875 23.9203,19.8516 Q24.5688,20.0156 25.1156,20.375 Z "/><text fill="#000000" font-family="sans-serif" font-size="12" lengthAdjust="spacingAndGlyphs" textLength="45" x="36.65" y="29.4102">Triangle</text><line style="stroke: #A80036; stroke-width: 1.5;" x1="7" x2="85" y1="40.5" y2="40.5"/><text fill="#000000" font-family="sans-serif" font-size="11" lengthAdjust="spacingAndGlyphs" textLength="24" x="12" y="55.9189">base</text><text fill="#000000" font-family="sans-serif" font-size="11" lengthAdjust="spacingAndGlyphs" textLength="29" x="12" y="69.7549">height</text><text fill="#000000" font-family="sans-serif" font-size="11" lengthAdjust="spacingAndGlyphs" textLength="28" x="12" y="83.5908">sideA</text><text fill="#000000" font-family="sans-serif" font-size="11" lengthAdjust="spacingAndGlyphs" textLength="27" x="12" y="97.4268">sideB</text><line style="stroke: #A80036; stroke-width: 1.5;" x1="7" x2="85" y1="103.8438" y2="103.8438"/><text fill="#000000" font-family="sans-serif" font-size="11" lengthAdjust="spacingAndGlyphs" textLength="47" x="12" y="119.2627">getArea()</text><text fill="#000000" font-family="sans-serif" font-size="11" lengthAdjust="spacingAndGlyphs" textLength="68" x="12" y="133.0986">getPerimeter()</text><rect fill="#FEFECE" filter="url(#f1)" height="48" style="stroke: #A80036; stroke-width: 1.5;" width="72" x="137" y="200"/><ellipse cx="152" cy="216" fill="#ADD1B2" rx="11" ry="11" style="stroke: #A80036; stroke-width: 1.0;"/><path d="M154.7656,211.875 Q154.9219,211.6563 155.1094,211.5469 Q155.2969,211.4375 155.5156,211.4375 Q155.8906,211.4375 156.125,211.6953 Q156.3594,211.9531 156.3594,212.5625 L156.3594,214.0156 Q156.3594,214.625 156.125,214.8906 Q155.8906,215.1563 155.5156,215.1563 Q155.1719,215.1563 154.9688,214.9531 Q154.7656,214.7656 154.6563,214.25 Q154.6094,213.8906 154.4219,213.7031 Q154.0938,213.3281 153.4844,213.1094 Q152.875,212.8906 152.25,212.8906 Q151.4844,212.8906 150.8516,213.2188 Q150.2188,213.5469 149.7266,214.2969 Q149.2344,215.0469 149.2344,216.0781 L149.2344,217.1719 Q149.2344,218.4063 150.125,219.2266 Q151.0156,220.0469 152.6094,220.0469 Q153.5469,220.0469 154.2031,219.7969 Q154.5938,219.6406 155.0156,219.2031 Q155.2813,218.9375 155.4297,218.8594 Q155.5781,218.7813 155.7813,218.7813 Q156.1094,218.7813 156.3672,219.0391 Q156.625,219.2969 156.625,219.6406 Q156.625,219.9844 156.2813,220.3906 Q155.7813,220.9688 154.9844,221.2969 Q153.9063,221.75 152.6094,221.75 Q151.0938,221.75 149.8906,221.125 Q148.9063,220.625 148.2188,219.5547 Q147.5313,218.4844 147.5313,217.2031 L147.5313,216.0469 Q147.5313,214.7188 148.1484,213.5703 Q148.7656,212.4219 149.8594,211.8047 Q150.9531,211.1875 152.1875,211.1875 Q152.9219,211.1875 153.5703,211.3516 Q154.2188,211.5156 154.7656,211.875 Z "/><text fill="#000000" font-family="sans-serif" font-size="12" lengthAdjust="spacingAndGlyphs" textLength="40" x="166" y="220.9102">Square</text><line style="stroke: #A80036; stroke-width: 1.5;" x1="138" x2="208" y1="232" y2="232"/><line style="stroke: #A80036; stroke-width: 1.5;" x1="138" x2="208" y1="240" y2="240"/><rect fill="#FEFECE" filter="url(#f1)" height="103.3438" style="stroke: #A80036; stroke-width: 1.5;" width="103" x="121.75" y="22.5"/><ellipse cx="136.75" cy="38.5" fill="#ADD1B2" rx="11" ry="11" style="stroke: #A80036; stroke-width: 1.0;"/><path d="M139.5156,34.375 Q139.6719,34.1563 139.8594,34.0469 Q140.0469,33.9375 140.2656,33.9375 Q140.6406,33.9375 140.875,34.1953 Q141.1094,34.4531 141.1094,35.0625 L141.1094,36.5156 Q141.1094,37.125 140.875,37.3906 Q140.6406,37.6563 140.2656,37.6563 Q139.9219,37.6563 139.7188,37.4531 Q139.5156,37.2656 139.4063,36.75 Q139.3594,36.3906 139.1719,36.2031 Q138.8438,35.8281 138.2344,35.6094 Q137.625,35.3906 137,35.3906 Q136.2344,35.3906 135.6016,35.7188 Q134.9688,36.0469 134.4766,36.7969 Q133.9844,37.5469 133.9844,38.5781 L133.9844,39.6719 Q133.9844,40.9063 134.875,41.7266 Q135.7656,42.5469 137.3594,42.5469 Q138.2969,42.5469 138.9531,42.2969 Q139.3438,42.1406 139.7656,41.7031 Q140.0313,41.4375 140.1797,41.3594 Q140.3281,41.2813 140.5313,41.2813 Q140.8594,41.2813 141.1172,41.5391 Q141.375,41.7969 141.375,42.1406 Q141.375,42.4844 141.0313,42.8906 Q140.5313,43.4688 139.7344,43.7969 Q138.6563,44.25 137.3594,44.25 Q135.8438,44.25 134.6406,43.625 Q133.6563,43.125 132.9688,42.0547 Q132.2813,40.9844 132.2813,39.7031 L132.2813,38.5469 Q132.2813,37.2188 132.8984,36.0703 Q133.5156,34.9219 134.6094,34.3047 Q135.7031,33.6875 136.9375,33.6875 Q137.6719,33.6875 138.3203,33.8516 Q138.9688,34.0156 139.5156,34.375 Z "/><text fill="#000000" font-family="sans-serif" font-size="12" lengthAdjust="spacingAndGlyphs" textLength="71" x="150.75" y="43.4102">Quadrilateral</text><line style="stroke: #A80036; stroke-width: 1.5;" x1="122.75" x2="223.75" y1="54.5" y2="54.5"/><text fill="#000000" font-family="sans-serif" font-size="11" lengthAdjust="spacingAndGlyphs" textLength="29" x="127.75" y="69.9189">height</text><text fill="#000000" font-family="sans-serif" font-size="11" lengthAdjust="spacingAndGlyphs" textLength="27" x="127.75" y="83.7549">width</text><line style="stroke: #A80036; stroke-width: 1.5;" x1="122.75" x2="223.75" y1="90.1719" y2="90.1719"/><text fill="#000000" font-family="sans-serif" font-size="11" lengthAdjust="spacingAndGlyphs" textLength="47" x="127.75" y="105.5908">getArea()</text><text fill="#000000" font-family="sans-serif" font-size="11" lengthAdjust="spacingAndGlyphs" textLength="68" x="127.75" y="119.4268">getPerimeter()</text><rect fill="#FEFECE" filter="url(#f1)" height="89.5078" style="stroke: #A80036; stroke-width: 1.5;" width="80" x="260" y="29"/><ellipse cx="282.2" cy="45" fill="#ADD1B2" rx="11" ry="11" style="stroke: #A80036; stroke-width: 1.0;"/><path d="M284.9656,40.875 Q285.1219,40.6563 285.3094,40.5469 Q285.4969,40.4375 285.7156,40.4375 Q286.0906,40.4375 286.325,40.6953 Q286.5594,40.9531 286.5594,41.5625 L286.5594,43.0156 Q286.5594,43.625 286.325,43.8906 Q286.0906,44.1563 285.7156,44.1563 Q285.3719,44.1563 285.1688,43.9531 Q284.9656,43.7656 284.8563,43.25 Q284.8094,42.8906 284.6219,42.7031 Q284.2938,42.3281 283.6844,42.1094 Q283.075,41.8906 282.45,41.8906 Q281.6844,41.8906 281.0516,42.2188 Q280.4188,42.5469 279.9266,43.2969 Q279.4344,44.0469 279.4344,45.0781 L279.4344,46.1719 Q279.4344,47.4063 280.325,48.2266 Q281.2156,49.0469 282.8094,49.0469 Q283.7469,49.0469 284.4031,48.7969 Q284.7938,48.6406 285.2156,48.2031 Q285.4813,47.9375 285.6297,47.8594 Q285.7781,47.7813 285.9813,47.7813 Q286.3094,47.7813 286.5672,48.0391 Q286.825,48.2969 286.825,48.6406 Q286.825,48.9844 286.4813,49.3906 Q285.9813,49.9688 285.1844,50.2969 Q284.1063,50.75 282.8094,50.75 Q281.2938,50.75 280.0906,50.125 Q279.1063,49.625 278.4188,48.5547 Q277.7313,47.4844 277.7313,46.2031 L277.7313,45.0469 Q277.7313,43.7188 278.3484,42.5703 Q278.9656,41.4219 280.0594,40.8047 Q281.1531,40.1875 282.3875,40.1875 Q283.1219,40.1875 283.7703,40.3516 Q284.4188,40.5156 284.9656,40.875 Z "/><text fill="#000000" font-family="sans-serif" font-size="12" lengthAdjust="spacingAndGlyphs" textLength="32" x="297.8" y="49.9102">Circle</text><line style="stroke: #A80036; stroke-width: 1.5;" x1="261" x2="339" y1="61" y2="61"/><text fill="#000000" font-family="sans-serif" font-size="11" lengthAdjust="spacingAndGlyphs" textLength="30" x="266" y="76.4189">radius</text><line style="stroke: #A80036; stroke-width: 1.5;" x1="261" x2="339" y1="82.8359" y2="82.8359"/><text fill="#000000" font-family="sans-serif" font-size="11" lengthAdjust="spacingAndGlyphs" textLength="47" x="266" y="98.2549">getArea()</text><text fill="#000000" font-family="sans-serif" font-size="11" lengthAdjust="spacingAndGlyphs" textLength="68" x="266" y="112.0908">getPerimeter()</text><path d="M173,145.524 C173,165.052 173,184.9036 173,199.623 " fill="none" style="stroke: #A80036; stroke-width: 1.0;"/><polygon fill="none" points="166,145.519,173,125.519,180,145.519,166,145.519" style="stroke: #A80036; stroke-width: 1.0;"/></g></svg>