<?xml version="1.0" encoding="UTF-8" standalone="yes"?><svg xmlns="http://www.w3.org/2000/svg" xmlns:xlink="http://www.w3.org/1999/xlink" height="253pt" style="width:517px;height:253px;" version="1.1" viewBox="0 0 517 253" width="517pt"><defs><filter height="300%" id="f1" width="300%" x="-1" y="-1"><feGaussianBlur result="blurOut" stdDeviation="2.0"/><feColorMatrix in="blurOut" result="blurOut2" type="matrix" values="0 0 0 0 0 0 0 0 0 0 0 0 0 0 0 0 0 0 .4 0"/><feOffset dx="4.0" dy="4.0" in="blurOut2" result="blurOut3"/><feBlend in="SourceGraphic" in2="blurOut3" mode="normal"/></filter></defs><g><rect fill="#FFFFFF" filter="url(#f1)" height="107" style="stroke: #000000; stroke-width: 2.0;" width="318" x="29" y="24"/><text fill="#000000" font-family="sans-serif" font-size="14" font-weight="bold" lengthAdjust="spacingAndGlyphs" textLength="96" x="140" y="40.5332">Java Program</text><rect fill="#FFFFFF" filter="url(#f1)" height="91" style="stroke: #000000; stroke-width: 2.0;" width="113" x="14" y="155"/><text fill="#000000" font-family="sans-serif" font-size="14" font-weight="bold" lengthAdjust="spacingAndGlyphs" textLength="96" x="22.5" y="171.5332">Java Program</text><rect fill="#FFFFFF" filter="url(#f1)" height="37.6094" style="stroke: #A80036; stroke-width: 1.5;" width="50" x="45" y="61"/><text fill="#000000" font-family="sans-serif" font-size="14" lengthAdjust="spacingAndGlyphs" textLength="30" x="55" y="85.5332">DAO</text><rect fill="#FFFFFF" filter="url(#f1)" height="37.6094" style="stroke: #A80036; stroke-width: 1.5;" width="130" x="201" y="69"/><text fill="#000000" font-family="sans-serif" font-size="14" lengthAdjust="spacingAndGlyphs" textLength="110" x="211" y="93.5332">Embedded Derby</text><rect fill="#FFFFFF" filter="url(#f1)" height="37.6094" style="stroke: #A80036; stroke-width: 1.5;" width="50" x="45" y="192"/><text fill="#000000" font-family="sans-serif" font-size="14" lengthAdjust="spacingAndGlyphs" textLength="30" x="55" y="216.5332">DAO</text><rect fill="#FFFFFF" filter="url(#f1)" height="37.6094" style="stroke: #A80036; stroke-width: 1.5;" width="104" x="214" y="159"/><text fill="#000000" font-family="sans-serif" font-size="14" lengthAdjust="spacingAndGlyphs" textLength="84" x="224" y="183.5332">Derby Server</text><path d="M395.5,116.5 C395.5,106.5 453,106.5 453,106.5 C453,106.5 510.5,106.5 510.5,116.5 L510.5,139.1094 C510.5,149.1094 453,149.1094 453,149.1094 C453,149.1094 395.5,149.1094 395.5,139.1094 L395.5,116.5 " fill="#FFFFFF" filter="url(#f1)" style="stroke: #A80036; stroke-width: 1.5;"/><path d="M395.5,116.5 C395.5,126.5 453,126.5 453,126.5 C453,126.5 510.5,126.5 510.5,116.5 " fill="none" style="stroke: #A80036; stroke-width: 1.5;"/><text fill="#000000" font-family="sans-serif" font-size="14" lengthAdjust="spacingAndGlyphs" textLength="95" x="405.5" y="141.0332">Database Files</text><path d="M95.178,80.997 C120.252,82.031 160.625,83.696 195.716,85.143 " fill="none" style="stroke: #A80036; stroke-width: 1.0;"/><polygon fill="#A80036" points="200.852,85.355,192.0254,80.9856,195.8563,85.1479,191.694,88.9787,200.852,85.355" style="stroke: #A80036; stroke-width: 1.0;"/><text fill="#000000" font-family="sans-serif" font-size="13" lengthAdjust="spacingAndGlyphs" textLength="24" x="144.5" y="79.4951">jdbc</text><path d="M331.185,101.878 C350.263,106.003 371.12,110.512 390.053,114.606 " fill="none" style="stroke: #A80036; stroke-width: 1.0;"/><polygon fill="#A80036" points="395.339,115.749,387.3881,109.9366,390.452,114.6919,385.6968,117.7558,395.339,115.749" style="stroke: #A80036; stroke-width: 1.0;"/><path d="M95.178,206.8873 C123.466,202.0755 171.225,193.9515 208.903,187.5422 " fill="none" style="stroke: #A80036; stroke-width: 1.0;"/><polygon fill="#A80036" points="213.915,186.6897,204.3716,184.2558,208.9858,187.5283,205.7133,192.1425,213.915,186.6897" style="stroke: #A80036; stroke-width: 1.0;"/><text fill="#000000" font-family="sans-serif" font-size="13" lengthAdjust="spacingAndGlyphs" textLength="24" x="144.5" y="189.4951">jdbc</text><path d="M318.042,164.2049 C340.408,158.16 366.851,151.013 390.31,144.673 " fill="none" style="stroke: #A80036; stroke-width: 1.0;"/><polygon fill="#A80036" points="395.268,143.333,385.5362,141.8191,390.4411,144.6372,387.6229,149.5421,395.268,143.333" style="stroke: #A80036; stroke-width: 1.0;"/></g></svg>