<?xml version="1.0" encoding="UTF-8" standalone="yes"?><svg xmlns="http://www.w3.org/2000/svg" xmlns:xlink="http://www.w3.org/1999/xlink" height="380pt" style="width:1191px;height:380px;" version="1.1" viewBox="0 0 1191 380" width="1191pt"><defs><filter height="300%" id="f1" width="300%" x="-1" y="-1"><feGaussianBlur result="blurOut" stdDeviation="2.0"/><feColorMatrix in="blurOut" result="blurOut2" type="matrix" values="0 0 0 0 0 0 0 0 0 0 0 0 0 0 0 0 0 0 .4 0"/><feOffset dx="4.0" dy="4.0" in="blurOut2" result="blurOut3"/><feBlend in="SourceGraphic" in2="blurOut3" mode="normal"/></filter></defs><g><rect fill="#FFFFFF" filter="url(#f1)" height="349" style="stroke: #000000; stroke-width: 2.0;" width="1162" x="22" y="24"/><path d="M86,25 L86,34.6094 L76,44.6094 L22,44.6094 " fill="#FFFFFF" style="stroke: #000000; stroke-width: 2.0;"/><text fill="#000000" font-family="sans-serif" font-size="14" font-weight="bold" lengthAdjust="spacingAndGlyphs" textLength="50" x="25" y="39.5332">Project</text><rect fill="#FFFFFF" filter="url(#f1)" height="203" style="stroke: #000000; stroke-width: 2.0;" width="212" x="948" y="122"/><path d="M980,123 L980,132.6094 L970,142.6094 L948,142.6094 " fill="#FFFFFF" style="stroke: #000000; stroke-width: 2.0;"/><text fill="#000000" font-family="sans-serif" font-size="14" font-weight="bold" lengthAdjust="spacingAndGlyphs" textLength="22" x="951" y="137.5332">src</text><rect fill="#FFFFFF" filter="url(#f1)" height="280" style="stroke: #000000; stroke-width: 2.0;" width="878" x="46" y="69"/><path d="M143,70 L143,79.6094 L133,89.6094 L46,89.6094 " fill="#FFFFFF" style="stroke: #000000; stroke-width: 2.0;"/><text fill="#000000" font-family="sans-serif" font-size="14" font-weight="bold" lengthAdjust="spacingAndGlyphs" textLength="87" x="49" y="84.5332">WebContent</text><rect fill="#FFFFFF" filter="url(#f1)" height="211" style="stroke: #000000; stroke-width: 2.0;" width="296" x="604" y="114"/><path d="M674,115 L674,124.6094 L664,134.6094 L604,134.6094 " fill="#FFFFFF" style="stroke: #000000; stroke-width: 2.0;"/><text fill="#000000" font-family="sans-serif" font-size="14" font-weight="bold" lengthAdjust="spacingAndGlyphs" textLength="60" x="607" y="129.5332">WEB-INF</text><rect fill="#FFFFFF" filter="url(#f1)" height="203" style="stroke: #000000; stroke-width: 2.0;" width="284" x="296" y="122"/><path d="M373,123 L373,132.6094 L363,142.6094 L296,142.6094 " fill="#FFFFFF" style="stroke: #000000; stroke-width: 2.0;"/><text fill="#000000" font-family="sans-serif" font-size="14" font-weight="bold" lengthAdjust="spacingAndGlyphs" textLength="67" x="299" y="137.5332">META-INF</text><rect fill="#FEFECE" filter="url(#f1)" height="37.6094" style="stroke: #A80036; stroke-width: 1.5;" width="100" x="1004" y="271"/><rect fill="#FEFECE" height="5" style="stroke: #A80036; stroke-width: 1.5;" width="10" x="999" y="276"/><rect fill="#FEFECE" height="5" style="stroke: #A80036; stroke-width: 1.5;" width="10" x="999" y="298.6094"/><text fill="#000000" font-family="sans-serif" font-size="14" lengthAdjust="spacingAndGlyphs" textLength="80" x="1014" y="295.5332">java sources</text><polygon fill="#FBFB77" filter="url(#f1)" points="964.75,159.5,964.75,202.2031,1143.75,202.2031,1143.75,169.5,1133.75,159.5,964.75,159.5" style="stroke: #A80036; stroke-width: 1.0;"/><polygon fill="#FBFB77" points="964.75,159.5,964.75,202.2031,1050,202.2031,1054,270.925,1058,202.2031,1143.75,202.2031,1143.75,169.5,1133.75,159.5,964.75,159.5" style="stroke: #A80036; stroke-width: 1.0;"/><line style="stroke: #A80036; stroke-width: 1.0;" x1="1133.75" x2="1133.75" y1="159.5" y2="169.5"/><line style="stroke: #A80036; stroke-width: 1.0;" x1="1143.75" x2="1133.75" y1="169.5" y2="169.5"/><text fill="#000000" font-family="sans-serif" font-size="13" lengthAdjust="spacingAndGlyphs" textLength="158" x="970.75" y="177.9951">contains the java resources</text><text fill="#000000" font-family="sans-serif" font-size="13" lengthAdjust="spacingAndGlyphs" textLength="59" x="970.75" y="194.3467">"as usual"</text><rect fill="#FEFECE" filter="url(#f1)" height="37.6094" style="stroke: #A80036; stroke-width: 1.5;" width="215" x="62.75" y="162"/><rect fill="#FEFECE" height="5" style="stroke: #A80036; stroke-width: 1.5;" width="10" x="57.75" y="167"/><rect fill="#FEFECE" height="5" style="stroke: #A80036; stroke-width: 1.5;" width="10" x="57.75" y="189.6094"/><text fill="#000000" font-family="sans-serif" font-size="14" lengthAdjust="spacingAndGlyphs" textLength="195" x="72.75" y="186.5332">Available pages and resources</text><rect fill="#FEFECE" filter="url(#f1)" height="37.6094" style="stroke: #A80036; stroke-width: 1.5;" width="130" x="687" y="271"/><rect fill="#FEFECE" height="5" style="stroke: #A80036; stroke-width: 1.5;" width="10" x="682" y="276"/><rect fill="#FEFECE" height="5" style="stroke: #A80036; stroke-width: 1.5;" width="10" x="682" y="298.6094"/><text fill="#000000" font-family="sans-serif" font-size="14" lengthAdjust="spacingAndGlyphs" textLength="110" x="697" y="295.5332">private resources</text><polygon fill="#FBFB77" filter="url(#f1)" points="620,151.5,620,210.5547,884,210.5547,884,161.5,874,151.5,620,151.5" style="stroke: #A80036; stroke-width: 1.0;"/><polygon fill="#FBFB77" points="620,151.5,620,210.5547,748,210.5547,752,270.686,756,210.5547,884,210.5547,884,161.5,874,151.5,620,151.5" style="stroke: #A80036; stroke-width: 1.0;"/><line style="stroke: #A80036; stroke-width: 1.0;" x1="874" x2="874" y1="151.5" y2="161.5"/><line style="stroke: #A80036; stroke-width: 1.0;" x1="884" x2="874" y1="161.5" y2="161.5"/><text fill="#000000" font-family="sans-serif" font-size="13" lengthAdjust="spacingAndGlyphs" textLength="206" x="626" y="169.9951">contains configuration files libraries,</text><text fill="#000000" font-family="sans-serif" font-size="13" lengthAdjust="spacingAndGlyphs" textLength="243" x="626" y="186.3467">classes and other resources, not available</text><text fill="#000000" font-family="sans-serif" font-size="13" lengthAdjust="spacingAndGlyphs" textLength="96" x="626" y="202.6982">via the web layer</text><rect fill="#FEFECE" filter="url(#f1)" height="37.6094" style="stroke: #A80036; stroke-width: 1.5;" width="161" x="357.75" y="271"/><rect fill="#FEFECE" height="5" style="stroke: #A80036; stroke-width: 1.5;" width="10" x="352.75" y="276"/><rect fill="#FEFECE" height="5" style="stroke: #A80036; stroke-width: 1.5;" width="10" x="352.75" y="298.6094"/><text fill="#000000" font-family="sans-serif" font-size="14" lengthAdjust="spacingAndGlyphs" textLength="141" x="367.75" y="295.5332">application description</text><polygon fill="#FBFB77" filter="url(#f1)" points="312.75,159.5,312.75,202.2031,563.75,202.2031,563.75,169.5,553.75,159.5,312.75,159.5" style="stroke: #A80036; stroke-width: 1.0;"/><polygon fill="#FBFB77" points="312.75,159.5,312.75,202.2031,434,202.2031,438,270.925,442,202.2031,563.75,202.2031,563.75,169.5,553.75,159.5,312.75,159.5" style="stroke: #A80036; stroke-width: 1.0;"/><line style="stroke: #A80036; stroke-width: 1.0;" x1="553.75" x2="553.75" y1="159.5" y2="169.5"/><line style="stroke: #A80036; stroke-width: 1.0;" x1="563.75" x2="553.75" y1="169.5" y2="169.5"/><text fill="#000000" font-family="sans-serif" font-size="13" lengthAdjust="spacingAndGlyphs" textLength="230" x="318.75" y="177.9951">contains the application description, the</text><text fill="#000000" font-family="sans-serif" font-size="13" lengthAdjust="spacingAndGlyphs" textLength="135" x="318.75" y="194.3467">application context etc.</text></g></svg>