<?xml version="1.0" encoding="UTF-8" standalone="yes"?><svg xmlns="http://www.w3.org/2000/svg" xmlns:xlink="http://www.w3.org/1999/xlink" height="284pt" style="width:190px;height:284px;" version="1.1" viewBox="0 0 190 284" width="190pt"><defs><filter height="300%" id="f1" width="300%" x="-1" y="-1"><feGaussianBlur result="blurOut" stdDeviation="2.0"/><feColorMatrix in="blurOut" result="blurOut2" type="matrix" values="0 0 0 0 0 0 0 0 0 0 0 0 0 0 0 0 0 0 .4 0"/><feOffset dx="4.0" dy="4.0" in="blurOut2" result="blurOut3"/><feBlend in="SourceGraphic" in2="blurOut3" mode="normal"/></filter></defs><g><rect fill="#FEFECE" filter="url(#f1)" height="103.3438" style="stroke: #A80036; stroke-width: 1.5;" width="175" x="6" y="172.5"/><ellipse cx="79.25" cy="188.5" fill="#ADD1B2" rx="11" ry="11" style="stroke: #A80036; stroke-width: 1.0;"/><path d="M82.0156,184.375 Q82.1719,184.1563 82.3594,184.0469 Q82.5469,183.9375 82.7656,183.9375 Q83.1406,183.9375 83.375,184.1953 Q83.6094,184.4531 83.6094,185.0625 L83.6094,186.5156 Q83.6094,187.125 83.375,187.3906 Q83.1406,187.6563 82.7656,187.6563 Q82.4219,187.6563 82.2188,187.4531 Q82.0156,187.2656 81.9063,186.75 Q81.8594,186.3906 81.6719,186.2031 Q81.3438,185.8281 80.7344,185.6094 Q80.125,185.3906 79.5,185.3906 Q78.7344,185.3906 78.1016,185.7188 Q77.4688,186.0469 76.9766,186.7969 Q76.4844,187.5469 76.4844,188.5781 L76.4844,189.6719 Q76.4844,190.9063 77.375,191.7266 Q78.2656,192.5469 79.8594,192.5469 Q80.7969,192.5469 81.4531,192.2969 Q81.8438,192.1406 82.2656,191.7031 Q82.5313,191.4375 82.6797,191.3594 Q82.8281,191.2813 83.0313,191.2813 Q83.3594,191.2813 83.6172,191.5391 Q83.875,191.7969 83.875,192.1406 Q83.875,192.4844 83.5313,192.8906 Q83.0313,193.4688 82.2344,193.7969 Q81.1563,194.25 79.8594,194.25 Q78.3438,194.25 77.1406,193.625 Q76.1563,193.125 75.4688,192.0547 Q74.7813,190.9844 74.7813,189.7031 L74.7813,188.5469 Q74.7813,187.2188 75.3984,186.0703 Q76.0156,184.9219 77.1094,184.3047 Q78.2031,183.6875 79.4375,183.6875 Q80.1719,183.6875 80.8203,183.8516 Q81.4688,184.0156 82.0156,184.375 Z "/><text fill="#000000" font-family="sans-serif" font-size="12" lengthAdjust="spacingAndGlyphs" textLength="20" x="99.75" y="193.4102">Car</text><line style="stroke: #A80036; stroke-width: 1.5;" x1="7" x2="180" y1="204.5" y2="204.5"/><rect fill="none" height="6" style="stroke: #C82930; stroke-width: 1.0;" width="6" x="14" y="213.918"/><text fill="#000000" font-family="sans-serif" font-size="11" lengthAdjust="spacingAndGlyphs" textLength="59" x="26" y="219.9189">String model</text><rect fill="none" height="6" style="stroke: #C82930; stroke-width: 1.0;" width="6" x="14" y="227.7539"/><text fill="#000000" font-family="sans-serif" font-size="11" lengthAdjust="spacingAndGlyphs" textLength="59" x="26" y="233.7549">String brand</text><line style="stroke: #A80036; stroke-width: 1.5;" x1="7" x2="180" y1="240.1719" y2="240.1719"/><ellipse cx="17" cy="252.5898" fill="#84BE84" rx="3" ry="3" style="stroke: #038048; stroke-width: 1.0;"/><text fill="#000000" font-family="sans-serif" font-size="11" lengthAdjust="spacingAndGlyphs" textLength="149" x="26" y="255.5908">Car(String model, String brand)</text><ellipse cx="17" cy="266.4258" fill="#84BE84" rx="3" ry="3" style="stroke: #038048; stroke-width: 1.0;"/><text fill="#000000" font-family="sans-serif" font-size="11" lengthAdjust="spacingAndGlyphs" textLength="76" x="26" y="269.4268">String toString()</text><rect fill="#FEFECE" filter="url(#f1)" height="103.3438" style="stroke: #A80036; stroke-width: 1.5;" width="134" x="26.25" y="8.5"/><ellipse cx="55.65" cy="24.5" fill="#ADD1B2" rx="11" ry="11" style="stroke: #A80036; stroke-width: 1.0;"/><path d="M58.4156,20.375 Q58.5719,20.1563 58.7594,20.0469 Q58.9469,19.9375 59.1656,19.9375 Q59.5406,19.9375 59.775,20.1953 Q60.0094,20.4531 60.0094,21.0625 L60.0094,22.5156 Q60.0094,23.125 59.775,23.3906 Q59.5406,23.6563 59.1656,23.6563 Q58.8219,23.6563 58.6188,23.4531 Q58.4156,23.2656 58.3063,22.75 Q58.2594,22.3906 58.0719,22.2031 Q57.7438,21.8281 57.1344,21.6094 Q56.525,21.3906 55.9,21.3906 Q55.1344,21.3906 54.5016,21.7188 Q53.8688,22.0469 53.3766,22.7969 Q52.8844,23.5469 52.8844,24.5781 L52.8844,25.6719 Q52.8844,26.9063 53.775,27.7266 Q54.6656,28.5469 56.2594,28.5469 Q57.1969,28.5469 57.8531,28.2969 Q58.2438,28.1406 58.6656,27.7031 Q58.9313,27.4375 59.0797,27.3594 Q59.2281,27.2813 59.4313,27.2813 Q59.7594,27.2813 60.0172,27.5391 Q60.275,27.7969 60.275,28.1406 Q60.275,28.4844 59.9313,28.8906 Q59.4313,29.4688 58.6344,29.7969 Q57.5563,30.25 56.2594,30.25 Q54.7438,30.25 53.5406,29.625 Q52.5563,29.125 51.8688,28.0547 Q51.1813,26.9844 51.1813,25.7031 L51.1813,24.5469 Q51.1813,23.2188 51.7984,22.0703 Q52.4156,20.9219 53.5094,20.3047 Q54.6031,19.6875 55.8375,19.6875 Q56.5719,19.6875 57.2203,19.8516 Q57.8688,20.0156 58.4156,20.375 Z "/><text fill="#000000" font-family="sans-serif" font-size="12" lengthAdjust="spacingAndGlyphs" textLength="70" x="72.85" y="29.4102">MotorVehicle</text><line style="stroke: #A80036; stroke-width: 1.5;" x1="27.25" x2="159.25" y1="40.5" y2="40.5"/><rect fill="none" height="6" style="stroke: #C82930; stroke-width: 1.0;" width="6" x="34.25" y="49.918"/><text fill="#000000" font-family="sans-serif" font-size="11" lengthAdjust="spacingAndGlyphs" textLength="87" x="46.25" y="55.9189">String engineType</text><polygon fill="none" points="37.25,61.7539,41.25,65.7539,37.25,69.7539,33.25,65.7539" style="stroke: #B38D22; stroke-width: 1.0;"/><text fill="#000000" font-family="sans-serif" font-size="11" lengthAdjust="spacingAndGlyphs" textLength="108" x="46.25" y="69.7549">boolean engineStarted</text><line style="stroke: #A80036; stroke-width: 1.5;" x1="27.25" x2="159.25" y1="76.1719" y2="76.1719"/><ellipse cx="37.25" cy="88.5898" fill="#84BE84" rx="3" ry="3" style="stroke: #038048; stroke-width: 1.0;"/><text fill="#000000" font-family="sans-serif" font-size="11" lengthAdjust="spacingAndGlyphs" textLength="53" x="46.25" y="91.5908">void start()</text><ellipse cx="37.25" cy="102.4258" fill="#84BE84" rx="3" ry="3" style="stroke: #038048; stroke-width: 1.0;"/><text fill="#000000" font-family="sans-serif" font-size="11" lengthAdjust="spacingAndGlyphs" textLength="52" x="46.25" y="105.4268">void stop()</text><path d="M93.25,131.965 C93.25,145.571 93.25,159.561 93.25,172.367 " fill="none" style="stroke: #A80036; stroke-width: 1.0;"/><polygon fill="none" points="86.2501,131.813,93.25,111.813,100.2501,131.813,86.2501,131.813" style="stroke: #A80036; stroke-width: 1.0;"/></g></svg>