<?xml version="1.0" encoding="UTF-8" standalone="yes"?><svg xmlns="http://www.w3.org/2000/svg" xmlns:xlink="http://www.w3.org/1999/xlink" height="169pt" style="width:572px;height:169px;" version="1.1" viewBox="0 0 572 169" width="572pt"><defs><filter height="300%" id="f1" width="300%" x="-1" y="-1"><feGaussianBlur result="blurOut" stdDeviation="2.0"/><feColorMatrix in="blurOut" result="blurOut2" type="matrix" values="0 0 0 0 0 0 0 0 0 0 0 0 0 0 0 0 0 0 .4 0"/><feOffset dx="4.0" dy="4.0" in="blurOut2" result="blurOut3"/><feBlend in="SourceGraphic" in2="blurOut3" mode="normal"/></filter></defs><g><rect fill="#FEFECE" filter="url(#f1)" height="131.0156" style="stroke: #A80036; stroke-width: 1.5;" width="123" x="31" y="29"/><ellipse cx="69.85" cy="45" fill="#ADD1B2" rx="11" ry="11" style="stroke: #A80036; stroke-width: 1.0;"/><path d="M72.6156,40.875 Q72.7719,40.6563 72.9594,40.5469 Q73.1469,40.4375 73.3656,40.4375 Q73.7406,40.4375 73.975,40.6953 Q74.2094,40.9531 74.2094,41.5625 L74.2094,43.0156 Q74.2094,43.625 73.975,43.8906 Q73.7406,44.1563 73.3656,44.1563 Q73.0219,44.1563 72.8188,43.9531 Q72.6156,43.7656 72.5063,43.25 Q72.4594,42.8906 72.2719,42.7031 Q71.9438,42.3281 71.3344,42.1094 Q70.725,41.8906 70.1,41.8906 Q69.3344,41.8906 68.7016,42.2188 Q68.0688,42.5469 67.5766,43.2969 Q67.0844,44.0469 67.0844,45.0781 L67.0844,46.1719 Q67.0844,47.4063 67.975,48.2266 Q68.8656,49.0469 70.4594,49.0469 Q71.3969,49.0469 72.0531,48.7969 Q72.4438,48.6406 72.8656,48.2031 Q73.1313,47.9375 73.2797,47.8594 Q73.4281,47.7813 73.6313,47.7813 Q73.9594,47.7813 74.2172,48.0391 Q74.475,48.2969 74.475,48.6406 Q74.475,48.9844 74.1313,49.3906 Q73.6313,49.9688 72.8344,50.2969 Q71.7563,50.75 70.4594,50.75 Q68.9438,50.75 67.7406,50.125 Q66.7563,49.625 66.0688,48.5547 Q65.3813,47.4844 65.3813,46.2031 L65.3813,45.0469 Q65.3813,43.7188 65.9984,42.5703 Q66.6156,41.4219 67.7094,40.8047 Q68.8031,40.1875 70.0375,40.1875 Q70.7719,40.1875 71.4203,40.3516 Q72.0688,40.5156 72.6156,40.875 Z "/><text fill="#000000" font-family="sans-serif" font-size="12" lengthAdjust="spacingAndGlyphs" textLength="38" x="89.15" y="49.9102">Identity</text><line style="stroke: #A80036; stroke-width: 1.5;" x1="32" x2="153" y1="61" y2="61"/><rect fill="none" height="6" style="stroke: #C82930; stroke-width: 1.0;" width="6" x="39" y="70.418"/><text fill="#000000" font-family="sans-serif" font-size="11" lengthAdjust="spacingAndGlyphs" textLength="14" x="51" y="76.4189">uid</text><rect fill="none" height="6" style="stroke: #C82930; stroke-width: 1.0;" width="6" x="39" y="84.2539"/><text fill="#000000" font-family="sans-serif" font-size="11" lengthAdjust="spacingAndGlyphs" textLength="61" x="51" y="90.2549">displayName</text><rect fill="none" height="6" style="stroke: #C82930; stroke-width: 1.0;" width="6" x="39" y="98.0898"/><text fill="#000000" font-family="sans-serif" font-size="11" lengthAdjust="spacingAndGlyphs" textLength="24" x="51" y="104.0908">email</text><line style="stroke: #A80036; stroke-width: 1.5;" x1="32" x2="153" y1="110.5078" y2="110.5078"/><ellipse cx="42" cy="122.9258" fill="#84BE84" rx="3" ry="3" style="stroke: #038048; stroke-width: 1.0;"/><text fill="#000000" font-family="sans-serif" font-size="11" lengthAdjust="spacingAndGlyphs" textLength="97" x="51" y="125.9268">getDisplayedName()</text><ellipse cx="42" cy="136.7617" fill="#84BE84" rx="3" ry="3" style="stroke: #038048; stroke-width: 1.0;"/><text fill="#000000" font-family="sans-serif" font-size="11" lengthAdjust="spacingAndGlyphs" textLength="47" x="51" y="139.7627">getEmail()</text><ellipse cx="42" cy="150.5977" fill="#84BE84" rx="3" ry="3" style="stroke: #038048; stroke-width: 1.0;"/><text fill="#000000" font-family="sans-serif" font-size="11" lengthAdjust="spacingAndGlyphs" textLength="38" x="51" y="153.5986">getUid()</text><rect fill="#FEFECE" filter="url(#f1)" height="103.3438" style="stroke: #A80036; stroke-width: 1.5;" width="325" x="238.5" y="43.5"/><ellipse cx="364.75" cy="59.5" fill="#ADD1B2" rx="11" ry="11" style="stroke: #A80036; stroke-width: 1.0;"/><path d="M367.5156,55.375 Q367.6719,55.1563 367.8594,55.0469 Q368.0469,54.9375 368.2656,54.9375 Q368.6406,54.9375 368.875,55.1953 Q369.1094,55.4531 369.1094,56.0625 L369.1094,57.5156 Q369.1094,58.125 368.875,58.3906 Q368.6406,58.6563 368.2656,58.6563 Q367.9219,58.6563 367.7188,58.4531 Q367.5156,58.2656 367.4063,57.75 Q367.3594,57.3906 367.1719,57.2031 Q366.8438,56.8281 366.2344,56.6094 Q365.625,56.3906 365,56.3906 Q364.2344,56.3906 363.6016,56.7188 Q362.9688,57.0469 362.4766,57.7969 Q361.9844,58.5469 361.9844,59.5781 L361.9844,60.6719 Q361.9844,61.9063 362.875,62.7266 Q363.7656,63.5469 365.3594,63.5469 Q366.2969,63.5469 366.9531,63.2969 Q367.3438,63.1406 367.7656,62.7031 Q368.0313,62.4375 368.1797,62.3594 Q368.3281,62.2813 368.5313,62.2813 Q368.8594,62.2813 369.1172,62.5391 Q369.375,62.7969 369.375,63.1406 Q369.375,63.4844 369.0313,63.8906 Q368.5313,64.4688 367.7344,64.7969 Q366.6563,65.25 365.3594,65.25 Q363.8438,65.25 362.6406,64.625 Q361.6563,64.125 360.9688,63.0547 Q360.2813,61.9844 360.2813,60.7031 L360.2813,59.5469 Q360.2813,58.2188 360.8984,57.0703 Q361.5156,55.9219 362.6094,55.3047 Q363.7031,54.6875 364.9375,54.6875 Q365.6719,54.6875 366.3203,54.8516 Q366.9688,55.0156 367.5156,55.375 Z "/><text fill="#000000" font-family="sans-serif" font-size="12" lengthAdjust="spacingAndGlyphs" textLength="64" x="385.25" y="64.4102">PhoneBook</text><line style="stroke: #A80036; stroke-width: 1.5;" x1="239.5" x2="562.5" y1="75.5" y2="75.5"/><polygon fill="none" points="249.5,83.918,245.5,89.918,253.5,89.918" style="stroke: #1963A0; stroke-width: 1.0;"/><text fill="#000000" font-family="sans-serif" font-size="11" lengthAdjust="spacingAndGlyphs" textLength="117" x="258.5" y="90.9189">List&lt;Identity&gt; identityList</text><line style="stroke: #A80036; stroke-width: 1.5;" x1="239.5" x2="562.5" y1="97.3359" y2="97.3359"/><ellipse cx="249.5" cy="109.7539" fill="#84BE84" rx="3" ry="3" style="stroke: #038048; stroke-width: 1.0;"/><text fill="#000000" font-family="sans-serif" font-size="11" lengthAdjust="spacingAndGlyphs" textLength="62" x="258.5" y="112.7549">PhoneBook()</text><ellipse cx="249.5" cy="123.5898" fill="#84BE84" rx="3" ry="3" style="stroke: #038048; stroke-width: 1.0;"/><text fill="#000000" font-family="sans-serif" font-size="11" lengthAdjust="spacingAndGlyphs" textLength="108" x="258.5" y="126.5908">List&lt;Identity&gt; display()</text><ellipse cx="249.5" cy="137.4258" fill="#84BE84" rx="3" ry="3" style="stroke: #038048; stroke-width: 1.0;"/><text fill="#000000" font-family="sans-serif" font-size="11" lengthAdjust="spacingAndGlyphs" textLength="299" x="258.5" y="140.4268">void inputIdentityInformation(String firstName, String lastName)</text><path d="M154.091,95 C178.632,95 208.306,95 238.425,95 " fill="none" style="stroke: #A80036; stroke-width: 1.0;"/><text fill="#000000" font-family="sans-serif" font-size="13" lengthAdjust="spacingAndGlyphs" textLength="5" x="161.9021" y="95.2476">*</text></g></svg>