<?xml version="1.0" encoding="UTF-8" standalone="yes"?><svg xmlns="http://www.w3.org/2000/svg" xmlns:xlink="http://www.w3.org/1999/xlink" height="210pt" style="width:543px;height:210px;" version="1.1" viewBox="0 0 543 210" width="543pt"><defs><filter height="300%" id="f1" width="300%" x="-1" y="-1"><feGaussianBlur result="blurOut" stdDeviation="2.0"/><feColorMatrix in="blurOut" result="blurOut2" type="matrix" values="0 0 0 0 0 0 0 0 0 0 0 0 0 0 0 0 0 0 .4 0"/><feOffset dx="4.0" dy="4.0" in="blurOut2" result="blurOut3"/><feBlend in="SourceGraphic" in2="blurOut3" mode="normal"/></filter></defs><g><rect fill="#FEFECE" filter="url(#f1)" height="61.8359" style="stroke: #A80036; stroke-width: 1.5;" width="94" x="6" y="84"/><ellipse cx="30.45" cy="100" fill="#ADD1B2" rx="11" ry="11" style="stroke: #A80036; stroke-width: 1.0;"/><path d="M33.2156,95.875 Q33.3719,95.6563 33.5594,95.5469 Q33.7469,95.4375 33.9656,95.4375 Q34.3406,95.4375 34.575,95.6953 Q34.8094,95.9531 34.8094,96.5625 L34.8094,98.0156 Q34.8094,98.625 34.575,98.8906 Q34.3406,99.1563 33.9656,99.1563 Q33.6219,99.1563 33.4188,98.9531 Q33.2156,98.7656 33.1063,98.25 Q33.0594,97.8906 32.8719,97.7031 Q32.5438,97.3281 31.9344,97.1094 Q31.325,96.8906 30.7,96.8906 Q29.9344,96.8906 29.3016,97.2188 Q28.6688,97.5469 28.1766,98.2969 Q27.6844,99.0469 27.6844,100.0781 L27.6844,101.1719 Q27.6844,102.4063 28.575,103.2266 Q29.4656,104.0469 31.0594,104.0469 Q31.9969,104.0469 32.6531,103.7969 Q33.0438,103.6406 33.4656,103.2031 Q33.7313,102.9375 33.8797,102.8594 Q34.0281,102.7813 34.2313,102.7813 Q34.5594,102.7813 34.8172,103.0391 Q35.075,103.2969 35.075,103.6406 Q35.075,103.9844 34.7313,104.3906 Q34.2313,104.9688 33.4344,105.2969 Q32.3563,105.75 31.0594,105.75 Q29.5438,105.75 28.3406,105.125 Q27.3563,104.625 26.6688,103.5547 Q25.9813,102.4844 25.9813,101.2031 L25.9813,100.0469 Q25.9813,98.7188 26.5984,97.5703 Q27.2156,96.4219 28.3094,95.8047 Q29.4031,95.1875 30.6375,95.1875 Q31.3719,95.1875 32.0203,95.3516 Q32.6688,95.5156 33.2156,95.875 Z "/><text fill="#000000" font-family="sans-serif" font-size="12" lengthAdjust="spacingAndGlyphs" textLength="41" x="46.55" y="104.9102">Human</text><line style="stroke: #A80036; stroke-width: 1.5;" x1="7" x2="99" y1="116" y2="116"/><line style="stroke: #A80036; stroke-width: 1.5;" x1="7" x2="99" y1="124" y2="124"/><ellipse cx="17" cy="136.418" fill="#84BE84" rx="3" ry="3" style="stroke: #038048; stroke-width: 1.0;"/><text fill="#000000" font-family="sans-serif" font-size="11" lengthAdjust="spacingAndGlyphs" textLength="68" x="26" y="139.4189">playWithDog()</text><rect fill="#FEFECE" filter="url(#f1)" height="172.5234" style="stroke: #A80036; stroke-width: 1.5;" width="153" x="381" y="29"/><ellipse cx="441.75" cy="45" fill="#ADD1B2" rx="11" ry="11" style="stroke: #A80036; stroke-width: 1.0;"/><path d="M444.5156,40.875 Q444.6719,40.6563 444.8594,40.5469 Q445.0469,40.4375 445.2656,40.4375 Q445.6406,40.4375 445.875,40.6953 Q446.1094,40.9531 446.1094,41.5625 L446.1094,43.0156 Q446.1094,43.625 445.875,43.8906 Q445.6406,44.1563 445.2656,44.1563 Q444.9219,44.1563 444.7188,43.9531 Q444.5156,43.7656 444.4063,43.25 Q444.3594,42.8906 444.1719,42.7031 Q443.8438,42.3281 443.2344,42.1094 Q442.625,41.8906 442,41.8906 Q441.2344,41.8906 440.6016,42.2188 Q439.9688,42.5469 439.4766,43.2969 Q438.9844,44.0469 438.9844,45.0781 L438.9844,46.1719 Q438.9844,47.4063 439.875,48.2266 Q440.7656,49.0469 442.3594,49.0469 Q443.2969,49.0469 443.9531,48.7969 Q444.3438,48.6406 444.7656,48.2031 Q445.0313,47.9375 445.1797,47.8594 Q445.3281,47.7813 445.5313,47.7813 Q445.8594,47.7813 446.1172,48.0391 Q446.375,48.2969 446.375,48.6406 Q446.375,48.9844 446.0313,49.3906 Q445.5313,49.9688 444.7344,50.2969 Q443.6563,50.75 442.3594,50.75 Q440.8438,50.75 439.6406,50.125 Q438.6563,49.625 437.9688,48.5547 Q437.2813,47.4844 437.2813,46.2031 L437.2813,45.0469 Q437.2813,43.7188 437.8984,42.5703 Q438.5156,41.4219 439.6094,40.8047 Q440.7031,40.1875 441.9375,40.1875 Q442.6719,40.1875 443.3203,40.3516 Q443.9688,40.5156 444.5156,40.875 Z "/><text fill="#000000" font-family="sans-serif" font-size="12" lengthAdjust="spacingAndGlyphs" textLength="23" x="462.25" y="49.9102">Dog</text><line style="stroke: #A80036; stroke-width: 1.5;" x1="382" x2="533" y1="61" y2="61"/><rect fill="none" height="6" style="stroke: #C82930; stroke-width: 1.0;" width="6" x="389" y="88.2539"/><text fill="#000000" font-family="sans-serif" font-size="11" lengthAdjust="spacingAndGlyphs" textLength="24" x="401" y="94.2549">color</text><rect fill="none" height="6" style="stroke: #C82930; stroke-width: 1.0;" width="6" x="389" y="102.0898"/><text fill="#000000" font-family="sans-serif" font-size="11" lengthAdjust="spacingAndGlyphs" textLength="20" x="401" y="108.0908">size</text><text fill="#000000" font-family="sans-serif" font-size="11" lengthAdjust="spacingAndGlyphs" textLength="0" x="404" y="121.9268"/><line style="stroke: #A80036; stroke-width: 1.0; stroke-dasharray: 1.0,2.0;" x1="382" x2="433" y1="75.918" y2="75.918"/><text fill="#000000" font-family="sans-serif" font-size="11" lengthAdjust="spacingAndGlyphs" textLength="49" x="433" y="79.9189">Properties</text><line style="stroke: #A80036; stroke-width: 1.0; stroke-dasharray: 1.0,2.0;" x1="482" x2="533" y1="75.918" y2="75.918"/><ellipse cx="392" cy="150.5977" fill="#84BE84" rx="3" ry="3" style="stroke: #038048; stroke-width: 1.0;"/><text fill="#000000" font-family="sans-serif" font-size="11" lengthAdjust="spacingAndGlyphs" textLength="24" x="401" y="153.5986">run()</text><ellipse cx="392" cy="164.4336" fill="#84BE84" rx="3" ry="3" style="stroke: #038048; stroke-width: 1.0;"/><text fill="#000000" font-family="sans-serif" font-size="11" lengthAdjust="spacingAndGlyphs" textLength="72" x="401" y="167.4346">eat(Food food)</text><ellipse cx="392" cy="178.2695" fill="#84BE84" rx="3" ry="3" style="stroke: #038048; stroke-width: 1.0;"/><text fill="#000000" font-family="sans-serif" font-size="11" lengthAdjust="spacingAndGlyphs" textLength="127" x="401" y="181.2705">bringBackTheBall(Ball ball)</text><text fill="#000000" font-family="sans-serif" font-size="11" lengthAdjust="spacingAndGlyphs" textLength="0" x="404" y="195.1064"/><line style="stroke: #A80036; stroke-width: 1.0; stroke-dasharray: 1.0,2.0;" x1="382" x2="437" y1="135.2617" y2="135.2617"/><text fill="#000000" font-family="sans-serif" font-size="11" lengthAdjust="spacingAndGlyphs" textLength="41" x="437" y="139.2627">Methods</text><line style="stroke: #A80036; stroke-width: 1.0; stroke-dasharray: 1.0,2.0;" x1="478" x2="533" y1="135.2617" y2="135.2617"/><path d="M100.2292,115 C167.294,115 292.584,115 375.403,115 " fill="none" style="stroke: #A80036; stroke-width: 1.0;"/><polygon fill="#A80036" points="380.795,115,371.795,111,375.795,115,371.795,119,380.795,115" style="stroke: #A80036; stroke-width: 1.0;"/><text fill="#000000" font-family="sans-serif" font-size="13" font-weight="bold" lengthAdjust="spacingAndGlyphs" textLength="117" x="131.5" y="110.4951">bringBackTheBall(</text><text fill="#000000" font-family="sans-serif" font-size="13" lengthAdjust="spacingAndGlyphs" textLength="63" x="252.5" y="110.4951">theRedBall</text><text fill="#000000" font-family="sans-serif" font-size="13" font-weight="bold" lengthAdjust="spacingAndGlyphs" textLength="4" x="319.5" y="110.4951">)</text><text fill="#000000" font-family="sans-serif" font-size="13" lengthAdjust="spacingAndGlyphs" textLength="98" x="274.8658" y="128.9279">&lt; returns the ball</text></g></svg>