<?xml version="1.0" encoding="UTF-8" standalone="yes"?><svg xmlns="http://www.w3.org/2000/svg" xmlns:xlink="http://www.w3.org/1999/xlink" height="130pt" style="width:79px;height:130px;" version="1.1" viewBox="0 0 79 130" width="79pt"><defs><filter height="300%" id="f1" width="300%" x="-1" y="-1"><feGaussianBlur result="blurOut" stdDeviation="2.0"/><feColorMatrix in="blurOut" result="blurOut2" type="matrix" values="0 0 0 0 0 0 0 0 0 0 0 0 0 0 0 0 0 0 .4 0"/><feOffset dx="4.0" dy="4.0" in="blurOut2" result="blurOut3"/><feBlend in="SourceGraphic" in2="blurOut3" mode="normal"/></filter></defs><g><rect fill="#FEFECE" filter="url(#f1)" height="113.1797" style="stroke: #A80036; stroke-width: 1.5;" width="64" x="6" y="8.5"/><ellipse cx="25.05" cy="24.5" fill="#ADD1B2" rx="11" ry="11" style="stroke: #A80036; stroke-width: 1.0;"/><path d="M27.8156,20.375 Q27.9719,20.1563 28.1594,20.0469 Q28.3469,19.9375 28.5656,19.9375 Q28.9406,19.9375 29.175,20.1953 Q29.4094,20.4531 29.4094,21.0625 L29.4094,22.5156 Q29.4094,23.125 29.175,23.3906 Q28.9406,23.6563 28.5656,23.6563 Q28.2219,23.6563 28.0188,23.4531 Q27.8156,23.2656 27.7063,22.75 Q27.6594,22.3906 27.4719,22.2031 Q27.1438,21.8281 26.5344,21.6094 Q25.925,21.3906 25.3,21.3906 Q24.5344,21.3906 23.9016,21.7188 Q23.2688,22.0469 22.7766,22.7969 Q22.2844,23.5469 22.2844,24.5781 L22.2844,25.6719 Q22.2844,26.9063 23.175,27.7266 Q24.0656,28.5469 25.6594,28.5469 Q26.5969,28.5469 27.2531,28.2969 Q27.6438,28.1406 28.0656,27.7031 Q28.3313,27.4375 28.4797,27.3594 Q28.6281,27.2813 28.8313,27.2813 Q29.1594,27.2813 29.4172,27.5391 Q29.675,27.7969 29.675,28.1406 Q29.675,28.4844 29.3313,28.8906 Q28.8313,29.4688 28.0344,29.7969 Q26.9563,30.25 25.6594,30.25 Q24.1438,30.25 22.9406,29.625 Q21.9563,29.125 21.2688,28.0547 Q20.5813,26.9844 20.5813,25.7031 L20.5813,24.5469 Q20.5813,23.2188 21.1984,22.0703 Q21.8156,20.9219 22.9094,20.3047 Q24.0031,19.6875 25.2375,19.6875 Q25.9719,19.6875 26.6203,19.8516 Q27.2688,20.0156 27.8156,20.375 Z "/><text fill="#000000" font-family="sans-serif" font-size="12" lengthAdjust="spacingAndGlyphs" textLength="23" x="39.95" y="29.4102">Dog</text><line style="stroke: #A80036; stroke-width: 1.5;" x1="7" x2="69" y1="40.5" y2="40.5"/><rect fill="none" height="6" style="stroke: #C82930; stroke-width: 1.0;" width="6" x="14" y="67.7539"/><text fill="#000000" font-family="sans-serif" font-size="11" lengthAdjust="spacingAndGlyphs" textLength="24" x="26" y="73.7549">color</text><rect fill="none" height="6" style="stroke: #C82930; stroke-width: 1.0;" width="6" x="14" y="81.5898"/><text fill="#000000" font-family="sans-serif" font-size="11" lengthAdjust="spacingAndGlyphs" textLength="20" x="26" y="87.5908">size</text><rect fill="none" height="6" style="stroke: #C82930; stroke-width: 1.0;" width="6" x="14" y="95.4258"/><text fill="#000000" font-family="sans-serif" font-size="11" lengthAdjust="spacingAndGlyphs" textLength="38" x="26" y="101.4268">species</text><text fill="#000000" font-family="sans-serif" font-size="11" lengthAdjust="spacingAndGlyphs" textLength="0" x="29" y="115.2627"/><line style="stroke: #A80036; stroke-width: 1.0; stroke-dasharray: 1.0,2.0;" x1="7" x2="13.5" y1="55.418" y2="55.418"/><text fill="#000000" font-family="sans-serif" font-size="11" lengthAdjust="spacingAndGlyphs" textLength="49" x="13.5" y="59.4189">Properties</text><line style="stroke: #A80036; stroke-width: 1.0; stroke-dasharray: 1.0,2.0;" x1="62.5" x2="69" y1="55.418" y2="55.418"/></g></svg>