<?xml version="1.0" encoding="UTF-8" standalone="yes"?><svg xmlns="http://www.w3.org/2000/svg" xmlns:xlink="http://www.w3.org/1999/xlink" height="141pt" style="width:297px;height:141px;" version="1.1" viewBox="0 0 297 141" width="297pt"><defs><filter height="300%" id="f1" width="300%" x="-1" y="-1"><feGaussianBlur result="blurOut" stdDeviation="2.0"/><feColorMatrix in="blurOut" result="blurOut2" type="matrix" values="0 0 0 0 0 0 0 0 0 0 0 0 0 0 0 0 0 0 .4 0"/><feOffset dx="4.0" dy="4.0" in="blurOut2" result="blurOut3"/><feBlend in="SourceGraphic" in2="blurOut3" mode="normal"/></filter></defs><g><rect fill="#FEFECE" filter="url(#f1)" height="103.3438" style="stroke: #A80036; stroke-width: 1.5;" width="75" x="31" y="29"/><ellipse cx="46" cy="45" fill="#ADD1B2" rx="11" ry="11" style="stroke: #A80036; stroke-width: 1.0;"/><path d="M48.7656,40.875 Q48.9219,40.6563 49.1094,40.5469 Q49.2969,40.4375 49.5156,40.4375 Q49.8906,40.4375 50.125,40.6953 Q50.3594,40.9531 50.3594,41.5625 L50.3594,43.0156 Q50.3594,43.625 50.125,43.8906 Q49.8906,44.1563 49.5156,44.1563 Q49.1719,44.1563 48.9688,43.9531 Q48.7656,43.7656 48.6563,43.25 Q48.6094,42.8906 48.4219,42.7031 Q48.0938,42.3281 47.4844,42.1094 Q46.875,41.8906 46.25,41.8906 Q45.4844,41.8906 44.8516,42.2188 Q44.2188,42.5469 43.7266,43.2969 Q43.2344,44.0469 43.2344,45.0781 L43.2344,46.1719 Q43.2344,47.4063 44.125,48.2266 Q45.0156,49.0469 46.6094,49.0469 Q47.5469,49.0469 48.2031,48.7969 Q48.5938,48.6406 49.0156,48.2031 Q49.2813,47.9375 49.4297,47.8594 Q49.5781,47.7813 49.7813,47.7813 Q50.1094,47.7813 50.3672,48.0391 Q50.625,48.2969 50.625,48.6406 Q50.625,48.9844 50.2813,49.3906 Q49.7813,49.9688 48.9844,50.2969 Q47.9063,50.75 46.6094,50.75 Q45.0938,50.75 43.8906,50.125 Q42.9063,49.625 42.2188,48.5547 Q41.5313,47.4844 41.5313,46.2031 L41.5313,45.0469 Q41.5313,43.7188 42.1484,42.5703 Q42.7656,41.4219 43.8594,40.8047 Q44.9531,40.1875 46.1875,40.1875 Q46.9219,40.1875 47.5703,40.3516 Q48.2188,40.5156 48.7656,40.875 Z "/><text fill="#000000" font-family="sans-serif" font-size="12" lengthAdjust="spacingAndGlyphs" textLength="43" x="60" y="49.9102">Account</text><line style="stroke: #A80036; stroke-width: 1.5;" x1="32" x2="105" y1="61" y2="61"/><text fill="#000000" font-family="sans-serif" font-size="11" lengthAdjust="spacingAndGlyphs" textLength="36" x="37" y="76.4189">number</text><text fill="#000000" font-family="sans-serif" font-size="11" lengthAdjust="spacingAndGlyphs" textLength="44" x="37" y="90.2549">currency</text><text fill="#000000" font-family="sans-serif" font-size="11" lengthAdjust="spacingAndGlyphs" textLength="38" x="37" y="104.0908">balance</text><text fill="#000000" font-family="sans-serif" font-size="11" lengthAdjust="spacingAndGlyphs" textLength="32" x="37" y="117.9268">owner</text><line style="stroke: #A80036; stroke-width: 1.5;" x1="32" x2="105" y1="124.3438" y2="124.3438"/><rect fill="#FEFECE" filter="url(#f1)" height="103.3438" style="stroke: #A80036; stroke-width: 1.5;" width="72" x="216" y="29"/><ellipse cx="231" cy="45" fill="#ADD1B2" rx="11" ry="11" style="stroke: #A80036; stroke-width: 1.0;"/><path d="M233.7656,40.875 Q233.9219,40.6563 234.1094,40.5469 Q234.2969,40.4375 234.5156,40.4375 Q234.8906,40.4375 235.125,40.6953 Q235.3594,40.9531 235.3594,41.5625 L235.3594,43.0156 Q235.3594,43.625 235.125,43.8906 Q234.8906,44.1563 234.5156,44.1563 Q234.1719,44.1563 233.9688,43.9531 Q233.7656,43.7656 233.6563,43.25 Q233.6094,42.8906 233.4219,42.7031 Q233.0938,42.3281 232.4844,42.1094 Q231.875,41.8906 231.25,41.8906 Q230.4844,41.8906 229.8516,42.2188 Q229.2188,42.5469 228.7266,43.2969 Q228.2344,44.0469 228.2344,45.0781 L228.2344,46.1719 Q228.2344,47.4063 229.125,48.2266 Q230.0156,49.0469 231.6094,49.0469 Q232.5469,49.0469 233.2031,48.7969 Q233.5938,48.6406 234.0156,48.2031 Q234.2813,47.9375 234.4297,47.8594 Q234.5781,47.7813 234.7813,47.7813 Q235.1094,47.7813 235.3672,48.0391 Q235.625,48.2969 235.625,48.6406 Q235.625,48.9844 235.2813,49.3906 Q234.7813,49.9688 233.9844,50.2969 Q232.9063,50.75 231.6094,50.75 Q230.0938,50.75 228.8906,50.125 Q227.9063,49.625 227.2188,48.5547 Q226.5313,47.4844 226.5313,46.2031 L226.5313,45.0469 Q226.5313,43.7188 227.1484,42.5703 Q227.7656,41.4219 228.8594,40.8047 Q229.9531,40.1875 231.1875,40.1875 Q231.9219,40.1875 232.5703,40.3516 Q233.2188,40.5156 233.7656,40.875 Z "/><text fill="#000000" font-family="sans-serif" font-size="12" lengthAdjust="spacingAndGlyphs" textLength="40" x="245" y="49.9102">Person</text><line style="stroke: #A80036; stroke-width: 1.5;" x1="217" x2="287" y1="61" y2="61"/><text fill="#000000" font-family="sans-serif" font-size="11" lengthAdjust="spacingAndGlyphs" textLength="44" x="222" y="76.4189">lastName</text><text fill="#000000" font-family="sans-serif" font-size="11" lengthAdjust="spacingAndGlyphs" textLength="46" x="222" y="90.2549">firstName</text><text fill="#000000" font-family="sans-serif" font-size="11" lengthAdjust="spacingAndGlyphs" textLength="40" x="222" y="104.0908">address</text><text fill="#000000" font-family="sans-serif" font-size="11" lengthAdjust="spacingAndGlyphs" textLength="43" x="222" y="117.9268">birthDate</text><line style="stroke: #A80036; stroke-width: 1.5;" x1="217" x2="287" y1="124.3438" y2="124.3438"/><path d="M106.193,81 C138.071,81 184.214,81 215.794,81 " fill="none" style="stroke: #A80036; stroke-width: 1.0;"/><text fill="#000000" font-family="sans-serif" font-size="13" lengthAdjust="spacingAndGlyphs" textLength="5" x="114.106" y="80.9092">*</text><text fill="#000000" font-family="sans-serif" font-size="13" lengthAdjust="spacingAndGlyphs" textLength="22" x="186.177" y="76.756">1..2</text></g></svg>