<?xml version="1.0" encoding="UTF-8" standalone="yes"?><svg xmlns="http://www.w3.org/2000/svg" xmlns:xlink="http://www.w3.org/1999/xlink" height="460pt" style="width:409px;height:460px;" version="1.1" viewBox="0 0 409 460" width="409pt"><defs><filter height="300%" id="f1" width="300%" x="-1" y="-1"><feGaussianBlur result="blurOut" stdDeviation="2.0"/><feColorMatrix in="blurOut" result="blurOut2" type="matrix" values="0 0 0 0 0 0 0 0 0 0 0 0 0 0 0 0 0 0 .4 0"/><feOffset dx="4.0" dy="4.0" in="blurOut2" result="blurOut3"/><feBlend in="SourceGraphic" in2="blurOut3" mode="normal"/></filter></defs><g><ellipse cx="271.25" cy="20" fill="#000000" filter="url(#f1)" rx="10" ry="10" style="stroke: none; stroke-width: 1.0;"/><rect fill="#FEFECE" filter="url(#f1)" height="35.0938" rx="12.5" ry="12.5" style="stroke: #A80036; stroke-width: 1.5;" width="97" x="222.75" y="50"/><text fill="#000000" font-family="sans-serif" font-size="12" lengthAdjust="spacingAndGlyphs" textLength="77" x="232.75" y="72.457">authentication</text><polygon fill="#FEFECE" filter="url(#f1)" points="234.25,105.0938,308.25,105.0938,320.25,117.0938,308.25,129.0938,234.25,129.0938,222.25,117.0938,234.25,105.0938" style="stroke: #A80036; stroke-width: 1.5;"/><text fill="#000000" font-family="sans-serif" font-size="11" lengthAdjust="spacingAndGlyphs" textLength="74" x="234.25" y="121.5947">authenticated ?</text><rect fill="#FEFECE" filter="url(#f1)" height="35.0938" rx="12.5" ry="12.5" style="stroke: #A80036; stroke-width: 1.5;" width="52" x="112.5" y="193.0938"/><text fill="#000000" font-family="sans-serif" font-size="12" lengthAdjust="spacingAndGlyphs" textLength="32" x="122.5" y="215.5508">menu</text><rect fill="#000000" filter="url(#f1)" height="6" rx="2.5" ry="2.5" style="stroke: #000000; stroke-width: 1.0;" width="257" x="10" y="248.1875"/><rect fill="#FEFECE" filter="url(#f1)" height="35.0938" rx="12.5" ry="12.5" style="stroke: #A80036; stroke-width: 1.5;" width="57" x="24" y="274.1875"/><text fill="#000000" font-family="sans-serif" font-size="12" lengthAdjust="spacingAndGlyphs" textLength="37" x="34" y="296.6445">Create</text><rect fill="#FEFECE" filter="url(#f1)" height="35.0938" rx="12.5" ry="12.5" style="stroke: #A80036; stroke-width: 1.5;" width="60" x="109" y="274.1875"/><text fill="#000000" font-family="sans-serif" font-size="12" lengthAdjust="spacingAndGlyphs" textLength="40" x="119" y="296.6445">Update</text><rect fill="#FEFECE" filter="url(#f1)" height="35.0938" rx="12.5" ry="12.5" style="stroke: #A80036; stroke-width: 1.5;" width="56" x="197" y="274.1875"/><text fill="#000000" font-family="sans-serif" font-size="12" lengthAdjust="spacingAndGlyphs" textLength="36" x="207" y="296.6445">Delete</text><rect fill="#000000" filter="url(#f1)" height="6" rx="2.5" ry="2.5" style="stroke: #000000; stroke-width: 1.0;" width="257" x="10" y="329.2813"/><polygon fill="#FEFECE" filter="url(#f1)" points="138.5,149.0938,150.5,161.0938,138.5,173.0938,126.5,161.0938,138.5,149.0938" style="stroke: #A80036; stroke-width: 1.5;"/><polygon fill="#FEFECE" filter="url(#f1)" points="115,355.2813,162,355.2813,174,367.2813,162,379.2813,115,379.2813,103,367.2813,115,355.2813" style="stroke: #A80036; stroke-width: 1.5;"/><text fill="#000000" font-family="sans-serif" font-size="11" lengthAdjust="spacingAndGlyphs" textLength="47" x="115" y="371.7822">continue?</text><polygon fill="#A80036" points="275,290.6875,279,280.6875,283,290.6875,279,286.6875" style="stroke: #A80036; stroke-width: 1.0;"/><polygon fill="#FEFECE" filter="url(#f1)" points="271.25,389.2813,283.25,401.2813,271.25,413.2813,259.25,401.2813,271.25,389.2813" style="stroke: #A80036; stroke-width: 1.5;"/><ellipse cx="271.25" cy="443.2813" fill="none" filter="url(#f1)" rx="10" ry="10" style="stroke: #000000; stroke-width: 1.0;"/><ellipse cx="271.75" cy="443.7813" fill="#000000" filter="url(#f1)" rx="6" ry="6" style="stroke: none; stroke-width: 1.0;"/><line style="stroke: #A80036; stroke-width: 1.5;" x1="271.25" x2="271.25" y1="30" y2="50"/><polygon fill="#A80036" points="267.25,40,271.25,50,275.25,40,271.25,44" style="stroke: #A80036; stroke-width: 1.0;"/><line style="stroke: #A80036; stroke-width: 1.5;" x1="52.5" x2="52.5" y1="254.1875" y2="274.1875"/><polygon fill="#A80036" points="48.5,264.1875,52.5,274.1875,56.5,264.1875,52.5,268.1875" style="stroke: #A80036; stroke-width: 1.0;"/><line style="stroke: #A80036; stroke-width: 1.5;" x1="52.5" x2="52.5" y1="309.2813" y2="329.2813"/><polygon fill="#A80036" points="48.5,319.2813,52.5,329.2813,56.5,319.2813,52.5,323.2813" style="stroke: #A80036; stroke-width: 1.0;"/><line style="stroke: #A80036; stroke-width: 1.5;" x1="139" x2="139" y1="254.1875" y2="274.1875"/><polygon fill="#A80036" points="135,264.1875,139,274.1875,143,264.1875,139,268.1875" style="stroke: #A80036; stroke-width: 1.0;"/><line style="stroke: #A80036; stroke-width: 1.5;" x1="139" x2="139" y1="309.2813" y2="329.2813"/><polygon fill="#A80036" points="135,319.2813,139,329.2813,143,319.2813,139,323.2813" style="stroke: #A80036; stroke-width: 1.0;"/><line style="stroke: #A80036; stroke-width: 1.5;" x1="225" x2="225" y1="254.1875" y2="274.1875"/><polygon fill="#A80036" points="221,264.1875,225,274.1875,229,264.1875,225,268.1875" style="stroke: #A80036; stroke-width: 1.0;"/><line style="stroke: #A80036; stroke-width: 1.5;" x1="225" x2="225" y1="309.2813" y2="329.2813"/><polygon fill="#A80036" points="221,319.2813,225,329.2813,229,319.2813,225,323.2813" style="stroke: #A80036; stroke-width: 1.0;"/><line style="stroke: #A80036; stroke-width: 1.5;" x1="138.5" x2="138.5" y1="228.1875" y2="248.1875"/><polygon fill="#A80036" points="134.5,238.1875,138.5,248.1875,142.5,238.1875,138.5,242.1875" style="stroke: #A80036; stroke-width: 1.0;"/><line style="stroke: #A80036; stroke-width: 1.5;" x1="138.5" x2="138.5" y1="173.0938" y2="193.0938"/><polygon fill="#A80036" points="134.5,183.0938,138.5,193.0938,142.5,183.0938,138.5,187.0938" style="stroke: #A80036; stroke-width: 1.0;"/><line style="stroke: #A80036; stroke-width: 1.5;" x1="174" x2="279" y1="367.2813" y2="367.2813"/><line style="stroke: #A80036; stroke-width: 1.5;" x1="279" x2="279" y1="161.0938" y2="367.2813"/><line style="stroke: #A80036; stroke-width: 1.5;" x1="150.5" x2="279" y1="161.0938" y2="161.0938"/><polygon fill="#A80036" points="160.5,157.0938,150.5,161.0938,160.5,165.0938,156.5,161.0938" style="stroke: #A80036; stroke-width: 1.0;"/><line style="stroke: #A80036; stroke-width: 1.5;" x1="138.5" x2="138.5" y1="335.2813" y2="355.2813"/><polygon fill="#A80036" points="134.5,345.2813,138.5,355.2813,142.5,345.2813,138.5,349.2813" style="stroke: #A80036; stroke-width: 1.0;"/><line style="stroke: #A80036; stroke-width: 1.5;" x1="138.5" x2="222.25" y1="117.0938" y2="117.0938"/><line style="stroke: #A80036; stroke-width: 1.5;" x1="138.5" x2="138.5" y1="117.0938" y2="149.0938"/><polygon fill="#A80036" points="134.5,139.0938,138.5,149.0938,142.5,139.0938,138.5,143.0938" style="stroke: #A80036; stroke-width: 1.0;"/><line style="stroke: #A80036; stroke-width: 1.5;" x1="320.25" x2="404" y1="117.0938" y2="117.0938"/><line style="stroke: #A80036; stroke-width: 1.5;" x1="404" x2="404" y1="117.0938" y2="280.6875"/><polygon fill="#A80036" points="400,270.6875,404,280.6875,408,270.6875,404,274.6875" style="stroke: #A80036; stroke-width: 1.0;"/><line style="stroke: #A80036; stroke-width: 1.5;" x1="138.5" x2="138.5" y1="379.2813" y2="401.2813"/><line style="stroke: #A80036; stroke-width: 1.5;" x1="138.5" x2="259.25" y1="401.2813" y2="401.2813"/><polygon fill="#A80036" points="249.25,397.2813,259.25,401.2813,249.25,405.2813,253.25,401.2813" style="stroke: #A80036; stroke-width: 1.0;"/><line style="stroke: #A80036; stroke-width: 1.5;" x1="404" x2="404" y1="280.6875" y2="401.2813"/><line style="stroke: #A80036; stroke-width: 1.5;" x1="283.25" x2="404" y1="401.2813" y2="401.2813"/><polygon fill="#A80036" points="293.25,397.2813,283.25,401.2813,293.25,405.2813,289.25,401.2813" style="stroke: #A80036; stroke-width: 1.0;"/><line style="stroke: #A80036; stroke-width: 1.5;" x1="271.25" x2="271.25" y1="85.0938" y2="105.0938"/><polygon fill="#A80036" points="267.25,95.0938,271.25,105.0938,275.25,95.0938,271.25,99.0938" style="stroke: #A80036; stroke-width: 1.0;"/><line style="stroke: #A80036; stroke-width: 1.5;" x1="271.25" x2="271.25" y1="413.2813" y2="433.2813"/><polygon fill="#A80036" points="267.25,423.2813,271.25,433.2813,275.25,423.2813,271.25,427.2813" style="stroke: #A80036; stroke-width: 1.0;"/></g></svg>