<?xml version="1.0" encoding="UTF-8" standalone="yes"?><svg xmlns="http://www.w3.org/2000/svg" xmlns:xlink="http://www.w3.org/1999/xlink" height="468pt" style="width:302px;height:468px;" version="1.1" viewBox="0 0 302 468" width="302pt"><defs><filter height="300%" id="f1" width="300%" x="-1" y="-1"><feGaussianBlur result="blurOut" stdDeviation="2.0"/><feColorMatrix in="blurOut" result="blurOut2" type="matrix" values="0 0 0 0 0 0 0 0 0 0 0 0 0 0 0 0 0 0 .4 0"/><feOffset dx="4.0" dy="4.0" in="blurOut2" result="blurOut3"/><feBlend in="SourceGraphic" in2="blurOut3" mode="normal"/></filter></defs><g><ellipse cx="144" cy="18" fill="#000000" filter="url(#f1)" rx="10" ry="10" style="stroke: none; stroke-width: 1.0;"/><rect fill="#FEFECE" filter="url(#f1)" height="35.0938" rx="12.5" ry="12.5" style="stroke: #A80036; stroke-width: 1.5;" width="83" x="102.75" y="68.5"/><text fill="#000000" font-family="sans-serif" font-size="12" lengthAdjust="spacingAndGlyphs" textLength="63" x="112.75" y="90.957">Login Page</text><rect fill="#FEFECE" filter="url(#f1)" height="35.0938" rx="12.5" ry="12.5" style="stroke: #A80036; stroke-width: 1.5;" width="104" x="92" y="144.5"/><text fill="#000000" font-family="sans-serif" font-size="12" lengthAdjust="spacingAndGlyphs" textLength="84" x="102" y="166.957">Welcome Page</text><polygon fill="#FEFECE" filter="url(#f1)" points="144,220,156,232,144,244,132,232,144,220" style="stroke: #A80036; stroke-width: 1.5;"/><rect fill="#FEFECE" filter="url(#f1)" height="35.0938" rx="12.5" ry="12.5" style="stroke: #A80036; stroke-width: 1.5;" width="140" x="6" y="284.5"/><text fill="#000000" font-family="sans-serif" font-size="12" lengthAdjust="spacingAndGlyphs" textLength="120" x="16" y="306.957">Identity Creation Page</text><rect fill="#FEFECE" filter="url(#f1)" height="35.0938" rx="12.5" ry="12.5" style="stroke: #A80036; stroke-width: 1.5;" width="91" x="166.75" y="284.5"/><text fill="#000000" font-family="sans-serif" font-size="12" lengthAdjust="spacingAndGlyphs" textLength="71" x="176.75" y="306.957">Search Page</text><polygon fill="#FEFECE" filter="url(#f1)" points="212,360,224,372,212,384,200,372,212,360" style="stroke: #A80036; stroke-width: 1.5;"/><rect fill="#FEFECE" filter="url(#f1)" height="35.0938" rx="12.5" ry="12.5" style="stroke: #A80036; stroke-width: 1.5;" width="85" x="121.75" y="424.5"/><text fill="#000000" font-family="sans-serif" font-size="12" lengthAdjust="spacingAndGlyphs" textLength="65" x="131.75" y="446.957">Modification</text><rect fill="#FEFECE" filter="url(#f1)" height="35.0938" rx="12.5" ry="12.5" style="stroke: #A80036; stroke-width: 1.5;" width="66" x="227" y="424.5"/><text fill="#000000" font-family="sans-serif" font-size="12" lengthAdjust="spacingAndGlyphs" textLength="46" x="237" y="446.957">Deletion</text><path d="M144,28.177 C144,37.146 144,51.142 144,62.999 " fill="none" style="stroke: #A80036; stroke-width: 1.0;"/><polygon fill="#A80036" points="144,68.271,148,59.271,144,63.271,140,59.271,144,68.271" style="stroke: #A80036; stroke-width: 1.0;"/><path d="M144,103.792 C144,114.294 144,127.929 144,139.254 " fill="none" style="stroke: #A80036; stroke-width: 1.0;"/><polygon fill="#A80036" points="144,144.275,148,135.275,144,139.275,140,135.275,144,144.275" style="stroke: #A80036; stroke-width: 1.0;"/><path d="M144,179.809 C144,190.392 144,203.991 144,214.513 " fill="none" style="stroke: #A80036; stroke-width: 1.0;"/><polygon fill="#A80036" points="144,219.702,148,210.702,144,214.702,140,210.702,144,219.702" style="stroke: #A80036; stroke-width: 1.0;"/><text fill="#000000" font-family="sans-serif" font-size="13" lengthAdjust="spacingAndGlyphs" textLength="0" x="142.0063" y="209.2004"/><path d="M138.202,238.798 C129.024,247.976 110.712,266.288 96.323,280.677 " fill="none" style="stroke: #A80036; stroke-width: 1.0;"/><polygon fill="#A80036" points="92.7572,284.243,101.9497,280.7077,96.2928,280.7075,96.2929,275.0507,92.7572,284.243" style="stroke: #A80036; stroke-width: 1.0;"/><path d="M149.798,238.798 C158.976,247.976 177.288,266.288 191.677,280.677 " fill="none" style="stroke: #A80036; stroke-width: 1.0;"/><polygon fill="#A80036" points="195.243,284.243,191.7075,275.0506,191.7075,280.7075,186.0506,280.7075,195.243,284.243" style="stroke: #A80036; stroke-width: 1.0;"/><path d="M212,319.809 C212,330.392 212,343.991 212,354.513 " fill="none" style="stroke: #A80036; stroke-width: 1.0;"/><polygon fill="#A80036" points="212,359.702,216,350.702,212,354.702,208,350.702,212,359.702" style="stroke: #A80036; stroke-width: 1.0;"/><text fill="#000000" font-family="sans-serif" font-size="13" lengthAdjust="spacingAndGlyphs" textLength="0" x="210.0063" y="349.2004"/><path d="M207.398,379.5201 C200.848,388.7988 188.542,406.2328 178.702,420.1725 " fill="none" style="stroke: #A80036; stroke-width: 1.0;"/><polygon fill="#A80036" points="175.736,424.3735,184.1935,419.3267,178.619,420.2884,177.6573,414.7139,175.736,424.3735" style="stroke: #A80036; stroke-width: 1.0;"/><path d="M216.602,379.5201 C223.152,388.7988 235.458,406.2328 245.298,420.1725 " fill="none" style="stroke: #A80036; stroke-width: 1.0;"/><polygon fill="#A80036" points="248.264,424.3735,246.3427,414.7139,245.381,420.2884,239.8065,419.3267,248.264,424.3735" style="stroke: #A80036; stroke-width: 1.0;"/></g></svg>