<?xml version="1.0" encoding="UTF-8" standalone="yes"?><svg xmlns="http://www.w3.org/2000/svg" xmlns:xlink="http://www.w3.org/1999/xlink" height="230pt" style="width:1656px;height:230px;" version="1.1" viewBox="0 0 1656 230" width="1656pt"><defs><filter height="300%" id="f1" width="300%" x="-1" y="-1"><feGaussianBlur result="blurOut" stdDeviation="2.0"/><feColorMatrix in="blurOut" result="blurOut2" type="matrix" values="0 0 0 0 0 0 0 0 0 0 0 0 0 0 0 0 0 0 .4 0"/><feOffset dx="4.0" dy="4.0" in="blurOut2" result="blurOut3"/><feBlend in="SourceGraphic" in2="blurOut3" mode="normal"/></filter></defs><g><rect fill="#FFFFFF" filter="url(#f1)" height="37.6094" style="stroke: #A80036; stroke-width: 1.5;" width="93" x="291.5" y="8"/><text fill="#000000" font-family="sans-serif" font-size="14" lengthAdjust="spacingAndGlyphs" textLength="73" x="301.5" y="32.5332">identitiy.xsd</text><rect fill="#FFFFFF" filter="url(#f1)" height="37.6094" style="stroke: #A80036; stroke-width: 1.5;" width="100" x="6" y="40"/><text fill="#000000" font-family="sans-serif" font-size="14" lengthAdjust="spacingAndGlyphs" textLength="80" x="16" y="64.5332">identities.xml</text><rect fill="#FFFFFF" filter="url(#f1)" height="37.6094" style="stroke: #A80036; stroke-width: 1.5;" width="82" x="1482" y="163"/><text fill="#000000" font-family="sans-serif" font-size="14" lengthAdjust="spacingAndGlyphs" textLength="62" x="1492" y="187.5332">WebPage</text><ellipse cx="337.8977" cy="96.8795" fill="#FEFECE" filter="url(#f1)" rx="67.3977" ry="15.8795" style="stroke: #A80036; stroke-width: 1.5;"/><text fill="#000000" font-family="sans-serif" font-size="14" lengthAdjust="spacingAndGlyphs" textLength="94" x="290.8977" y="102.1842">JAVA - Parsing</text><ellipse cx="663.0042" cy="97.0008" fill="#FEFECE" filter="url(#f1)" rx="100.5042" ry="22.5008" style="stroke: #A80036; stroke-width: 1.5;"/><text fill="#000000" font-family="sans-serif" font-size="14" lengthAdjust="spacingAndGlyphs" textLength="174" x="576.0042" y="102.3055">JAVA - XPATH Computation</text><ellipse cx="1023.1711" cy="96.9342" fill="#FEFECE" filter="url(#f1)" rx="72.6711" ry="16.9342" style="stroke: #A80036; stroke-width: 1.5;"/><text fill="#000000" font-family="sans-serif" font-size="14" lengthAdjust="spacingAndGlyphs" textLength="108" x="969.1711" y="102.2389">JAVA - XSLT Call</text><ellipse cx="1282.9975" cy="96.9517" fill="#FEFECE" filter="url(#f1)" rx="52.4975" ry="15.4517" style="stroke: #A80036; stroke-width: 1.5;"/><text fill="#000000" font-family="sans-serif" font-size="14" lengthAdjust="spacingAndGlyphs" textLength="70" x="1247.9975" y="102.2564">JAVA - JSP</text><polygon fill="#FBFB77" filter="url(#f1)" points="1398.5,75.5,1398.5,118.2031,1647.5,118.2031,1647.5,85.5,1637.5,75.5,1398.5,75.5" style="stroke: #A80036; stroke-width: 1.0;"/><polygon fill="#FBFB77" points="1398.5,75.5,1398.5,93,1335.64,97,1398.5,101,1398.5,118.2031,1647.5,118.2031,1647.5,85.5,1637.5,75.5,1398.5,75.5" style="stroke: #A80036; stroke-width: 1.0;"/><line style="stroke: #A80036; stroke-width: 1.0;" x1="1637.5" x2="1637.5" y1="75.5" y2="85.5"/><line style="stroke: #A80036; stroke-width: 1.0;" x1="1647.5" x2="1637.5" y1="85.5" y2="85.5"/><text fill="#000000" font-family="sans-serif" font-size="13" lengthAdjust="spacingAndGlyphs" textLength="228" x="1404.5" y="93.9951">a sub document is created and injected</text><text fill="#000000" font-family="sans-serif" font-size="13" lengthAdjust="spacingAndGlyphs" textLength="91" x="1404.5" y="110.3467">in the web page</text><ellipse cx="1283" cy="157.5" fill="#FEFECE" filter="url(#f1)" rx="8" ry="8" style="stroke: #A80036; stroke-width: 2.0;"/><path d="M1283,165.5 L1283,192.5 M1270,173.5 L1296,173.5 M1283,192.5 L1270,207.5 M1283,192.5 L1296,207.5 " fill="#FEFECE" filter="url(#f1)" style="stroke: #A80036; stroke-width: 2.0;"/><text fill="#000000" font-family="sans-serif" font-size="14" lengthAdjust="spacingAndGlyphs" textLength="28" x="1269" y="229.0332">user</text><path d="M106.093,53.389 C156.587,47.619 234.877,38.671 286.043,32.824 " fill="none" style="stroke: #A80036; stroke-width: 1.0;"/><polygon fill="#A80036" points="291.216,32.232,281.8203,29.2788,286.2483,32.7992,282.7279,37.2272,291.216,32.232" style="stroke: #A80036; stroke-width: 1.0;"/><text fill="#000000" font-family="sans-serif" font-size="13" lengthAdjust="spacingAndGlyphs" textLength="96" x="139.5" y="33.4951">validates against</text><path d="M106.152,70.434 C116.001,72.483 126.302,74.455 136,76 C179.771,82.975 229.289,88.18 268.222,91.663 " fill="none" style="stroke: #A80036; stroke-width: 1.0;"/><polygon fill="#A80036" points="273.401,92.122,264.7893,87.343,268.4205,91.6805,264.083,95.3117,273.401,92.122" style="stroke: #A80036; stroke-width: 1.0;"/><text fill="#000000" font-family="sans-serif" font-size="13" lengthAdjust="spacingAndGlyphs" textLength="66" x="137.5" y="71.4951">from text to</text><text fill="#000000" font-family="sans-serif" font-size="13" font-weight="bold" lengthAdjust="spacingAndGlyphs" textLength="30" x="207.5" y="71.4951">DOM</text><path d="M405.534,97 C449.277,97 507.437,97 557.312,97 " fill="none" style="stroke: #A80036; stroke-width: 1.0;"/><polygon fill="#A80036" points="562.42,97,553.42,93,557.42,97,553.42,101,562.42,97" style="stroke: #A80036; stroke-width: 1.0;"/><text fill="#000000" font-family="sans-serif" font-size="13" font-weight="bold" lengthAdjust="spacingAndGlyphs" textLength="30" x="437" y="92.4951">DOM</text><text fill="#000000" font-family="sans-serif" font-size="13" lengthAdjust="spacingAndGlyphs" textLength="59" x="471" y="92.4951">Document</text><path d="M763.723,97 C821.146,97 892.208,97 945.249,97 " fill="none" style="stroke: #A80036; stroke-width: 1.0;"/><polygon fill="#A80036" points="950.325,97,941.325,93,945.325,97,941.325,101,950.325,97" style="stroke: #A80036; stroke-width: 1.0;"/><text fill="#000000" font-family="sans-serif" font-size="13" lengthAdjust="spacingAndGlyphs" textLength="123" x="795" y="92.4951">Values are computed</text><path d="M1095.52,97 C1136.49,97 1187.16,97 1225.35,97 " fill="none" style="stroke: #A80036; stroke-width: 1.0;"/><polygon fill="#A80036" points="1230.41,97,1221.41,93,1225.41,97,1221.41,101,1230.41,97" style="stroke: #A80036; stroke-width: 1.0;"/><text fill="#000000" font-family="sans-serif" font-size="13" font-weight="bold" lengthAdjust="spacingAndGlyphs" textLength="24" x="1127" y="92.4951">xml</text><text fill="#000000" font-family="sans-serif" font-size="13" lengthAdjust="spacingAndGlyphs" textLength="11" x="1155" y="92.4951">to</text><text fill="#000000" font-family="sans-serif" font-size="13" font-weight="bold" lengthAdjust="spacingAndGlyphs" textLength="28" x="1170" y="92.4951">html</text><path d="M1317.09,108.819 C1358.71,123.681 1430.33,149.2623 1476.93,165.902 " fill="none" style="stroke: #A80036; stroke-width: 1.0;"/><polygon fill="#A80036" points="1481.63,167.5839,1474.4865,160.8037,1476.918,165.9113,1471.8104,168.3428,1481.63,167.5839" style="stroke: #A80036; stroke-width: 1.0;"/><path d="M1298.18,189.5235 C1332.59,188.3667 1421.76,185.3695 1476.59,183.5263 " fill="none" style="stroke: #A80036; stroke-width: 1.0;"/><polygon fill="#A80036" points="1481.79,183.3516,1472.6582,179.6625,1476.7929,183.523,1472.9324,187.6578,1481.79,183.3516" style="stroke: #A80036; stroke-width: 1.0;"/></g></svg>