<?xml version="1.0" encoding="UTF-8" standalone="yes"?><svg xmlns="http://www.w3.org/2000/svg" xmlns:xlink="http://www.w3.org/1999/xlink" height="162pt" " version="1.1" viewBox="0 0 190 162" width="190pt"><defs><filter height="300%" id="f1" width="300%" x="-1" y="-1"><feGaussianBlur result="blurOut" stdDeviation="2.0"/><feColorMatrix in="blurOut" result="blurOut2" type="matrix" values="0 0 0 0 0 0 0 0 0 0 0 0 0 0 0 0 0 0 .4 0"/><feOffset dx="4.0" dy="4.0" in="blurOut2" result="blurOut3"/><feBlend in="SourceGraphic" in2="blurOut3" mode="normal"/></filter></defs><g><rect fill="#FEFECE" filter="url(#f1)" height="144.8516" style="stroke: #A80036; stroke-width: 1.5;" width="175" x="6" y="8.5"/><ellipse cx="79.25" cy="24.5" fill="#ADD1B2" rx="11" ry="11" style="stroke: #A80036; stroke-width: 1.0;"/><path d="M82.0156,20.375 Q82.1719,20.1563 82.3594,20.0469 Q82.5469,19.9375 82.7656,19.9375 Q83.1406,19.9375 83.375,20.1953 Q83.6094,20.4531 83.6094,21.0625 L83.6094,22.5156 Q83.6094,23.125 83.375,23.3906 Q83.1406,23.6563 82.7656,23.6563 Q82.4219,23.6563 82.2188,23.4531 Q82.0156,23.2656 81.9063,22.75 Q81.8594,22.3906 81.6719,22.2031 Q81.3438,21.8281 80.7344,21.6094 Q80.125,21.3906 79.5,21.3906 Q78.7344,21.3906 78.1016,21.7188 Q77.4688,22.0469 76.9766,22.7969 Q76.4844,23.5469 76.4844,24.5781 L76.4844,25.6719 Q76.4844,26.9063 77.375,27.7266 Q78.2656,28.5469 79.8594,28.5469 Q80.7969,28.5469 81.4531,28.2969 Q81.8438,28.1406 82.2656,27.7031 Q82.5313,27.4375 82.6797,27.3594 Q82.8281,27.2813 83.0313,27.2813 Q83.3594,27.2813 83.6172,27.5391 Q83.875,27.7969 83.875,28.1406 Q83.875,28.4844 83.5313,28.8906 Q83.0313,29.4688 82.2344,29.7969 Q81.1563,30.25 79.8594,30.25 Q78.3438,30.25 77.1406,29.625 Q76.1563,29.125 75.4688,28.0547 Q74.7813,26.9844 74.7813,25.7031 L74.7813,24.5469 Q74.7813,23.2188 75.3984,22.0703 Q76.0156,20.9219 77.1094,20.3047 Q78.2031,19.6875 79.4375,19.6875 Q80.1719,19.6875 80.8203,19.8516 Q81.4688,20.0156 82.0156,20.375 Z "/><text fill="#000000" font-family="SansSerif" font-size="12" lengthAdjust="spacingAndGlyphs" textLength="20" x="99.75" y="28.9531">Car</text><line style="stroke: #A80036; stroke-width: 1.5;" x1="7" x2="180" y1="40.5" y2="40.5"/><rect fill="none" height="6" style="stroke: #C82930; stroke-width: 1.0;" width="6" x="14" y="49.918"/><text fill="#000000" font-family="SansSerif" font-size="11" lengthAdjust="spacingAndGlyphs" textLength="59" x="26" y="55.5">String model</text><rect fill="none" height="6" style="stroke: #C82930; stroke-width: 1.0;" width="6" x="14" y="63.7539"/><text fill="#000000" font-family="SansSerif" font-size="11" lengthAdjust="spacingAndGlyphs" textLength="59" x="26" y="69.3359">String brand</text><rect fill="none" height="6" style="stroke: #C82930; stroke-width: 1.0;" width="6" x="14" y="77.5898"/><text fill="#000000" font-family="SansSerif" font-size="11" lengthAdjust="spacingAndGlyphs" textLength="108" x="26" y="83.1719">boolean engineStarted</text><line style="stroke: #A80036; stroke-width: 1.5;" x1="7" x2="180" y1="90.0078" y2="90.0078"/><ellipse cx="17" cy="102.4258" fill="#84BE84" rx="3" ry="3" style="stroke: #038048; stroke-width: 1.0;"/><text fill="#000000" font-family="SansSerif" font-size="11" lengthAdjust="spacingAndGlyphs" textLength="149" x="26" y="105.0078">Car(String model, String brand)</text><ellipse cx="17" cy="116.2617" fill="#84BE84" rx="3" ry="3" style="stroke: #038048; stroke-width: 1.0;"/><text fill="#000000" font-family="SansSerif" font-size="11" lengthAdjust="spacingAndGlyphs" textLength="53" x="26" y="118.8438">void start()</text><ellipse cx="17" cy="130.0977" fill="#84BE84" rx="3" ry="3" style="stroke: #038048; stroke-width: 1.0;"/><text fill="#000000" font-family="SansSerif" font-size="11" lengthAdjust="spacingAndGlyphs" textLength="52" x="26" y="132.6797">void stop()</text><ellipse cx="17" cy="143.9336" fill="#84BE84" rx="3" ry="3" style="stroke: #038048; stroke-width: 1.0;"/><text fill="#000000" font-family="SansSerif" font-size="11" lengthAdjust="spacingAndGlyphs" textLength="76" x="26" y="146.5156">String toString()</text></g></svg>