<?xml version="1.0" encoding="UTF-8" standalone="yes"?><svg xmlns="http://www.w3.org/2000/svg" xmlns:xlink="http://www.w3.org/1999/xlink" height="614pt" style="width:837px;height:614px;" version="1.1" viewBox="0 0 837 614" width="837pt"><defs><filter height="300%" id="f1" width="300%" x="-1" y="-1"><feGaussianBlur result="blurOut" stdDeviation="2.0"/><feColorMatrix in="blurOut" result="blurOut2" type="matrix" values="0 0 0 0 0 0 0 0 0 0 0 0 0 0 0 0 0 0 .4 0"/><feOffset dx="4.0" dy="4.0" in="blurOut2" result="blurOut3"/><feBlend in="SourceGraphic" in2="blurOut3" mode="normal"/></filter></defs><g><polygon fill="#FFFFFF" filter="url(#f1)" points="240,24,412,24,419,47.6094,452,47.6094,452,192,240,192,240,24" style="stroke: #000000; stroke-width: 2.0;"/><line style="stroke: #000000; stroke-width: 2.0;" x1="240" x2="419" y1="47.6094" y2="47.6094"/><text fill="#000000" font-family="sans-serif" font-size="14" font-weight="bold" lengthAdjust="spacingAndGlyphs" textLength="166" x="243" y="41.5332">Application Initialization</text><polygon fill="#FFFFFF" filter="url(#f1)" points="291,216,432,216,439,239.6094,676,239.6094,676,415,291,415,291,216" style="stroke: #000000; stroke-width: 2.0;"/><line style="stroke: #000000; stroke-width: 2.0;" x1="291" x2="439" y1="239.6094" y2="239.6094"/><text fill="#000000" font-family="sans-serif" font-size="14" font-weight="bold" lengthAdjust="spacingAndGlyphs" textLength="135" x="294" y="233.5332">PoolManagerIntern</text><polygon fill="#FFFFFF" filter="url(#f1)" points="184,439,269,439,276,462.6094,830,462.6094,830,607,184,607,184,439" style="stroke: #000000; stroke-width: 2.0;"/><line style="stroke: #000000; stroke-width: 2.0;" x1="184" x2="276" y1="462.6094" y2="462.6094"/><text fill="#000000" font-family="sans-serif" font-size="14" font-weight="bold" lengthAdjust="spacingAndGlyphs" textLength="79" x="187" y="456.5332">Pool Usage</text><rect fill="#FEFECE" filter="url(#f1)" height="35.0938" rx="12.5" ry="12.5" style="stroke: #A80036; stroke-width: 1.5;" width="66" x="313" y="61.5"/><text fill="#000000" font-family="sans-serif" font-size="12" lengthAdjust="spacingAndGlyphs" textLength="46" x="323" y="83.957">Init code</text><polygon fill="#FBFB77" filter="url(#f1)" points="256.5,116.5,256.5,175.5547,435.5,175.5547,435.5,126.5,425.5,116.5,256.5,116.5" style="stroke: #A80036; stroke-width: 1.0;"/><line style="stroke: #A80036; stroke-width: 1.0;" x1="425.5" x2="425.5" y1="116.5" y2="126.5"/><line style="stroke: #A80036; stroke-width: 1.0;" x1="435.5" x2="425.5" y1="126.5" y2="126.5"/><text fill="#000000" font-family="sans-serif" font-size="13" lengthAdjust="spacingAndGlyphs" textLength="128" x="262.5" y="134.9951">the init code loads the</text><text fill="#000000" font-family="sans-serif" font-size="13" lengthAdjust="spacingAndGlyphs" textLength="158" x="262.5" y="151.3467">pool manager with reusable</text><text fill="#000000" font-family="sans-serif" font-size="13" lengthAdjust="spacingAndGlyphs" textLength="42" x="262.5" y="167.6982">objects</text><rect fill="#FEFECE" filter="url(#f1)" height="35.0938" rx="12.5" ry="12.5" style="stroke: #A80036; stroke-width: 1.5;" width="76" x="308" y="253.5"/><text fill="#000000" font-family="sans-serif" font-size="12" lengthAdjust="spacingAndGlyphs" textLength="56" x="318" y="275.957">Poolable1</text><rect fill="#FEFECE" filter="url(#f1)" height="35.0938" rx="12.5" ry="12.5" style="stroke: #A80036; stroke-width: 1.5;" width="76" x="308" y="308.5"/><text fill="#000000" font-family="sans-serif" font-size="12" lengthAdjust="spacingAndGlyphs" textLength="56" x="318" y="330.957">Poolable2</text><rect fill="#FEFECE" filter="url(#f1)" height="35.0938" rx="12.5" ry="12.5" style="stroke: #A80036; stroke-width: 1.5;" width="78" x="307" y="363.5"/><text fill="#000000" font-family="sans-serif" font-size="12" lengthAdjust="spacingAndGlyphs" textLength="58" x="317" y="385.957">PoolableN</text><rect fill="#FEFECE" filter="url(#f1)" height="35.0938" rx="12.5" ry="12.5" style="stroke: #A80036; stroke-width: 1.5;" width="128" x="532" y="253.5"/><text fill="#000000" font-family="sans-serif" font-size="12" lengthAdjust="spacingAndGlyphs" textLength="108" x="542" y="275.957">JDBC Connection 1</text><rect fill="#FEFECE" filter="url(#f1)" height="35.0938" rx="12.5" ry="12.5" style="stroke: #A80036; stroke-width: 1.5;" width="128" x="532" y="308.5"/><text fill="#000000" font-family="sans-serif" font-size="12" lengthAdjust="spacingAndGlyphs" textLength="108" x="542" y="330.957">JDBC Connection 2</text><rect fill="#FEFECE" filter="url(#f1)" height="35.0938" rx="12.5" ry="12.5" style="stroke: #A80036; stroke-width: 1.5;" width="98" x="297" y="476.5"/><text fill="#000000" font-family="sans-serif" font-size="12" lengthAdjust="spacingAndGlyphs" textLength="78" x="307" y="498.957">Program code</text><polygon fill="#FBFB77" filter="url(#f1)" points="200.5,531.5,200.5,590.5547,491.5,590.5547,491.5,541.5,481.5,531.5,200.5,531.5" style="stroke: #A80036; stroke-width: 1.0;"/><line style="stroke: #A80036; stroke-width: 1.0;" x1="481.5" x2="481.5" y1="531.5" y2="541.5"/><line style="stroke: #A80036; stroke-width: 1.0;" x1="491.5" x2="481.5" y1="541.5" y2="541.5"/><text fill="#000000" font-family="sans-serif" font-size="13" lengthAdjust="spacingAndGlyphs" textLength="270" x="206.5" y="549.9951">Code requests a connection to the poolmnager</text><text fill="#000000" font-family="sans-serif" font-size="13" lengthAdjust="spacingAndGlyphs" textLength="260" x="206.5" y="566.3467">The PoolManager serves a free connection to</text><text fill="#000000" font-family="sans-serif" font-size="13" lengthAdjust="spacingAndGlyphs" textLength="103" x="206.5" y="582.6982">the Program code</text><rect fill="#FEFECE" filter="url(#f1)" height="35.0938" rx="12.5" ry="12.5" style="stroke: #A80036; stroke-width: 1.5;" width="123" x="534.5" y="476.5"/><text fill="#000000" font-family="sans-serif" font-size="12" lengthAdjust="spacingAndGlyphs" textLength="103" x="544.5" y="498.957">Connection Usage</text><polygon fill="#FBFB77" filter="url(#f1)" points="700,481,700,507.3516,814,507.3516,814,491,804,481,700,481" style="stroke: #A80036; stroke-width: 1.0;"/><polygon fill="#FBFB77" points="700,481,700,490,657.565,494,700,498,700,507.3516,814,507.3516,814,491,804,481,700,481" style="stroke: #A80036; stroke-width: 1.0;"/><line style="stroke: #A80036; stroke-width: 1.0;" x1="804" x2="804" y1="481" y2="491"/><line style="stroke: #A80036; stroke-width: 1.0;" x1="814" x2="804" y1="491" y2="491"/><text fill="#000000" font-family="sans-serif" font-size="13" lengthAdjust="spacingAndGlyphs" textLength="93" x="706" y="499.4951">and then uses it</text><ellipse cx="16" cy="326" fill="#000000" filter="url(#f1)" rx="10" ry="10" style="stroke: none; stroke-width: 1.0;"/><rect fill="#FEFECE" filter="url(#f1)" height="35.0938" rx="12.5" ry="12.5" style="stroke: #A80036; stroke-width: 1.5;" width="93" x="66.5" y="308.5"/><text fill="#000000" font-family="sans-serif" font-size="12" lengthAdjust="spacingAndGlyphs" textLength="73" x="76.5" y="330.957">PoolManager</text><path d="M26.109,326 C34.5467,326 47.8118,326 61.4157,326 " fill="none" style="stroke: #A80036; stroke-width: 1.0;"/><polygon fill="#A80036" points="66.4347,326,57.4347,322,61.4347,326,57.4347,330,66.4347,326" style="stroke: #A80036; stroke-width: 1.0;"/><path d="M312.693,74.896 C275.118,72.027 213.468,73.499 176,107 C118.537,158.378 112.648,258.615 113.099,303.419 " fill="none" style="stroke: #A80036; stroke-width: 1.0;"/><polygon fill="#A80036" points="113.183,308.601,117.0385,299.5382,113.103,303.6016,109.0395,299.6661,113.183,308.601" style="stroke: #A80036; stroke-width: 1.0;"/><path d="M123.527,308.435 C134.343,289.712 153.444,260.06 176,240 C205.729,213.562 244.147,191.458 276.839,175.341 " fill="none" style="stroke: #A80036; stroke-width: 1.0; stroke-dasharray: 7.0,7.0;"/><path d="M149.832,308.618 C158.268,305.027 167.331,301.563 176,299 C218.27,286.503 268.241,279.091 302.828,275.065 " fill="none" style="stroke: #A80036; stroke-width: 1.0;"/><polygon fill="#A80036" points="307.817,274.496,298.4214,271.5425,302.8493,275.063,299.3287,279.4909,307.817,274.496" style="stroke: #A80036; stroke-width: 1.0;"/><path d="M159.638,326 C201.164,326 261.988,326 302.503,326 " fill="none" style="stroke: #A80036; stroke-width: 1.0;"/><polygon fill="#A80036" points="307.834,326,298.834,322,302.834,326,298.834,330,307.834,326" style="stroke: #A80036; stroke-width: 1.0;"/><path d="M148.135,343.367 C157.028,347.346 166.723,351.218 176,354 C217.775,366.526 267.203,373.564 301.776,377.29 " fill="none" style="stroke: #A80036; stroke-width: 1.0; stroke-dasharray: 1.0,3.0;"/><polygon fill="#A80036" points="306.766,377.816,298.235,372.8944,301.7936,377.2918,297.3962,380.8503,306.766,377.816" style="stroke: #A80036; stroke-width: 1.0;"/><path d="M384.128,271 C421.6,271 480.341,271 526.319,271 " fill="none" style="stroke: #A80036; stroke-width: 1.0;"/><polygon fill="#A80036" points="531.577,271,522.577,267,526.577,271,522.577,275,531.577,271" style="stroke: #A80036; stroke-width: 1.0;"/><path d="M384.128,326 C421.6,326 480.341,326 526.319,326 " fill="none" style="stroke: #A80036; stroke-width: 1.0;"/><polygon fill="#A80036" points="531.577,326,522.577,322,526.577,326,522.577,330,531.577,326" style="stroke: #A80036; stroke-width: 1.0;"/><path d="M296.904,477.998 C260.928,464.384 211.949,442.215 176,412 C154.568,393.986 136.716,367.017 125.756,348.095 " fill="none" style="stroke: #A80036; stroke-width: 1.0;"/><polygon fill="#A80036" points="123.12,343.467,124.097,353.2673,125.5939,347.8121,131.0491,349.309,123.12,343.467" style="stroke: #A80036; stroke-width: 1.0;"/><path d="M114.083,343.369 C115.258,381.647 123.691,473.696 176,522 C183.3,528.7413 191.527,534.3927 200.319,539.1231 " fill="none" style="stroke: #A80036; stroke-width: 1.0; stroke-dasharray: 7.0,7.0;"/><path d="M395.111,494 C433.282,494 487.041,494 529.195,494 " fill="none" style="stroke: #A80036; stroke-width: 1.0;"/><polygon fill="#A80036" points="534.277,494,525.277,490,529.277,494,525.277,498,534.277,494" style="stroke: #A80036; stroke-width: 1.0;"/></g></svg>