<?xml version="1.0" encoding="UTF-8" standalone="yes"?><svg xmlns="http://www.w3.org/2000/svg" xmlns:xlink="http://www.w3.org/1999/xlink" height="176pt" " version="1.1" viewBox="0 0 349 176" width="349pt"><defs><filter height="300%" id="f1" width="300%" x="-1" y="-1"><feGaussianBlur result="blurOut" stdDeviation="2.0"/><feColorMatrix in="blurOut" result="blurOut2" type="matrix" values="0 0 0 0 0 0 0 0 0 0 0 0 0 0 0 0 0 0 .4 0"/><feOffset dx="4.0" dy="4.0" in="blurOut2" result="blurOut3"/><feBlend in="SourceGraphic" in2="blurOut3" mode="normal"/></filter></defs><g><rect fill="#FEFECE" filter="url(#f1)" height="158.6875" style="stroke: #A80036; stroke-width: 1.5;" width="334" x="6" y="8.5"/><ellipse cx="139.25" cy="24.5" fill="#ADD1B2" rx="11" ry="11" style="stroke: #A80036; stroke-width: 1.0;"/><path d="M142.0156,20.375 Q142.1719,20.1563 142.3594,20.0469 Q142.5469,19.9375 142.7656,19.9375 Q143.1406,19.9375 143.375,20.1953 Q143.6094,20.4531 143.6094,21.0625 L143.6094,22.5156 Q143.6094,23.125 143.375,23.3906 Q143.1406,23.6563 142.7656,23.6563 Q142.4219,23.6563 142.2188,23.4531 Q142.0156,23.2656 141.9063,22.75 Q141.8594,22.3906 141.6719,22.2031 Q141.3438,21.8281 140.7344,21.6094 Q140.125,21.3906 139.5,21.3906 Q138.7344,21.3906 138.1016,21.7188 Q137.4688,22.0469 136.9766,22.7969 Q136.4844,23.5469 136.4844,24.5781 L136.4844,25.6719 Q136.4844,26.9063 137.375,27.7266 Q138.2656,28.5469 139.8594,28.5469 Q140.7969,28.5469 141.4531,28.2969 Q141.8438,28.1406 142.2656,27.7031 Q142.5313,27.4375 142.6797,27.3594 Q142.8281,27.2813 143.0313,27.2813 Q143.3594,27.2813 143.6172,27.5391 Q143.875,27.7969 143.875,28.1406 Q143.875,28.4844 143.5313,28.8906 Q143.0313,29.4688 142.2344,29.7969 Q141.1563,30.25 139.8594,30.25 Q138.3438,30.25 137.1406,29.625 Q136.1563,29.125 135.4688,28.0547 Q134.7813,26.9844 134.7813,25.7031 L134.7813,24.5469 Q134.7813,23.2188 135.3984,22.0703 Q136.0156,20.9219 137.1094,20.3047 Q138.2031,19.6875 139.4375,19.6875 Q140.1719,19.6875 140.8203,19.8516 Q141.4688,20.0156 142.0156,20.375 Z "/><text fill="#000000" font-family="SansSerif" font-size="12" lengthAdjust="spacingAndGlyphs" textLength="59" x="159.75" y="28.9531">CarFactory</text><line style="stroke: #A80036; stroke-width: 1.5;" x1="7" x2="339" y1="40.5" y2="40.5"/><rect fill="none" height="6" style="stroke: #C82930; stroke-width: 1.0;" width="6" x="14" y="49.918"/><text fill="#000000" font-family="SansSerif" font-size="11" lengthAdjust="spacingAndGlyphs" textLength="59" x="26" y="55.5">String model</text><rect fill="none" height="6" style="stroke: #C82930; stroke-width: 1.0;" width="6" x="14" y="63.7539"/><text fill="#000000" font-family="SansSerif" font-size="11" lengthAdjust="spacingAndGlyphs" textLength="59" x="26" y="69.3359">String brand</text><rect fill="none" height="6" style="stroke: #C82930; stroke-width: 1.0;" width="6" x="14" y="77.5898"/><text fill="#000000" font-family="SansSerif" font-size="11" lengthAdjust="spacingAndGlyphs" textLength="74" x="26" y="83.1719">Class&lt;T&gt; clazz</text><line style="stroke: #A80036; stroke-width: 1.5;" x1="7" x2="339" y1="90.0078" y2="90.0078"/><ellipse cx="17" cy="102.4258" fill="#84BE84" rx="3" ry="3" style="stroke: #038048; stroke-width: 1.0;"/><text fill="#000000" font-family="SansSerif" font-size="11" lengthAdjust="spacingAndGlyphs" textLength="186" x="26" y="105.0078">CarFactory(String model, String brand)</text><ellipse cx="17" cy="116.2617" fill="#84BE84" rx="3" ry="3" style="stroke: #038048; stroke-width: 1.0;"/><text fill="#000000" font-family="SansSerif" font-size="11" lengthAdjust="spacingAndGlyphs" textLength="266" x="26" y="118.8438">CarFactory(String model, String brand, Class&lt;T&gt; clazz)</text><ellipse cx="17" cy="130.0977" fill="#84BE84" rx="3" ry="3" style="stroke: #038048; stroke-width: 1.0;"/><text fill="#000000" font-family="SansSerif" font-size="11" lengthAdjust="spacingAndGlyphs" textLength="308" x="26" y="132.6797">Car createInstance(String carType, String additionnalParameter)</text><ellipse cx="17" cy="143.9336" fill="#84BE84" rx="3" ry="3" style="stroke: #038048; stroke-width: 1.0;"/><text fill="#000000" font-family="SansSerif" font-size="11" lengthAdjust="spacingAndGlyphs" textLength="220" x="26" y="146.5156">T createInstance(String additionnalParameter)</text><ellipse cx="17" cy="157.7695" fill="#84BE84" rx="3" ry="3" style="stroke: #038048; stroke-width: 1.0;"/><text fill="#000000" font-family="SansSerif" font-size="11" lengthAdjust="spacingAndGlyphs" text-decoration="underline" textLength="112" x="26" y="160.3516">void main(String[] args)</text></g></svg>