<?xml version="1.0" encoding="UTF-8" standalone="yes"?><svg xmlns="http://www.w3.org/2000/svg" xmlns:xlink="http://www.w3.org/1999/xlink" height="148pt" style="width:224px;height:148px;" version="1.1" viewBox="0 0 224 148" width="224pt"><defs><filter height="300%" id="f1" width="300%" x="-1" y="-1"><feGaussianBlur result="blurOut" stdDeviation="2.0"/><feColorMatrix in="blurOut" result="blurOut2" type="matrix" values="0 0 0 0 0 0 0 0 0 0 0 0 0 0 0 0 0 0 .4 0"/><feOffset dx="4.0" dy="4.0" in="blurOut2" result="blurOut3"/><feBlend in="SourceGraphic" in2="blurOut3" mode="normal"/></filter></defs><g><rect fill="#FEFECE" filter="url(#f1)" height="131.0156" style="stroke: #A80036; stroke-width: 1.5;" width="209" x="6" y="8.5"/><ellipse cx="85.25" cy="24.5" fill="#ADD1B2" rx="11" ry="11" style="stroke: #A80036; stroke-width: 1.0;"/><path d="M88.0156,20.375 Q88.1719,20.1563 88.3594,20.0469 Q88.5469,19.9375 88.7656,19.9375 Q89.1406,19.9375 89.375,20.1953 Q89.6094,20.4531 89.6094,21.0625 L89.6094,22.5156 Q89.6094,23.125 89.375,23.3906 Q89.1406,23.6563 88.7656,23.6563 Q88.4219,23.6563 88.2188,23.4531 Q88.0156,23.2656 87.9063,22.75 Q87.8594,22.3906 87.6719,22.2031 Q87.3438,21.8281 86.7344,21.6094 Q86.125,21.3906 85.5,21.3906 Q84.7344,21.3906 84.1016,21.7188 Q83.4688,22.0469 82.9766,22.7969 Q82.4844,23.5469 82.4844,24.5781 L82.4844,25.6719 Q82.4844,26.9063 83.375,27.7266 Q84.2656,28.5469 85.8594,28.5469 Q86.7969,28.5469 87.4531,28.2969 Q87.8438,28.1406 88.2656,27.7031 Q88.5313,27.4375 88.6797,27.3594 Q88.8281,27.2813 89.0313,27.2813 Q89.3594,27.2813 89.6172,27.5391 Q89.875,27.7969 89.875,28.1406 Q89.875,28.4844 89.5313,28.8906 Q89.0313,29.4688 88.2344,29.7969 Q87.1563,30.25 85.8594,30.25 Q84.3438,30.25 83.1406,29.625 Q82.1563,29.125 81.4688,28.0547 Q80.7813,26.9844 80.7813,25.7031 L80.7813,24.5469 Q80.7813,23.2188 81.3984,22.0703 Q82.0156,20.9219 83.1094,20.3047 Q84.2031,19.6875 85.4375,19.6875 Q86.1719,19.6875 86.8203,19.8516 Q87.4688,20.0156 88.0156,20.375 Z "/><text fill="#000000" font-family="sans-serif" font-size="12" lengthAdjust="spacingAndGlyphs" textLength="42" x="105.75" y="29.4102">IamLog</text><line style="stroke: #A80036; stroke-width: 1.5;" x1="7" x2="214" y1="40.5" y2="40.5"/><rect fill="none" height="6" style="stroke: #C82930; stroke-width: 1.0;" width="6" x="14" y="49.918"/><text fill="#000000" font-family="sans-serif" font-size="11" lengthAdjust="spacingAndGlyphs" textLength="91" x="26" y="55.9189">String loggingEntity</text><line style="stroke: #A80036; stroke-width: 1.5;" x1="7" x2="214" y1="62.3359" y2="62.3359"/><ellipse cx="17" cy="74.7539" fill="#84BE84" rx="3" ry="3" style="stroke: #038048; stroke-width: 1.0;"/><text fill="#000000" font-family="sans-serif" font-size="11" lengthAdjust="spacingAndGlyphs" textLength="124" x="26" y="77.7549">void info(String message)</text><ellipse cx="17" cy="88.5898" fill="#84BE84" rx="3" ry="3" style="stroke: #038048; stroke-width: 1.0;"/><text fill="#000000" font-family="sans-serif" font-size="11" lengthAdjust="spacingAndGlyphs" textLength="136" x="26" y="91.5908">void debug(String message)</text><ellipse cx="17" cy="102.4258" fill="#84BE84" rx="3" ry="3" style="stroke: #038048; stroke-width: 1.0;"/><text fill="#000000" font-family="sans-serif" font-size="11" lengthAdjust="spacingAndGlyphs" textLength="146" x="26" y="105.4268">void warning(String message)</text><ellipse cx="17" cy="116.2617" fill="#84BE84" rx="3" ry="3" style="stroke: #038048; stroke-width: 1.0;"/><text fill="#000000" font-family="sans-serif" font-size="11" lengthAdjust="spacingAndGlyphs" textLength="183" x="26" y="119.2627">void log(String message, String Level)</text><ellipse cx="17" cy="130.0977" fill="#84BE84" rx="3" ry="3" style="stroke: #038048; stroke-width: 1.0;"/><text fill="#000000" font-family="sans-serif" font-size="11" lengthAdjust="spacingAndGlyphs" textLength="130" x="26" y="133.0986">void error(String message)</text></g></svg>