<?xml version="1.0" encoding="UTF-8" standalone="yes"?><svg xmlns="http://www.w3.org/2000/svg"
                                                            xmlns:xlink="http://www.w3.org/1999/xlink" height="120pt"
                                                            " version="1.1"
                                                            viewBox="0 0 166 120" width="166pt"><defs><filter
		height="300%" id="f1" width="300%" x="-1" y="-1"><feGaussianBlur result="blurOut" stdDeviation="2.0"/><feColorMatrix
		in="blurOut" result="blurOut2" type="matrix" values="0 0 0 0 0 0 0 0 0 0 0 0 0 0 0 0 0 0 .4 0"/><feOffset
		dx="4.0" dy="4.0" in="blurOut2" result="blurOut3"/><feBlend in="SourceGraphic" in2="blurOut3" mode="normal"/></filter></defs><g><rect
		fill="#FEFECE" filter="url(#f1)" height="103.3438" style="stroke: #A80036; stroke-width: 1.5;" width="151" x="6"
		y="8.5"/><ellipse cx="58.25" cy="24.5" fill="#ADD1B2" rx="11" ry="11"
                          style="stroke: #A80036; stroke-width: 1.0;"/><path
		d="M61.0156,20.375 Q61.1719,20.1563 61.3594,20.0469 Q61.5469,19.9375 61.7656,19.9375 Q62.1406,19.9375 62.375,20.1953 Q62.6094,20.4531 62.6094,21.0625 L62.6094,22.5156 Q62.6094,23.125 62.375,23.3906 Q62.1406,23.6563 61.7656,23.6563 Q61.4219,23.6563 61.2188,23.4531 Q61.0156,23.2656 60.9063,22.75 Q60.8594,22.3906 60.6719,22.2031 Q60.3438,21.8281 59.7344,21.6094 Q59.125,21.3906 58.5,21.3906 Q57.7344,21.3906 57.1016,21.7188 Q56.4688,22.0469 55.9766,22.7969 Q55.4844,23.5469 55.4844,24.5781 L55.4844,25.6719 Q55.4844,26.9063 56.375,27.7266 Q57.2656,28.5469 58.8594,28.5469 Q59.7969,28.5469 60.4531,28.2969 Q60.8438,28.1406 61.2656,27.7031 Q61.5313,27.4375 61.6797,27.3594 Q61.8281,27.2813 62.0313,27.2813 Q62.3594,27.2813 62.6172,27.5391 Q62.875,27.7969 62.875,28.1406 Q62.875,28.4844 62.5313,28.8906 Q62.0313,29.4688 61.2344,29.7969 Q60.1563,30.25 58.8594,30.25 Q57.3438,30.25 56.1406,29.625 Q55.1563,29.125 54.4688,28.0547 Q53.7813,26.9844 53.7813,25.7031 L53.7813,24.5469 Q53.7813,23.2188 54.3984,22.0703 Q55.0156,20.9219 56.1094,20.3047 Q57.2031,19.6875 58.4375,19.6875 Q59.1719,19.6875 59.8203,19.8516 Q60.4688,20.0156 61.0156,20.375 Z "/><text
		fill="#000000" font-size="12" lengthAdjust="spacingAndGlyphs" textLength="38" x="78.75"
		y="28.9531">Identity</text><line style="stroke: #A80036; stroke-width: 1.5;" x1="7" x2="156" y1="40.5"
                                         y2="40.5"/><text fill="#000000" font-size="11" lengthAdjust="spacingAndGlyphs"
                                                          textLength="92" x="12" y="55.5">String displayName</text><text
		fill="#000000" font-size="11" lengthAdjust="spacingAndGlyphs" textLength="45" x="12"
		y="69.3359">String uid</text><text fill="#000000" font-size="11" lengthAdjust="spacingAndGlyphs" textLength="55"
                                           x="12" y="83.1719">String email</text><text fill="#000000" font-size="11"
                                                                                       lengthAdjust="spacingAndGlyphs"
                                                                                       textLength="139" x="12"
                                                                                       y="97.0078">Map&lt;String,String&gt; attributes</text><line
		style="stroke: #A80036; stroke-width: 1.5;" x1="7" x2="156" y1="103.8438" y2="103.8438"/></g></svg>