<?xml version="1.0" encoding="UTF-8" standalone="yes"?><svg xmlns="http://www.w3.org/2000/svg" xmlns:xlink="http://www.w3.org/1999/xlink" height="298pt" style="width:210px;height:298px;" version="1.1" viewBox="0 0 210 298" width="210pt"><defs><filter height="300%" id="f1" width="300%" x="-1" y="-1"><feGaussianBlur result="blurOut" stdDeviation="2.0"/><feColorMatrix in="blurOut" result="blurOut2" type="matrix" values="0 0 0 0 0 0 0 0 0 0 0 0 0 0 0 0 0 0 .4 0"/><feOffset dx="4.0" dy="4.0" in="blurOut2" result="blurOut3"/><feBlend in="SourceGraphic" in2="blurOut3" mode="normal"/></filter></defs><g><rect fill="#FEFECE" filter="url(#f1)" height="131.0156" style="stroke: #A80036; stroke-width: 1.5;" width="80" x="6" y="8.5"/><ellipse cx="22.35" cy="24.5" fill="#ADD1B2" rx="11" ry="11" style="stroke: #A80036; stroke-width: 1.0;"/><path d="M25.1156,20.375 Q25.2719,20.1563 25.4594,20.0469 Q25.6469,19.9375 25.8656,19.9375 Q26.2406,19.9375 26.475,20.1953 Q26.7094,20.4531 26.7094,21.0625 L26.7094,22.5156 Q26.7094,23.125 26.475,23.3906 Q26.2406,23.6563 25.8656,23.6563 Q25.5219,23.6563 25.3188,23.4531 Q25.1156,23.2656 25.0063,22.75 Q24.9594,22.3906 24.7719,22.2031 Q24.4438,21.8281 23.8344,21.6094 Q23.225,21.3906 22.6,21.3906 Q21.8344,21.3906 21.2016,21.7188 Q20.5688,22.0469 20.0766,22.7969 Q19.5844,23.5469 19.5844,24.5781 L19.5844,25.6719 Q19.5844,26.9063 20.475,27.7266 Q21.3656,28.5469 22.9594,28.5469 Q23.8969,28.5469 24.5531,28.2969 Q24.9438,28.1406 25.3656,27.7031 Q25.6313,27.4375 25.7797,27.3594 Q25.9281,27.2813 26.1313,27.2813 Q26.4594,27.2813 26.7172,27.5391 Q26.975,27.7969 26.975,28.1406 Q26.975,28.4844 26.6313,28.8906 Q26.1313,29.4688 25.3344,29.7969 Q24.2563,30.25 22.9594,30.25 Q21.4438,30.25 20.2406,29.625 Q19.2563,29.125 18.5688,28.0547 Q17.8813,26.9844 17.8813,25.7031 L17.8813,24.5469 Q17.8813,23.2188 18.4984,22.0703 Q19.1156,20.9219 20.2094,20.3047 Q21.3031,19.6875 22.5375,19.6875 Q23.2719,19.6875 23.9203,19.8516 Q24.5688,20.0156 25.1156,20.375 Z "/><text fill="#000000" font-family="sans-serif" font-size="12" lengthAdjust="spacingAndGlyphs" textLength="45" x="36.65" y="29.4102">Triangle</text><line style="stroke: #A80036; stroke-width: 1.5;" x1="7" x2="85" y1="40.5" y2="40.5"/><text fill="#000000" font-family="sans-serif" font-size="11" lengthAdjust="spacingAndGlyphs" textLength="24" x="12" y="55.9189">base</text><text fill="#000000" font-family="sans-serif" font-size="11" lengthAdjust="spacingAndGlyphs" textLength="29" x="12" y="69.7549">height</text><text fill="#000000" font-family="sans-serif" font-size="11" lengthAdjust="spacingAndGlyphs" textLength="28" x="12" y="83.5908">sideA</text><text fill="#000000" font-family="sans-serif" font-size="11" lengthAdjust="spacingAndGlyphs" textLength="27" x="12" y="97.4268">sideB</text><line style="stroke: #A80036; stroke-width: 1.5;" x1="7" x2="85" y1="103.8438" y2="103.8438"/><text fill="#000000" font-family="sans-serif" font-size="11" lengthAdjust="spacingAndGlyphs" textLength="47" x="12" y="119.2627">getArea()</text><text fill="#000000" font-family="sans-serif" font-size="11" lengthAdjust="spacingAndGlyphs" textLength="68" x="12" y="133.0986">getPerimeter()</text><rect fill="#FEFECE" filter="url(#f1)" height="89.5078" style="stroke: #A80036; stroke-width: 1.5;" width="80" x="121" y="29"/><ellipse cx="139.6" cy="45" fill="#ADD1B2" rx="11" ry="11" style="stroke: #A80036; stroke-width: 1.0;"/><path d="M142.3656,40.875 Q142.5219,40.6563 142.7094,40.5469 Q142.8969,40.4375 143.1156,40.4375 Q143.4906,40.4375 143.725,40.6953 Q143.9594,40.9531 143.9594,41.5625 L143.9594,43.0156 Q143.9594,43.625 143.725,43.8906 Q143.4906,44.1563 143.1156,44.1563 Q142.7719,44.1563 142.5688,43.9531 Q142.3656,43.7656 142.2563,43.25 Q142.2094,42.8906 142.0219,42.7031 Q141.6938,42.3281 141.0844,42.1094 Q140.475,41.8906 139.85,41.8906 Q139.0844,41.8906 138.4516,42.2188 Q137.8188,42.5469 137.3266,43.2969 Q136.8344,44.0469 136.8344,45.0781 L136.8344,46.1719 Q136.8344,47.4063 137.725,48.2266 Q138.6156,49.0469 140.2094,49.0469 Q141.1469,49.0469 141.8031,48.7969 Q142.1938,48.6406 142.6156,48.2031 Q142.8813,47.9375 143.0297,47.8594 Q143.1781,47.7813 143.3813,47.7813 Q143.7094,47.7813 143.9672,48.0391 Q144.225,48.2969 144.225,48.6406 Q144.225,48.9844 143.8813,49.3906 Q143.3813,49.9688 142.5844,50.2969 Q141.5063,50.75 140.2094,50.75 Q138.6938,50.75 137.4906,50.125 Q136.5063,49.625 135.8188,48.5547 Q135.1313,47.4844 135.1313,46.2031 L135.1313,45.0469 Q135.1313,43.7188 135.7484,42.5703 Q136.3656,41.4219 137.4594,40.8047 Q138.5531,40.1875 139.7875,40.1875 Q140.5219,40.1875 141.1703,40.3516 Q141.8188,40.5156 142.3656,40.875 Z "/><text fill="#000000" font-family="sans-serif" font-size="12" lengthAdjust="spacingAndGlyphs" textLength="40" x="154.4" y="49.9102">Square</text><line style="stroke: #A80036; stroke-width: 1.5;" x1="122" x2="200" y1="61" y2="61"/><text fill="#000000" font-family="sans-serif" font-size="11" lengthAdjust="spacingAndGlyphs" textLength="20" x="127" y="76.4189">side</text><line style="stroke: #A80036; stroke-width: 1.5;" x1="122" x2="200" y1="82.8359" y2="82.8359"/><text fill="#000000" font-family="sans-serif" font-size="11" lengthAdjust="spacingAndGlyphs" textLength="47" x="127" y="98.2549">getArea()</text><text fill="#000000" font-family="sans-serif" font-size="11" lengthAdjust="spacingAndGlyphs" textLength="68" x="127" y="112.0908">getPerimeter()</text><rect fill="#FEFECE" filter="url(#f1)" height="89.5078" style="stroke: #A80036; stroke-width: 1.5;" width="80" x="6" y="200"/><ellipse cx="28.2" cy="216" fill="#ADD1B2" rx="11" ry="11" style="stroke: #A80036; stroke-width: 1.0;"/><path d="M30.9656,211.875 Q31.1219,211.6563 31.3094,211.5469 Q31.4969,211.4375 31.7156,211.4375 Q32.0906,211.4375 32.325,211.6953 Q32.5594,211.9531 32.5594,212.5625 L32.5594,214.0156 Q32.5594,214.625 32.325,214.8906 Q32.0906,215.1563 31.7156,215.1563 Q31.3719,215.1563 31.1688,214.9531 Q30.9656,214.7656 30.8563,214.25 Q30.8094,213.8906 30.6219,213.7031 Q30.2938,213.3281 29.6844,213.1094 Q29.075,212.8906 28.45,212.8906 Q27.6844,212.8906 27.0516,213.2188 Q26.4188,213.5469 25.9266,214.2969 Q25.4344,215.0469 25.4344,216.0781 L25.4344,217.1719 Q25.4344,218.4063 26.325,219.2266 Q27.2156,220.0469 28.8094,220.0469 Q29.7469,220.0469 30.4031,219.7969 Q30.7938,219.6406 31.2156,219.2031 Q31.4813,218.9375 31.6297,218.8594 Q31.7781,218.7813 31.9813,218.7813 Q32.3094,218.7813 32.5672,219.0391 Q32.825,219.2969 32.825,219.6406 Q32.825,219.9844 32.4813,220.3906 Q31.9813,220.9688 31.1844,221.2969 Q30.1063,221.75 28.8094,221.75 Q27.2938,221.75 26.0906,221.125 Q25.1063,220.625 24.4188,219.5547 Q23.7313,218.4844 23.7313,217.2031 L23.7313,216.0469 Q23.7313,214.7188 24.3484,213.5703 Q24.9656,212.4219 26.0594,211.8047 Q27.1531,211.1875 28.3875,211.1875 Q29.1219,211.1875 29.7703,211.3516 Q30.4188,211.5156 30.9656,211.875 Z "/><text fill="#000000" font-family="sans-serif" font-size="12" lengthAdjust="spacingAndGlyphs" textLength="32" x="43.8" y="220.9102">Circle</text><line style="stroke: #A80036; stroke-width: 1.5;" x1="7" x2="85" y1="232" y2="232"/><text fill="#000000" font-family="sans-serif" font-size="11" lengthAdjust="spacingAndGlyphs" textLength="30" x="12" y="247.4189">radius</text><line style="stroke: #A80036; stroke-width: 1.5;" x1="7" x2="85" y1="253.8359" y2="253.8359"/><text fill="#000000" font-family="sans-serif" font-size="11" lengthAdjust="spacingAndGlyphs" textLength="47" x="12" y="269.2549">getArea()</text><text fill="#000000" font-family="sans-serif" font-size="11" lengthAdjust="spacingAndGlyphs" textLength="68" x="12" y="283.0908">getPerimeter()</text></g></svg>