<?xml version="1.0" encoding="UTF-8" standalone="yes"?><svg xmlns="http://www.w3.org/2000/svg" xmlns:xlink="http://www.w3.org/1999/xlink" height="357pt" " version="1.1" viewBox="0 0 291 357" width="291pt"><defs><filter height="300%" id="f1" width="300%" x="-1" y="-1"><feGaussianBlur result="blurOut" stdDeviation="2.0"/><feColorMatrix in="blurOut" result="blurOut2" type="matrix" values="0 0 0 0 0 0 0 0 0 0 0 0 0 0 0 0 0 0 .4 0"/><feOffset dx="4.0" dy="4.0" in="blurOut2" result="blurOut3"/><feBlend in="SourceGraphic" in2="blurOut3" mode="normal"/></filter></defs><g><rect fill="#FFFFFF" filter="url(#f1)" height="326" style="stroke: #000000; stroke-width: 2.0;" width="262" x="22" y="24"/><text fill="#000000" font-family="sans-serif" font-size="14" font-weight="bold" lengthAdjust="spacingAndGlyphs" textLength="65" x="120.5" y="40">TargetOS</text><rect fill="#FFFFFF" filter="url(#f1)" height="91" style="stroke: #000000; stroke-width: 2.0;" width="214" x="46" y="69"/><path d="M114,70 L114,79.6094 L104,89.6094 L46,89.6094 " fill="#FFFFFF" style="stroke: #000000; stroke-width: 2.0;"/><text fill="#000000" font-family="sans-serif" font-size="14" font-weight="bold" lengthAdjust="spacingAndGlyphs" textLength="58" x="49" y="84">Binaries</text><ellipse cx="153.1348" cy="219.9517" fill="#FEFECE" filter="url(#f1)" rx="21.3848" ry="15.4517" style="stroke: #A80036; stroke-width: 1.5;"/><text fill="#000000" font-family="sans-serif" font-size="14" lengthAdjust="spacingAndGlyphs" textLength="26" x="140.1348" y="225.2564">JVM</text><ellipse cx="153.0917" cy="315.1183" fill="#FEFECE" filter="url(#f1)" rx="81.0917" ry="18.6183" style="stroke: #A80036; stroke-width: 1.5;"/><text fill="#000000" font-family="sans-serif" font-size="14" lengthAdjust="spacingAndGlyphs" textLength="129" x="88.5917" y="320.423">OS Core Operations</text><rect fill="#FEFECE" filter="url(#f1)" height="37.6094" style="stroke: #A80036; stroke-width: 1.5;" width="182" x="62" y="106"/><rect fill="#FEFECE" height="5" style="stroke: #A80036; stroke-width: 1.5;" width="10" x="57" y="111"/><rect fill="#FEFECE" height="5" style="stroke: #A80036; stroke-width: 1.5;" width="10" x="57" y="133.6094"/><text fill="#000000" font-family="sans-serif" font-size="14" lengthAdjust="spacingAndGlyphs" textLength="162" x="72" y="130">Java precompiled-classes</text><path d="M153,144.374 C153,160.164 153,182.884 153,199.1 " fill="none" style="stroke: #A80036; stroke-width: 1.0;"/><polygon fill="#A80036" points="153,204.331,157,195.331,153,199.331,149,195.331,153,204.331" style="stroke: #A80036; stroke-width: 1.0;"/><path d="M153,235.531 C153,250.439 153,273.8431 153,291.2162 " fill="none" style="stroke: #A80036; stroke-width: 1.0;"/><polygon fill="#A80036" points="153,296.3981,157,287.3981,153,291.3981,149,287.3981,153,296.3981" style="stroke: #A80036; stroke-width: 1.0;"/></g></svg>