<?xml version="1.0" encoding="UTF-8" standalone="yes"?><svg xmlns="http://www.w3.org/2000/svg" xmlns:xlink="http://www.w3.org/1999/xlink" height="403pt" style="width:309px;height:403px;" version="1.1" viewBox="0 0 309 403" width="309pt"><defs><filter height="300%" id="f1" width="300%" x="-1" y="-1"><feGaussianBlur result="blurOut" stdDeviation="2.0"/><feColorMatrix in="blurOut" result="blurOut2" type="matrix" values="0 0 0 0 0 0 0 0 0 0 0 0 0 0 0 0 0 0 .4 0"/><feOffset dx="4.0" dy="4.0" in="blurOut2" result="blurOut3"/><feBlend in="SourceGraphic" in2="blurOut3" mode="normal"/></filter></defs><g><text fill="#000000" font-family="sans-serif" font-size="18" lengthAdjust="spacingAndGlyphs" textLength="68" x="130" y="18.6855">Example</text><rect fill="#FFFFFF" filter="url(#f1)" height="213" style="stroke: #000000; stroke-width: 2.0;" width="196" x="50" y="46.6406"/><text fill="#000000" font-family="sans-serif" font-size="14" font-weight="bold" lengthAdjust="spacingAndGlyphs" textLength="179" x="58.5" y="63.1738">Car Construction Scheme</text><rect fill="#FFFFFF" filter="url(#f1)" height="85" style="stroke: #000000; stroke-width: 2.0;" width="252" x="22" y="311.6406"/><text fill="#000000" font-family="sans-serif" font-size="14" font-weight="bold" lengthAdjust="spacingAndGlyphs" textLength="68" x="114" y="328.1738">Instances</text><ellipse cx="131.0416" cy="99.5923" fill="#FEFECE" filter="url(#f1)" rx="27.0416" ry="15.4517" style="stroke: #A80036; stroke-width: 1.5;"/><text fill="#000000" font-family="sans-serif" font-size="14" lengthAdjust="spacingAndGlyphs" textLength="34" x="114.0416" y="104.897">Color</text><ellipse cx="147.8716" cy="227.8149" fill="#FEFECE" filter="url(#f1)" rx="68.8716" ry="16.1743" style="stroke: #A80036; stroke-width: 1.5;"/><text fill="#000000" font-family="sans-serif" font-size="14" lengthAdjust="spacingAndGlyphs" textLength="98" x="98.8716" y="233.1196">Assembly chain</text><ellipse cx="62.9203" cy="364.5923" fill="#FEFECE" filter="url(#f1)" rx="24.9203" ry="15.4517" style="stroke: #A80036; stroke-width: 1.5;"/><text fill="#000000" font-family="sans-serif" font-size="14" lengthAdjust="spacingAndGlyphs" textLength="31" x="47.4203" y="369.897">Car1</text><ellipse cx="147.9203" cy="364.5923" fill="#FEFECE" filter="url(#f1)" rx="24.9203" ry="15.4517" style="stroke: #A80036; stroke-width: 1.5;"/><text fill="#000000" font-family="sans-serif" font-size="14" lengthAdjust="spacingAndGlyphs" textLength="31" x="132.4203" y="369.897">Car2</text><ellipse cx="232.9203" cy="364.5923" fill="#FEFECE" filter="url(#f1)" rx="24.9203" ry="15.4517" style="stroke: #A80036; stroke-width: 1.5;"/><text fill="#000000" font-family="sans-serif" font-size="14" lengthAdjust="spacingAndGlyphs" textLength="31" x="217.4203" y="369.897">Car3</text><path d="M133.705,120.6866 C137.104,145.8836 142.865,188.5796 145.933,211.3186 " fill="none" style="stroke: #A80036; stroke-width: 1.0;"/><polygon fill="#A80036" points="133.017,115.5896,130.2562,125.0436,133.6855,120.5447,138.1844,123.974,133.017,115.5896" style="stroke: #A80036; stroke-width: 1.0;"/><text fill="#000000" font-family="sans-serif" font-size="13" lengthAdjust="spacingAndGlyphs" textLength="79" x="143" y="160.6357">sets the color</text><text fill="#000000" font-family="sans-serif" font-size="13" lengthAdjust="spacingAndGlyphs" textLength="72" x="148.5" y="176.9873">for each  car</text><path d="M112.187,241.4416 C96.5669,248.9306 79.6474,260.0436 70,275.6406 C57.2512,296.2516 57.5815,324.9771 59.6973,343.9278 " fill="none" style="stroke: #A80036; stroke-width: 1.0;"/><polygon fill="#A80036" points="60.332,348.9987,63.1832,339.5716,59.711,344.0374,55.2452,340.5652,60.332,348.9987" style="stroke: #A80036; stroke-width: 1.0;"/><text fill="#000000" font-family="sans-serif" font-size="13" lengthAdjust="spacingAndGlyphs" textLength="64" x="71" y="290.6357">Color = red</text><path d="M146.781,243.8686 C146.107,253.0626 145.339,265.0166 145,275.6406 C144.254,299.0416 145.474,325.9394 146.575,343.7746 " fill="none" style="stroke: #A80036; stroke-width: 1.0;"/><polygon fill="#A80036" points="146.911,349.0048,150.3266,339.7672,146.5909,344.0151,142.343,340.2794,146.911,349.0048" style="stroke: #A80036; stroke-width: 1.0;"/><text fill="#000000" font-family="sans-serif" font-size="13" lengthAdjust="spacingAndGlyphs" textLength="78" x="146" y="290.6357">Color = green</text><path d="M186.363,240.9986 C202.726,248.3506 220.262,259.4766 230,275.6406 C242.474,296.3466 240.682,325.0496 237.489,343.9693 " fill="none" style="stroke: #A80036; stroke-width: 1.0;"/><polygon fill="#A80036" points="236.562,349.0314,242.118,340.8993,237.4628,344.1132,234.2489,339.4581,236.562,349.0314" style="stroke: #A80036; stroke-width: 1.0;"/><text fill="#000000" font-family="sans-serif" font-size="13" lengthAdjust="spacingAndGlyphs" textLength="70" x="238" y="290.6357">Color = blue</text></g></svg>