<?xml version="1.0" encoding="UTF-8" standalone="yes"?><svg xmlns="http://www.w3.org/2000/svg" xmlns:xlink="http://www.w3.org/1999/xlink" height="92pt" style="width:172px;height:92px;" version="1.1" viewBox="0 0 172 92" width="172pt"><defs><filter height="300%" id="f1" width="300%" x="-1" y="-1"><feGaussianBlur result="blurOut" stdDeviation="2.0"/><feColorMatrix in="blurOut" result="blurOut2" type="matrix" values="0 0 0 0 0 0 0 0 0 0 0 0 0 0 0 0 0 0 .4 0"/><feOffset dx="4.0" dy="4.0" in="blurOut2" result="blurOut3"/><feBlend in="SourceGraphic" in2="blurOut3" mode="normal"/></filter></defs><g><rect fill="#FEFECE" filter="url(#f1)" height="75.6719" style="stroke: #A80036; stroke-width: 1.5;" width="157" x="6" y="8"/><ellipse cx="47.55" cy="24" fill="#B4A7E5" rx="11" ry="11" style="stroke: #A80036; stroke-width: 1.0;"/><path d="M48.5031,20.6406 L48.5031,27.2969 L50.2219,27.2969 Q50.8313,27.2969 51.0969,27.5313 Q51.3625,27.7656 51.3625,28.1563 Q51.3625,28.5313 51.0969,28.7656 Q50.8313,29 50.2219,29 L45.0813,29 Q44.4719,29 44.2063,28.7656 Q43.9406,28.5313 43.9406,28.1406 Q43.9406,27.7656 44.2063,27.5313 Q44.4719,27.2969 45.0813,27.2969 L46.8,27.2969 L46.8,20.6406 L45.0813,20.6406 Q44.4719,20.6406 44.2063,20.4063 Q43.9406,20.1719 43.9406,19.7813 Q43.9406,19.4063 44.2063,19.1719 Q44.4719,18.9375 45.0813,18.9375 L50.2219,18.9375 Q50.8313,18.9375 51.0969,19.1719 Q51.3625,19.4063 51.3625,19.7813 Q51.3625,20.1719 51.0969,20.4063 Q50.8313,20.6406 50.2219,20.6406 L48.5031,20.6406 Z "/><text fill="#000000" font-family="sans-serif" font-size="12" font-style="italic" lengthAdjust="spacingAndGlyphs" textLength="66" x="67.45" y="28.9102">IdentityDAO</text><line style="stroke: #A80036; stroke-width: 1.5;" x1="7" x2="162" y1="40" y2="40"/><line style="stroke: #A80036; stroke-width: 1.5;" x1="7" x2="162" y1="48" y2="48"/><text fill="#000000" font-family="sans-serif" font-size="11" lengthAdjust="spacingAndGlyphs" textLength="145" x="12" y="63.4189">boolean store(Identity identity)</text><text fill="#000000" font-family="sans-serif" font-size="11" lengthAdjust="spacingAndGlyphs" textLength="143" x="12" y="77.2549">List&lt;Identity&gt; getAllIdentities()</text></g></svg>