<?xml version="1.0" encoding="UTF-8" standalone="yes"?><svg xmlns="http://www.w3.org/2000/svg" xmlns:xlink="http://www.w3.org/1999/xlink" height="401pt" style="width:407px;height:401px;" version="1.1" viewBox="0 0 407 401" width="407pt"><defs><filter height="300%" id="f1" width="300%" x="-1" y="-1"><feGaussianBlur result="blurOut" stdDeviation="2.0"/><feColorMatrix in="blurOut" result="blurOut2" type="matrix" values="0 0 0 0 0 0 0 0 0 0 0 0 0 0 0 0 0 0 .4 0"/><feOffset dx="4.0" dy="4.0" in="blurOut2" result="blurOut3"/><feBlend in="SourceGraphic" in2="blurOut3" mode="normal"/></filter></defs><g><text fill="#000000" font-family="sans-serif" font-size="18" lengthAdjust="spacingAndGlyphs" textLength="260" x="87" y="18.6855">General instantiation mechanism</text><rect fill="#FFFFFF" filter="url(#f1)" height="229" style="stroke: #000000; stroke-width: 2.0;" width="177" x="139" y="46.6406"/><text fill="#000000" font-family="sans-serif" font-size="14" font-weight="bold" lengthAdjust="spacingAndGlyphs" textLength="110" x="172.5" y="63.1738">Class Definition</text><rect fill="#FFFFFF" filter="url(#f1)" height="85" style="stroke: #000000; stroke-width: 2.0;" width="378" x="22" y="309.6406"/><text fill="#000000" font-family="sans-serif" font-size="14" font-weight="bold" lengthAdjust="spacingAndGlyphs" textLength="68" x="177" y="326.1738">Instances</text><ellipse cx="203.9619" cy="99.5923" fill="#FEFECE" filter="url(#f1)" rx="48.9619" ry="15.4517" style="stroke: #A80036; stroke-width: 1.5;"/><text fill="#000000" font-family="sans-serif" font-size="14" lengthAdjust="spacingAndGlyphs" textLength="65" x="171.4619" y="104.897">Properties</text><ellipse cx="211.0759" cy="243.5923" fill="#FEFECE" filter="url(#f1)" rx="55.3259" ry="15.4517" style="stroke: #A80036; stroke-width: 1.5;"/><text fill="#000000" font-family="sans-serif" font-size="14" lengthAdjust="spacingAndGlyphs" textLength="74" x="174.0759" y="248.897">Constructor</text><ellipse cx="84.1335" cy="362.5923" fill="#FEFECE" filter="url(#f1)" rx="46.1335" ry="15.4517" style="stroke: #A80036; stroke-width: 1.5;"/><text fill="#000000" font-family="sans-serif" font-size="14" lengthAdjust="spacingAndGlyphs" textLength="61" x="53.6335" y="367.897">Instance1</text><ellipse cx="211.1335" cy="362.5923" fill="#FEFECE" filter="url(#f1)" rx="46.1335" ry="15.4517" style="stroke: #A80036; stroke-width: 1.5;"/><text fill="#000000" font-family="sans-serif" font-size="14" lengthAdjust="spacingAndGlyphs" textLength="61" x="180.6335" y="367.897">Instance2</text><ellipse cx="338.1335" cy="362.5923" fill="#FEFECE" filter="url(#f1)" rx="46.1335" ry="15.4517" style="stroke: #A80036; stroke-width: 1.5;"/><text fill="#000000" font-family="sans-serif" font-size="14" lengthAdjust="spacingAndGlyphs" textLength="61" x="307.6335" y="367.897">Instance3</text><path d="M204.974,120.3906 C206.394,149.2066 209.003,202.1356 210.271,227.8456 " fill="none" style="stroke: #A80036; stroke-width: 1.0;"/><polygon fill="#A80036" points="204.723,115.3026,201.1727,124.4893,204.9701,120.2965,209.1629,124.0939,204.723,115.3026" style="stroke: #A80036; stroke-width: 1.0;"/><text fill="#000000" font-family="sans-serif" font-size="13" lengthAdjust="spacingAndGlyphs" textLength="54" x="233.5" y="160.1357">initializes</text><text fill="#000000" font-family="sans-serif" font-size="13" lengthAdjust="spacingAndGlyphs" textLength="107" x="209" y="176.4873">properties for each</text><text fill="#000000" font-family="sans-serif" font-size="13" lengthAdjust="spacingAndGlyphs" textLength="49" x="240" y="192.8389">instance</text><path d="M195.087,258.5496 C182.057,270.0026 163.198,286.7226 147,301.6406 C131.696,315.7359 114.621,332.0345 102.1119,344.0841 " fill="none" style="stroke: #A80036; stroke-width: 1.0;"/><polygon fill="#A80036" points="98.3834,347.68,107.6383,344.3115,101.9824,344.2091,102.0848,338.5531,98.3834,347.68" style="stroke: #A80036; stroke-width: 1.0;"/><path d="M211,259.4586 C211,280.3816 211,318.6252 211,341.9263 " fill="none" style="stroke: #A80036; stroke-width: 1.0;"/><polygon fill="#A80036" points="211,346.9428,215,337.9428,211,341.9428,207,337.9428,211,346.9428" style="stroke: #A80036; stroke-width: 1.0;"/><path d="M226.913,258.5496 C239.943,270.0026 258.802,286.7226 275,301.6406 C290.304,315.7359 307.379,332.0345 319.888,344.0841 " fill="none" style="stroke: #A80036; stroke-width: 1.0;"/><polygon fill="#A80036" points="323.617,347.68,319.9162,338.5529,320.0183,344.2088,314.3623,344.3109,323.617,347.68" style="stroke: #A80036; stroke-width: 1.0;"/></g></svg>