<?xml version="1.0" encoding="UTF-8" standalone="yes"?><svg xmlns="http://www.w3.org/2000/svg" xmlns:xlink="http://www.w3.org/1999/xlink" height="240pt" style="width:862px;height:240px;" version="1.1" viewBox="0 0 862 240" width="862pt"><defs><filter height="300%" id="f1" width="300%" x="-1" y="-1"><feGaussianBlur result="blurOut" stdDeviation="2.0"/><feColorMatrix in="blurOut" result="blurOut2" type="matrix" values="0 0 0 0 0 0 0 0 0 0 0 0 0 0 0 0 0 0 .4 0"/><feOffset dx="4.0" dy="4.0" in="blurOut2" result="blurOut3"/><feBlend in="SourceGraphic" in2="blurOut3" mode="normal"/></filter></defs><g><rect fill="#FFFFFF" filter="url(#f1)" height="209" style="stroke: #000000; stroke-width: 2.0;" width="618" x="22" y="24"/><text fill="#000000" font-family="sans-serif" font-size="14" font-weight="bold" lengthAdjust="spacingAndGlyphs" textLength="65" x="298.5" y="40.5332">TargetOS</text><rect fill="#FFFFFF" filter="url(#f1)" height="91" style="stroke: #000000; stroke-width: 2.0;" width="102" x="46" y="69"/><path d="M114,70 L114,79.6094 L104,89.6094 L46,89.6094 " fill="#FFFFFF" style="stroke: #000000; stroke-width: 2.0;"/><text fill="#000000" font-family="sans-serif" font-size="14" font-weight="bold" lengthAdjust="spacingAndGlyphs" textLength="58" x="49" y="84.5332">Binaries</text><ellipse cx="305.8848" cy="157.9517" fill="#FEFECE" filter="url(#f1)" rx="21.3848" ry="15.4517" style="stroke: #A80036; stroke-width: 1.5;"/><text fill="#000000" font-family="sans-serif" font-size="14" lengthAdjust="spacingAndGlyphs" textLength="26" x="292.8848" y="163.2564">JVM</text><ellipse cx="543.0917" cy="158.1183" fill="#FEFECE" filter="url(#f1)" rx="81.0917" ry="18.6183" style="stroke: #A80036; stroke-width: 1.5;"/><text fill="#000000" font-family="sans-serif" font-size="14" lengthAdjust="spacingAndGlyphs" textLength="129" x="478.5917" y="163.423">OS Core Operations</text><rect fill="#FFA500" filter="url(#f1)" height="37.6094" style="stroke: #A80036; stroke-width: 1.5;" width="45" x="74.5" y="179"/><text fill="#000000" font-family="sans-serif" font-size="14" lengthAdjust="spacingAndGlyphs" textLength="25" x="84.5" y="203.5332">JRE</text><rect fill="#FFFFFF" filter="url(#f1)" height="37.6094" style="stroke: #A80036; stroke-width: 1.5;" width="70" x="62" y="106"/><text fill="#000000" font-family="sans-serif" font-size="14" lengthAdjust="spacingAndGlyphs" textLength="50" x="72" y="130.5332">Classes</text><rect fill="#FFFFFF" filter="url(#f1)" height="37.6094" style="stroke: #A80036; stroke-width: 1.5;" width="63" x="792.5" y="139"/><text fill="#000000" font-family="sans-serif" font-size="14" lengthAdjust="spacingAndGlyphs" textLength="43" x="802.5" y="163.5332">Output</text><path d="M119.761,193.7949 C160.14,185.9922 246.09,169.3836 285.056,161.8539 " fill="none" style="stroke: #A80036; stroke-width: 1.0; stroke-dasharray: 7.0,7.0;"/><path d="M132.182,130.449 C173.663,137.062 242.637,148.058 279.661,153.9604 " fill="none" style="stroke: #A80036; stroke-width: 1.0;"/><polygon fill="#A80036" points="284.884,154.7932,276.6259,149.4262,279.9463,154.0061,275.3665,157.3265,284.884,154.7932" style="stroke: #A80036; stroke-width: 1.0;"/><text fill="#000000" font-family="sans-serif" font-size="13" font-weight="bold" lengthAdjust="spacingAndGlyphs" textLength="86" x="165.5" y="131.4951">Interpretation</text><path d="M327.855,158 C356.684,158 410.419,158 456.847,158 " fill="none" style="stroke: #A80036; stroke-width: 1.0;"/><polygon fill="#A80036" points="461.891,158,452.891,154,456.891,158,452.891,162,461.891,158" style="stroke: #A80036; stroke-width: 1.0;"/><text fill="#000000" font-family="sans-serif" font-size="13" font-weight="bold" lengthAdjust="spacingAndGlyphs" textLength="71" x="359" y="153.4951">Translation</text><path d="M624.324,158 C678.092,158 746.258,158 787.155,158 " fill="none" style="stroke: #A80036; stroke-width: 1.0;"/><polygon fill="#A80036" points="792.495,158,783.495,154,787.495,158,783.495,162,792.495,158" style="stroke: #A80036; stroke-width: 1.0;"/><text fill="#000000" font-family="sans-serif" font-size="13" font-weight="bold" lengthAdjust="spacingAndGlyphs" textLength="102" x="657.5" y="153.4951">Execution result</text></g></svg>