<?xml version="1.0" encoding="UTF-8" standalone="yes"?><svg xmlns="http://www.w3.org/2000/svg" xmlns:xlink="http://www.w3.org/1999/xlink" height="264pt" style="width:120px;height:264px;" version="1.1" viewBox="0 0 120 264" width="120pt"><defs><filter height="300%" id="f1" width="300%" x="-1" y="-1"><feGaussianBlur result="blurOut" stdDeviation="2.0"/><feColorMatrix in="blurOut" result="blurOut2" type="matrix" values="0 0 0 0 0 0 0 0 0 0 0 0 0 0 0 0 0 0 .4 0"/><feOffset dx="4.0" dy="4.0" in="blurOut2" result="blurOut3"/><feBlend in="SourceGraphic" in2="blurOut3" mode="normal"/></filter></defs><g><ellipse cx="64.5" cy="20" fill="#000000" filter="url(#f1)" rx="10" ry="10" style="stroke: none; stroke-width: 1.0;"/><rect fill="#FEFECE" filter="url(#f1)" height="35.0938" rx="12.5" ry="12.5" style="stroke: #A80036; stroke-width: 1.5;" width="77" x="26" y="94"/><text fill="#000000" font-family="sans-serif" font-size="12" lengthAdjust="spacingAndGlyphs" textLength="57" x="36" y="116.457">instruction</text><rect fill="#FEFECE" filter="url(#f1)" height="35.0938" rx="12.5" ry="12.5" style="stroke: #A80036; stroke-width: 1.5;" width="37" x="46" y="160.5938"/><text fill="#000000" font-family="sans-serif" font-size="12" lengthAdjust="spacingAndGlyphs" textLength="17" x="56" y="183.0508">i++</text><polygon fill="#FEFECE" filter="url(#f1)" points="51.5,50,77.5,50,89.5,62,77.5,74,51.5,74,39.5,62,51.5,50" style="stroke: #A80036; stroke-width: 1.5;"/><text fill="#000000" font-family="sans-serif" font-size="11" lengthAdjust="spacingAndGlyphs" textLength="26" x="51.5" y="66.501">i &lt; 10</text><polygon fill="#A80036" points="111,126.5938,115,116.5938,119,126.5938,115,122.5938" style="stroke: #A80036; stroke-width: 1.0;"/><polygon fill="#A80036" points="10,130.5938,14,140.5938,18,130.5938,14,134.5938" style="stroke: #A80036; stroke-width: 1.0;"/><ellipse cx="64.5" cy="247.6875" fill="none" filter="url(#f1)" rx="10" ry="10" style="stroke: #000000; stroke-width: 1.0;"/><ellipse cx="65" cy="248.1875" fill="#000000" filter="url(#f1)" rx="6" ry="6" style="stroke: none; stroke-width: 1.0;"/><line style="stroke: #A80036; stroke-width: 1.5;" x1="64.5" x2="64.5" y1="129.0938" y2="160.5938"/><polygon fill="#A80036" points="60.5,150.5938,64.5,160.5938,68.5,150.5938,64.5,154.5938" style="stroke: #A80036; stroke-width: 1.0;"/><line style="stroke: #A80036; stroke-width: 1.5;" x1="64.5" x2="64.5" y1="74" y2="94"/><polygon fill="#A80036" points="60.5,84,64.5,94,68.5,84,64.5,88" style="stroke: #A80036; stroke-width: 1.0;"/><line style="stroke: #A80036; stroke-width: 1.5;" x1="64.5" x2="64.5" y1="195.6875" y2="205.6875"/><line style="stroke: #A80036; stroke-width: 1.5;" x1="64.5" x2="115" y1="205.6875" y2="205.6875"/><line style="stroke: #A80036; stroke-width: 1.5;" x1="115" x2="115" y1="62" y2="205.6875"/><line style="stroke: #A80036; stroke-width: 1.5;" x1="89.5" x2="115" y1="62" y2="62"/><polygon fill="#A80036" points="99.5,58,89.5,62,99.5,66,95.5,62" style="stroke: #A80036; stroke-width: 1.0;"/><line style="stroke: #A80036; stroke-width: 1.5;" x1="14" x2="39.5" y1="62" y2="62"/><line style="stroke: #A80036; stroke-width: 1.5;" x1="14" x2="14" y1="62" y2="222.6875"/><line style="stroke: #A80036; stroke-width: 1.5;" x1="14" x2="64.5" y1="222.6875" y2="222.6875"/><line style="stroke: #A80036; stroke-width: 1.5;" x1="64.5" x2="64.5" y1="30" y2="50"/><polygon fill="#A80036" points="60.5,40,64.5,50,68.5,40,64.5,44" style="stroke: #A80036; stroke-width: 1.0;"/><line style="stroke: #A80036; stroke-width: 1.5;" x1="64.5" x2="64.5" y1="222.6875" y2="237.6875"/><polygon fill="#A80036" points="60.5,227.6875,64.5,237.6875,68.5,227.6875,64.5,231.6875" style="stroke: #A80036; stroke-width: 1.0;"/></g></svg>