<?xml version="1.0" encoding="UTF-8" standalone="yes"?><svg xmlns="http://www.w3.org/2000/svg" xmlns:xlink="http://www.w3.org/1999/xlink" height="195pt" style="width:467px;height:195px;" version="1.1" viewBox="0 0 467 195" width="467pt"><defs><filter height="300%" id="f1" width="300%" x="-1" y="-1"><feGaussianBlur result="blurOut" stdDeviation="2.0"/><feColorMatrix in="blurOut" result="blurOut2" type="matrix" values="0 0 0 0 0 0 0 0 0 0 0 0 0 0 0 0 0 0 .4 0"/><feOffset dx="4.0" dy="4.0" in="blurOut2" result="blurOut3"/><feBlend in="SourceGraphic" in2="blurOut3" mode="normal"/></filter></defs><g><rect fill="#FFFFFF" filter="url(#f1)" height="164" style="stroke: #000000; stroke-width: 2.0;" width="344" x="116" y="24"/><text fill="#000000" font-family="sans-serif" font-size="14" font-weight="bold" lengthAdjust="spacingAndGlyphs" textLength="114" x="231" y="40.5332">DevelopmentOS</text><ellipse cx="285.098" cy="116.9517" fill="#FEFECE" filter="url(#f1)" rx="42.598" ry="15.4517" style="stroke: #A80036; stroke-width: 1.5;"/><text fill="#000000" font-family="sans-serif" font-size="14" lengthAdjust="spacingAndGlyphs" textLength="56" x="257.098" y="122.2564">Compiler</text><rect fill="#FFFFFF" filter="url(#f1)" height="37.6094" style="stroke: #A80036; stroke-width: 1.5;" width="50" x="132" y="61"/><text fill="#000000" font-family="sans-serif" font-size="14" lengthAdjust="spacingAndGlyphs" textLength="30" x="142" y="85.5332">.java</text><rect fill="#FFFFFF" filter="url(#f1)" height="37.6094" style="stroke: #A80036; stroke-width: 1.5;" width="56" x="388" y="98"/><text fill="#000000" font-family="sans-serif" font-size="14" lengthAdjust="spacingAndGlyphs" textLength="36" x="398" y="122.5332">.class</text><rect fill="#FFA500" filter="url(#f1)" height="37.6094" style="stroke: #A80036; stroke-width: 1.5;" width="45" x="134.5" y="134"/><text fill="#000000" font-family="sans-serif" font-size="14" lengthAdjust="spacingAndGlyphs" textLength="25" x="144.5" y="158.5332">JDK</text><ellipse cx="39" cy="47.5" fill="#FEFECE" filter="url(#f1)" rx="8" ry="8" style="stroke: #A80036; stroke-width: 2.0;"/><path d="M39,55.5 L39,82.5 M26,63.5 L52,63.5 M39,82.5 L26,97.5 M39,82.5 L52,97.5 " fill="#FEFECE" filter="url(#f1)" style="stroke: #A80036; stroke-width: 2.0;"/><text fill="#000000" font-family="sans-serif" font-size="14" lengthAdjust="spacingAndGlyphs" textLength="65" x="6.5" y="119.0332">Developer</text><path d="M71.6975,80 C88.8409,80 109.874,80 126.642,80 " fill="none" style="stroke: #A80036; stroke-width: 1.0;"/><polygon fill="#A80036" points="131.7,80,122.7,76,126.7,80,122.7,84,131.7,80" style="stroke: #A80036; stroke-width: 1.0;"/><path d="M182.294,87.134 C200.566,92.5 225.931,99.948 246.759,106.0641 " fill="none" style="stroke: #A80036; stroke-width: 1.0;"/><polygon fill="#A80036" points="251.675,107.5076,244.1664,101.1342,246.8775,106.099,241.9127,108.8101,251.675,107.5076" style="stroke: #A80036; stroke-width: 1.0;"/><path d="M327.526,117 C345.415,117 366.016,117 382.73,117 " fill="none" style="stroke: #A80036; stroke-width: 1.0;"/><polygon fill="#A80036" points="387.785,117,378.785,113,382.785,117,378.785,121,387.785,117" style="stroke: #A80036; stroke-width: 1.0;"/><path d="M179.66,146.8114 C199.361,141.1824 228.72,132.7944 251.28,126.3485 " fill="none" style="stroke: #A80036; stroke-width: 1.0; stroke-dasharray: 7.0,7.0;"/></g></svg>