<?xml version="1.0" encoding="UTF-8" standalone="yes"?><svg xmlns="http://www.w3.org/2000/svg" xmlns:xlink="http://www.w3.org/1999/xlink" height="106pt" style="width:160px;height:106px;" version="1.1" viewBox="0 0 160 106" width="160pt"><defs><filter height="300%" id="f1" width="300%" x="-1" y="-1"><feGaussianBlur result="blurOut" stdDeviation="2.0"/><feColorMatrix in="blurOut" result="blurOut2" type="matrix" values="0 0 0 0 0 0 0 0 0 0 0 0 0 0 0 0 0 0 .4 0"/><feOffset dx="4.0" dy="4.0" in="blurOut2" result="blurOut3"/><feBlend in="SourceGraphic" in2="blurOut3" mode="normal"/></filter></defs><g><rect fill="#FEFECE" filter="url(#f1)" height="89.5078" style="stroke: #A80036; stroke-width: 1.5;" width="145" x="6" y="8"/><ellipse cx="29.55" cy="24" fill="#ADD1B2" rx="11" ry="11" style="stroke: #A80036; stroke-width: 1.0;"/><path d="M32.3156,19.875 Q32.4719,19.6563 32.6594,19.5469 Q32.8469,19.4375 33.0656,19.4375 Q33.4406,19.4375 33.675,19.6953 Q33.9094,19.9531 33.9094,20.5625 L33.9094,22.0156 Q33.9094,22.625 33.675,22.8906 Q33.4406,23.1563 33.0656,23.1563 Q32.7219,23.1563 32.5188,22.9531 Q32.3156,22.7656 32.2063,22.25 Q32.1594,21.8906 31.9719,21.7031 Q31.6438,21.3281 31.0344,21.1094 Q30.425,20.8906 29.8,20.8906 Q29.0344,20.8906 28.4016,21.2188 Q27.7688,21.5469 27.2766,22.2969 Q26.7844,23.0469 26.7844,24.0781 L26.7844,25.1719 Q26.7844,26.4063 27.675,27.2266 Q28.5656,28.0469 30.1594,28.0469 Q31.0969,28.0469 31.7531,27.7969 Q32.1438,27.6406 32.5656,27.2031 Q32.8313,26.9375 32.9797,26.8594 Q33.1281,26.7813 33.3313,26.7813 Q33.6594,26.7813 33.9172,27.0391 Q34.175,27.2969 34.175,27.6406 Q34.175,27.9844 33.8313,28.3906 Q33.3313,28.9688 32.5344,29.2969 Q31.4563,29.75 30.1594,29.75 Q28.6438,29.75 27.4406,29.125 Q26.4563,28.625 25.7688,27.5547 Q25.0813,26.4844 25.0813,25.2031 L25.0813,24.0469 Q25.0813,22.7188 25.6984,21.5703 Q26.3156,20.4219 27.4094,19.8047 Q28.5031,19.1875 29.7375,19.1875 Q30.4719,19.1875 31.1203,19.3516 Q31.7688,19.5156 32.3156,19.875 Z "/><text fill="#000000" font-family="sans-serif" font-size="12" lengthAdjust="spacingAndGlyphs" textLength="94" x="45.45" y="28.9102">JavaSyntaxDemo</text><line style="stroke: #A80036; stroke-width: 1.5;" x1="7" x2="150" y1="40" y2="40"/><rect fill="none" height="6" style="stroke: #C82930; stroke-width: 1.0;" width="6" x="14" y="49.418"/><text fill="#000000" font-family="sans-serif" font-size="11" lengthAdjust="spacingAndGlyphs" textLength="95" x="26" y="55.4189">String demoVersion</text><line style="stroke: #A80036; stroke-width: 1.5;" x1="7" x2="150" y1="61.8359" y2="61.8359"/><ellipse cx="17" cy="74.2539" fill="#84BE84" rx="3" ry="3" style="stroke: #038048; stroke-width: 1.0;"/><text fill="#000000" font-family="sans-serif" font-size="11" lengthAdjust="spacingAndGlyphs" textLength="92" x="26" y="77.2549">JavaSyntaxDemo()</text><ellipse cx="17" cy="88.0898" fill="#84BE84" rx="3" ry="3" style="stroke: #038048; stroke-width: 1.0;"/><text fill="#000000" font-family="sans-serif" font-size="11" lengthAdjust="spacingAndGlyphs" textLength="119" x="26" y="91.0908">String getDemoVersion()</text></g></svg>