<?xml version="1.0" encoding="UTF-8" standalone="yes"?><svg xmlns="http://www.w3.org/2000/svg" xmlns:xlink="http://www.w3.org/1999/xlink" height="320pt" style="width:727px;height:320px;" version="1.1" viewBox="0 0 727 320" width="727pt"><defs><filter height="300%" id="f1" width="300%" x="-1" y="-1"><feGaussianBlur result="blurOut" stdDeviation="2.0"/><feColorMatrix in="blurOut" result="blurOut2" type="matrix" values="0 0 0 0 0 0 0 0 0 0 0 0 0 0 0 0 0 0 .4 0"/><feOffset dx="4.0" dy="4.0" in="blurOut2" result="blurOut3"/><feBlend in="SourceGraphic" in2="blurOut3" mode="normal"/></filter></defs><g><rect fill="#FEFECE" filter="url(#f1)" height="75.6719" style="stroke: #A80036; stroke-width: 1.5;" width="87" x="31" y="70"/><ellipse cx="46" cy="86" fill="#ADD1B2" rx="11" ry="11" style="stroke: #A80036; stroke-width: 1.0;"/><path d="M48.7656,81.875 Q48.9219,81.6563 49.1094,81.5469 Q49.2969,81.4375 49.5156,81.4375 Q49.8906,81.4375 50.125,81.6953 Q50.3594,81.9531 50.3594,82.5625 L50.3594,84.0156 Q50.3594,84.625 50.125,84.8906 Q49.8906,85.1563 49.5156,85.1563 Q49.1719,85.1563 48.9688,84.9531 Q48.7656,84.7656 48.6563,84.25 Q48.6094,83.8906 48.4219,83.7031 Q48.0938,83.3281 47.4844,83.1094 Q46.875,82.8906 46.25,82.8906 Q45.4844,82.8906 44.8516,83.2188 Q44.2188,83.5469 43.7266,84.2969 Q43.2344,85.0469 43.2344,86.0781 L43.2344,87.1719 Q43.2344,88.4063 44.125,89.2266 Q45.0156,90.0469 46.6094,90.0469 Q47.5469,90.0469 48.2031,89.7969 Q48.5938,89.6406 49.0156,89.2031 Q49.2813,88.9375 49.4297,88.8594 Q49.5781,88.7813 49.7813,88.7813 Q50.1094,88.7813 50.3672,89.0391 Q50.625,89.2969 50.625,89.6406 Q50.625,89.9844 50.2813,90.3906 Q49.7813,90.9688 48.9844,91.2969 Q47.9063,91.75 46.6094,91.75 Q45.0938,91.75 43.8906,91.125 Q42.9063,90.625 42.2188,89.5547 Q41.5313,88.4844 41.5313,87.2031 L41.5313,86.0469 Q41.5313,84.7188 42.1484,83.5703 Q42.7656,82.4219 43.8594,81.8047 Q44.9531,81.1875 46.1875,81.1875 Q46.9219,81.1875 47.5703,81.3516 Q48.2188,81.5156 48.7656,81.875 Z "/><text fill="#000000" font-family="sans-serif" font-size="12" lengthAdjust="spacingAndGlyphs" textLength="55" x="60" y="90.9102">Customer</text><line style="stroke: #A80036; stroke-width: 1.5;" x1="32" x2="117" y1="102" y2="102"/><text fill="#000000" font-family="sans-serif" font-size="11" lengthAdjust="spacingAndGlyphs" textLength="26" x="37" y="117.4189">name</text><text fill="#000000" font-family="sans-serif" font-size="11" lengthAdjust="spacingAndGlyphs" textLength="40" x="37" y="131.2549">address</text><line style="stroke: #A80036; stroke-width: 1.5;" x1="32" x2="117" y1="137.6719" y2="137.6719"/><rect fill="#FEFECE" filter="url(#f1)" height="61.8359" style="stroke: #A80036; stroke-width: 1.5;" width="75" x="227" y="77"/><ellipse cx="242" cy="93" fill="#ADD1B2" rx="11" ry="11" style="stroke: #A80036; stroke-width: 1.0;"/><path d="M244.7656,88.875 Q244.9219,88.6563 245.1094,88.5469 Q245.2969,88.4375 245.5156,88.4375 Q245.8906,88.4375 246.125,88.6953 Q246.3594,88.9531 246.3594,89.5625 L246.3594,91.0156 Q246.3594,91.625 246.125,91.8906 Q245.8906,92.1563 245.5156,92.1563 Q245.1719,92.1563 244.9688,91.9531 Q244.7656,91.7656 244.6563,91.25 Q244.6094,90.8906 244.4219,90.7031 Q244.0938,90.3281 243.4844,90.1094 Q242.875,89.8906 242.25,89.8906 Q241.4844,89.8906 240.8516,90.2188 Q240.2188,90.5469 239.7266,91.2969 Q239.2344,92.0469 239.2344,93.0781 L239.2344,94.1719 Q239.2344,95.4063 240.125,96.2266 Q241.0156,97.0469 242.6094,97.0469 Q243.5469,97.0469 244.2031,96.7969 Q244.5938,96.6406 245.0156,96.2031 Q245.2813,95.9375 245.4297,95.8594 Q245.5781,95.7813 245.7813,95.7813 Q246.1094,95.7813 246.3672,96.0391 Q246.625,96.2969 246.625,96.6406 Q246.625,96.9844 246.2813,97.3906 Q245.7813,97.9688 244.9844,98.2969 Q243.9063,98.75 242.6094,98.75 Q241.0938,98.75 239.8906,98.125 Q238.9063,97.625 238.2188,96.5547 Q237.5313,95.4844 237.5313,94.2031 L237.5313,93.0469 Q237.5313,91.7188 238.1484,90.5703 Q238.7656,89.4219 239.8594,88.8047 Q240.9531,88.1875 242.1875,88.1875 Q242.9219,88.1875 243.5703,88.3516 Q244.2188,88.5156 244.7656,88.875 Z "/><text fill="#000000" font-family="sans-serif" font-size="12" lengthAdjust="spacingAndGlyphs" textLength="43" x="256" y="97.9102">Account</text><line style="stroke: #A80036; stroke-width: 1.5;" x1="228" x2="301" y1="109" y2="109"/><text fill="#000000" font-family="sans-serif" font-size="11" lengthAdjust="spacingAndGlyphs" textLength="38" x="233" y="124.4189">balance</text><line style="stroke: #A80036; stroke-width: 1.5;" x1="228" x2="301" y1="130.8359" y2="130.8359"/><rect fill="#FEFECE" filter="url(#f1)" height="48" style="stroke: #A80036; stroke-width: 1.5;" width="135" x="411" y="29"/><ellipse cx="426" cy="45" fill="#ADD1B2" rx="11" ry="11" style="stroke: #A80036; stroke-width: 1.0;"/><path d="M428.7656,40.875 Q428.9219,40.6563 429.1094,40.5469 Q429.2969,40.4375 429.5156,40.4375 Q429.8906,40.4375 430.125,40.6953 Q430.3594,40.9531 430.3594,41.5625 L430.3594,43.0156 Q430.3594,43.625 430.125,43.8906 Q429.8906,44.1563 429.5156,44.1563 Q429.1719,44.1563 428.9688,43.9531 Q428.7656,43.7656 428.6563,43.25 Q428.6094,42.8906 428.4219,42.7031 Q428.0938,42.3281 427.4844,42.1094 Q426.875,41.8906 426.25,41.8906 Q425.4844,41.8906 424.8516,42.2188 Q424.2188,42.5469 423.7266,43.2969 Q423.2344,44.0469 423.2344,45.0781 L423.2344,46.1719 Q423.2344,47.4063 424.125,48.2266 Q425.0156,49.0469 426.6094,49.0469 Q427.5469,49.0469 428.2031,48.7969 Q428.5938,48.6406 429.0156,48.2031 Q429.2813,47.9375 429.4297,47.8594 Q429.5781,47.7813 429.7813,47.7813 Q430.1094,47.7813 430.3672,48.0391 Q430.625,48.2969 430.625,48.6406 Q430.625,48.9844 430.2813,49.3906 Q429.7813,49.9688 428.9844,50.2969 Q427.9063,50.75 426.6094,50.75 Q425.0938,50.75 423.8906,50.125 Q422.9063,49.625 422.2188,48.5547 Q421.5313,47.4844 421.5313,46.2031 L421.5313,45.0469 Q421.5313,43.7188 422.1484,42.5703 Q422.7656,41.4219 423.8594,40.8047 Q424.9531,40.1875 426.1875,40.1875 Q426.9219,40.1875 427.5703,40.3516 Q428.2188,40.5156 428.7656,40.875 Z "/><text fill="#000000" font-family="sans-serif" font-size="12" lengthAdjust="spacingAndGlyphs" textLength="103" x="440" y="49.9102">InvestmentAccount</text><line style="stroke: #A80036; stroke-width: 1.5;" x1="412" x2="545" y1="61" y2="61"/><line style="stroke: #A80036; stroke-width: 1.5;" x1="412" x2="545" y1="69" y2="69"/><rect fill="#FEFECE" filter="url(#f1)" height="61.8359" style="stroke: #A80036; stroke-width: 1.5;" width="112" x="422" y="132"/><ellipse cx="437" cy="148" fill="#ADD1B2" rx="11" ry="11" style="stroke: #A80036; stroke-width: 1.0;"/><path d="M439.7656,143.875 Q439.9219,143.6563 440.1094,143.5469 Q440.2969,143.4375 440.5156,143.4375 Q440.8906,143.4375 441.125,143.6953 Q441.3594,143.9531 441.3594,144.5625 L441.3594,146.0156 Q441.3594,146.625 441.125,146.8906 Q440.8906,147.1563 440.5156,147.1563 Q440.1719,147.1563 439.9688,146.9531 Q439.7656,146.7656 439.6563,146.25 Q439.6094,145.8906 439.4219,145.7031 Q439.0938,145.3281 438.4844,145.1094 Q437.875,144.8906 437.25,144.8906 Q436.4844,144.8906 435.8516,145.2188 Q435.2188,145.5469 434.7266,146.2969 Q434.2344,147.0469 434.2344,148.0781 L434.2344,149.1719 Q434.2344,150.4063 435.125,151.2266 Q436.0156,152.0469 437.6094,152.0469 Q438.5469,152.0469 439.2031,151.7969 Q439.5938,151.6406 440.0156,151.2031 Q440.2813,150.9375 440.4297,150.8594 Q440.5781,150.7813 440.7813,150.7813 Q441.1094,150.7813 441.3672,151.0391 Q441.625,151.2969 441.625,151.6406 Q441.625,151.9844 441.2813,152.3906 Q440.7813,152.9688 439.9844,153.2969 Q438.9063,153.75 437.6094,153.75 Q436.0938,153.75 434.8906,153.125 Q433.9063,152.625 433.2188,151.5547 Q432.5313,150.4844 432.5313,149.2031 L432.5313,148.0469 Q432.5313,146.7188 433.1484,145.5703 Q433.7656,144.4219 434.8594,143.8047 Q435.9531,143.1875 437.1875,143.1875 Q437.9219,143.1875 438.5703,143.3516 Q439.2188,143.5156 439.7656,143.875 Z "/><text fill="#000000" font-family="sans-serif" font-size="12" lengthAdjust="spacingAndGlyphs" textLength="80" x="451" y="152.9102">SavingAccount</text><line style="stroke: #A80036; stroke-width: 1.5;" x1="423" x2="533" y1="164" y2="164"/><text fill="#000000" font-family="sans-serif" font-size="11" lengthAdjust="spacingAndGlyphs" textLength="62" x="428" y="179.4189">interrestRate</text><line style="stroke: #A80036; stroke-width: 1.5;" x1="423" x2="533" y1="185.8359" y2="185.8359"/><rect fill="#FEFECE" filter="url(#f1)" height="75.6719" style="stroke: #A80036; stroke-width: 1.5;" width="62" x="656" y="129"/><ellipse cx="671" cy="145" fill="#ADD1B2" rx="11" ry="11" style="stroke: #A80036; stroke-width: 1.0;"/><path d="M673.7656,140.875 Q673.9219,140.6563 674.1094,140.5469 Q674.2969,140.4375 674.5156,140.4375 Q674.8906,140.4375 675.125,140.6953 Q675.3594,140.9531 675.3594,141.5625 L675.3594,143.0156 Q675.3594,143.625 675.125,143.8906 Q674.8906,144.1563 674.5156,144.1563 Q674.1719,144.1563 673.9688,143.9531 Q673.7656,143.7656 673.6563,143.25 Q673.6094,142.8906 673.4219,142.7031 Q673.0938,142.3281 672.4844,142.1094 Q671.875,141.8906 671.25,141.8906 Q670.4844,141.8906 669.8516,142.2188 Q669.2188,142.5469 668.7266,143.2969 Q668.2344,144.0469 668.2344,145.0781 L668.2344,146.1719 Q668.2344,147.4063 669.125,148.2266 Q670.0156,149.0469 671.6094,149.0469 Q672.5469,149.0469 673.2031,148.7969 Q673.5938,148.6406 674.0156,148.2031 Q674.2813,147.9375 674.4297,147.8594 Q674.5781,147.7813 674.7813,147.7813 Q675.1094,147.7813 675.3672,148.0391 Q675.625,148.2969 675.625,148.6406 Q675.625,148.9844 675.2813,149.3906 Q674.7813,149.9688 673.9844,150.2969 Q672.9063,150.75 671.6094,150.75 Q670.0938,150.75 668.8906,150.125 Q667.9063,149.625 667.2188,148.5547 Q666.5313,147.4844 666.5313,146.2031 L666.5313,145.0469 Q666.5313,143.7188 667.1484,142.5703 Q667.7656,141.4219 668.8594,140.8047 Q669.9531,140.1875 671.1875,140.1875 Q671.9219,140.1875 672.5703,140.3516 Q673.2188,140.5156 673.7656,140.875 Z "/><text fill="#000000" font-family="sans-serif" font-size="12" lengthAdjust="spacingAndGlyphs" textLength="30" x="685" y="149.9102">Stock</text><line style="stroke: #A80036; stroke-width: 1.5;" x1="657" x2="717" y1="161" y2="161"/><text fill="#000000" font-family="sans-serif" font-size="11" lengthAdjust="spacingAndGlyphs" textLength="26" x="662" y="176.4189">ticker</text><text fill="#000000" font-family="sans-serif" font-size="11" lengthAdjust="spacingAndGlyphs" textLength="38" x="662" y="190.2549">quantity</text><line style="stroke: #A80036; stroke-width: 1.5;" x1="657" x2="717" y1="196.6719" y2="196.6719"/><rect fill="#FEFECE" filter="url(#f1)" height="61.8359" style="stroke: #A80036; stroke-width: 1.5;" width="93" x="432" y="250"/><ellipse cx="447" cy="266" fill="#ADD1B2" rx="11" ry="11" style="stroke: #A80036; stroke-width: 1.0;"/><path d="M449.7656,261.875 Q449.9219,261.6563 450.1094,261.5469 Q450.2969,261.4375 450.5156,261.4375 Q450.8906,261.4375 451.125,261.6953 Q451.3594,261.9531 451.3594,262.5625 L451.3594,264.0156 Q451.3594,264.625 451.125,264.8906 Q450.8906,265.1563 450.5156,265.1563 Q450.1719,265.1563 449.9688,264.9531 Q449.7656,264.7656 449.6563,264.25 Q449.6094,263.8906 449.4219,263.7031 Q449.0938,263.3281 448.4844,263.1094 Q447.875,262.8906 447.25,262.8906 Q446.4844,262.8906 445.8516,263.2188 Q445.2188,263.5469 444.7266,264.2969 Q444.2344,265.0469 444.2344,266.0781 L444.2344,267.1719 Q444.2344,268.4063 445.125,269.2266 Q446.0156,270.0469 447.6094,270.0469 Q448.5469,270.0469 449.2031,269.7969 Q449.5938,269.6406 450.0156,269.2031 Q450.2813,268.9375 450.4297,268.8594 Q450.5781,268.7813 450.7813,268.7813 Q451.1094,268.7813 451.3672,269.0391 Q451.625,269.2969 451.625,269.6406 Q451.625,269.9844 451.2813,270.3906 Q450.7813,270.9688 449.9844,271.2969 Q448.9063,271.75 447.6094,271.75 Q446.0938,271.75 444.8906,271.125 Q443.9063,270.625 443.2188,269.5547 Q442.5313,268.4844 442.5313,267.2031 L442.5313,266.0469 Q442.5313,264.7188 443.1484,263.5703 Q443.7656,262.4219 444.8594,261.8047 Q445.9531,261.1875 447.1875,261.1875 Q447.9219,261.1875 448.5703,261.3516 Q449.2188,261.5156 449.7656,261.875 Z "/><text fill="#000000" font-family="sans-serif" font-size="12" lengthAdjust="spacingAndGlyphs" textLength="61" x="461" y="270.9102">StockOrder</text><line style="stroke: #A80036; stroke-width: 1.5;" x1="433" x2="524" y1="282" y2="282"/><text fill="#000000" font-family="sans-serif" font-size="11" lengthAdjust="spacingAndGlyphs" textLength="56" x="438" y="297.4189">commission</text><line style="stroke: #A80036; stroke-width: 1.5;" x1="433" x2="524" y1="303.8359" y2="303.8359"/><path d="M322.001,93.472 C349.251,86.402 382.22,77.849 410.816,70.43 " fill="none" style="stroke: #A80036; stroke-width: 1.0;"/><polygon fill="none" points="323.561,100.298,302.444,98.545,320.045,86.747,323.561,100.298" style="stroke: #A80036; stroke-width: 1.0;"/><path d="M321.834,122.554 C352.735,130.609 391.003,140.584 421.802,148.612 " fill="none" style="stroke: #A80036; stroke-width: 1.0;"/><polygon fill="none" points="319.86,129.273,302.272,117.455,323.391,115.726,319.86,129.273" style="stroke: #A80036; stroke-width: 1.0;"/><path d="M118.191,108 C150.777,108 195.443,108 226.723,108 " fill="none" style="stroke: #A80036; stroke-width: 1.0;"/><text fill="#000000" font-family="sans-serif" font-size="13" lengthAdjust="spacingAndGlyphs" textLength="7" x="126.3573" y="124.9353">1</text><text fill="#000000" font-family="sans-serif" font-size="13" lengthAdjust="spacingAndGlyphs" textLength="20" x="198.8637" y="122.6564">1..*</text><path d="M523.436,77.037 C561.507,98.106 616.12,128.328 651.328,147.813 " fill="none" style="stroke: #A80036; stroke-width: 1.0;"/><polygon fill="#A80036" points="655.95,150.37,650.0112,142.5131,651.5749,147.9496,646.1385,149.5133,655.95,150.37" style="stroke: #A80036; stroke-width: 1.0;"/><text fill="#000000" font-family="sans-serif" font-size="13" lengthAdjust="spacingAndGlyphs" textLength="5" x="527.536" y="98.384">*</text><text fill="#000000" font-family="sans-serif" font-size="13" lengthAdjust="spacingAndGlyphs" textLength="5" x="642.8241" y="162.1553">*</text><path d="M525.208,255.9822 C563.179,234.9689 616.644,205.382 651.31,186.197 " fill="none" style="stroke: #A80036; stroke-width: 1.0;"/><polygon fill="#A80036" points="655.862,183.678,646.0507,184.5372,651.4875,186.0995,649.9252,191.5364,655.862,183.678" style="stroke: #A80036; stroke-width: 1.0;"/><text fill="#000000" font-family="sans-serif" font-size="13" lengthAdjust="spacingAndGlyphs" textLength="5" x="532.9806" y="264.1351">*</text><text fill="#000000" font-family="sans-serif" font-size="13" lengthAdjust="spacingAndGlyphs" textLength="7" x="641.0685" y="201.9421">1</text></g></svg>