<?xml version="1.0" encoding="UTF-8" standalone="yes"?><svg xmlns="http://www.w3.org/2000/svg" xmlns:xlink="http://www.w3.org/1999/xlink" height="184pt" style="width:274px;height:184px;" version="1.1" viewBox="0 0 274 184" width="274pt"><defs><filter height="300%" id="f1" width="300%" x="-1" y="-1"><feGaussianBlur result="blurOut" stdDeviation="2.0"/><feColorMatrix in="blurOut" result="blurOut2" type="matrix" values="0 0 0 0 0 0 0 0 0 0 0 0 0 0 0 0 0 0 .4 0"/><feOffset dx="4.0" dy="4.0" in="blurOut2" result="blurOut3"/><feBlend in="SourceGraphic" in2="blurOut3" mode="normal"/></filter></defs><g><ellipse cx="138.5" cy="20" fill="#000000" filter="url(#f1)" rx="10" ry="10" style="stroke: none; stroke-width: 1.0;"/><rect fill="#000000" filter="url(#f1)" height="6" rx="2.5" ry="2.5" style="stroke: #000000; stroke-width: 1.0;" width="257" x="10" y="50"/><rect fill="#FEFECE" filter="url(#f1)" height="35.0938" rx="12.5" ry="12.5" style="stroke: #A80036; stroke-width: 1.5;" width="57" x="24" y="76"/><text fill="#000000" font-family="sans-serif" font-size="12" lengthAdjust="spacingAndGlyphs" textLength="37" x="34" y="98.457">Create</text><rect fill="#FEFECE" filter="url(#f1)" height="35.0938" rx="12.5" ry="12.5" style="stroke: #A80036; stroke-width: 1.5;" width="60" x="109" y="76"/><text fill="#000000" font-family="sans-serif" font-size="12" lengthAdjust="spacingAndGlyphs" textLength="40" x="119" y="98.457">Update</text><rect fill="#FEFECE" filter="url(#f1)" height="35.0938" rx="12.5" ry="12.5" style="stroke: #A80036; stroke-width: 1.5;" width="56" x="197" y="76"/><text fill="#000000" font-family="sans-serif" font-size="12" lengthAdjust="spacingAndGlyphs" textLength="36" x="207" y="98.457">Delete</text><rect fill="#000000" filter="url(#f1)" height="6" rx="2.5" ry="2.5" style="stroke: #000000; stroke-width: 1.0;" width="257" x="10" y="131.0938"/><ellipse cx="138.5" cy="167.0938" fill="none" filter="url(#f1)" rx="10" ry="10" style="stroke: #000000; stroke-width: 1.0;"/><ellipse cx="139" cy="167.5938" fill="#000000" filter="url(#f1)" rx="6" ry="6" style="stroke: none; stroke-width: 1.0;"/><line style="stroke: #A80036; stroke-width: 1.5;" x1="52.5" x2="52.5" y1="56" y2="76"/><polygon fill="#A80036" points="48.5,66,52.5,76,56.5,66,52.5,70" style="stroke: #A80036; stroke-width: 1.0;"/><line style="stroke: #A80036; stroke-width: 1.5;" x1="52.5" x2="52.5" y1="111.0938" y2="131.0938"/><polygon fill="#A80036" points="48.5,121.0938,52.5,131.0938,56.5,121.0938,52.5,125.0938" style="stroke: #A80036; stroke-width: 1.0;"/><line style="stroke: #A80036; stroke-width: 1.5;" x1="139" x2="139" y1="56" y2="76"/><polygon fill="#A80036" points="135,66,139,76,143,66,139,70" style="stroke: #A80036; stroke-width: 1.0;"/><line style="stroke: #A80036; stroke-width: 1.5;" x1="139" x2="139" y1="111.0938" y2="131.0938"/><polygon fill="#A80036" points="135,121.0938,139,131.0938,143,121.0938,139,125.0938" style="stroke: #A80036; stroke-width: 1.0;"/><line style="stroke: #A80036; stroke-width: 1.5;" x1="225" x2="225" y1="56" y2="76"/><polygon fill="#A80036" points="221,66,225,76,229,66,225,70" style="stroke: #A80036; stroke-width: 1.0;"/><line style="stroke: #A80036; stroke-width: 1.5;" x1="225" x2="225" y1="111.0938" y2="131.0938"/><polygon fill="#A80036" points="221,121.0938,225,131.0938,229,121.0938,225,125.0938" style="stroke: #A80036; stroke-width: 1.0;"/><line style="stroke: #A80036; stroke-width: 1.5;" x1="138.5" x2="138.5" y1="30" y2="50"/><polygon fill="#A80036" points="134.5,40,138.5,50,142.5,40,138.5,44" style="stroke: #A80036; stroke-width: 1.0;"/><line style="stroke: #A80036; stroke-width: 1.5;" x1="138.5" x2="138.5" y1="137.0938" y2="157.0938"/><polygon fill="#A80036" points="134.5,147.0938,138.5,157.0938,142.5,147.0938,138.5,151.0938" style="stroke: #A80036; stroke-width: 1.0;"/></g></svg>