<?xml version="1.0" encoding="UTF-8" standalone="yes"?><svg xmlns="http://www.w3.org/2000/svg" xmlns:xlink="http://www.w3.org/1999/xlink" height="86pt" style="width:445px;height:86px;" version="1.1" viewBox="0 0 445 86" width="445pt"><defs><filter height="300%" id="f1" width="300%" x="-1" y="-1"><feGaussianBlur result="blurOut" stdDeviation="2.0"/><feColorMatrix in="blurOut" result="blurOut2" type="matrix" values="0 0 0 0 0 0 0 0 0 0 0 0 0 0 0 0 0 0 .4 0"/><feOffset dx="4.0" dy="4.0" in="blurOut2" result="blurOut3"/><feBlend in="SourceGraphic" in2="blurOut3" mode="normal"/></filter></defs><g><rect fill="#FEFECE" filter="url(#f1)" height="48" style="stroke: #A80036; stroke-width: 1.5;" width="60" x="206" y="29"/><ellipse cx="221" cy="45" fill="#ADD1B2" rx="11" ry="11" style="stroke: #A80036; stroke-width: 1.0;"/><path d="M223.7656,40.875 Q223.9219,40.6563 224.1094,40.5469 Q224.2969,40.4375 224.5156,40.4375 Q224.8906,40.4375 225.125,40.6953 Q225.3594,40.9531 225.3594,41.5625 L225.3594,43.0156 Q225.3594,43.625 225.125,43.8906 Q224.8906,44.1563 224.5156,44.1563 Q224.1719,44.1563 223.9688,43.9531 Q223.7656,43.7656 223.6563,43.25 Q223.6094,42.8906 223.4219,42.7031 Q223.0938,42.3281 222.4844,42.1094 Q221.875,41.8906 221.25,41.8906 Q220.4844,41.8906 219.8516,42.2188 Q219.2188,42.5469 218.7266,43.2969 Q218.2344,44.0469 218.2344,45.0781 L218.2344,46.1719 Q218.2344,47.4063 219.125,48.2266 Q220.0156,49.0469 221.6094,49.0469 Q222.5469,49.0469 223.2031,48.7969 Q223.5938,48.6406 224.0156,48.2031 Q224.2813,47.9375 224.4297,47.8594 Q224.5781,47.7813 224.7813,47.7813 Q225.1094,47.7813 225.3672,48.0391 Q225.625,48.2969 225.625,48.6406 Q225.625,48.9844 225.2813,49.3906 Q224.7813,49.9688 223.9844,50.2969 Q222.9063,50.75 221.6094,50.75 Q220.0938,50.75 218.8906,50.125 Q217.9063,49.625 217.2188,48.5547 Q216.5313,47.4844 216.5313,46.2031 L216.5313,45.0469 Q216.5313,43.7188 217.1484,42.5703 Q217.7656,41.4219 218.8594,40.8047 Q219.9531,40.1875 221.1875,40.1875 Q221.9219,40.1875 222.5703,40.3516 Q223.2188,40.5156 223.7656,40.875 Z "/><text fill="#000000" font-family="sans-serif" font-size="12" lengthAdjust="spacingAndGlyphs" textLength="28" x="235" y="49.9102">Book</text><line style="stroke: #A80036; stroke-width: 1.5;" x1="207" x2="265" y1="61" y2="61"/><line style="stroke: #A80036; stroke-width: 1.5;" x1="207" x2="265" y1="69" y2="69"/><rect fill="#FEFECE" filter="url(#f1)" height="48" style="stroke: #A80036; stroke-width: 1.5;" width="61" x="375" y="29"/><ellipse cx="390" cy="45" fill="#ADD1B2" rx="11" ry="11" style="stroke: #A80036; stroke-width: 1.0;"/><path d="M392.7656,40.875 Q392.9219,40.6563 393.1094,40.5469 Q393.2969,40.4375 393.5156,40.4375 Q393.8906,40.4375 394.125,40.6953 Q394.3594,40.9531 394.3594,41.5625 L394.3594,43.0156 Q394.3594,43.625 394.125,43.8906 Q393.8906,44.1563 393.5156,44.1563 Q393.1719,44.1563 392.9688,43.9531 Q392.7656,43.7656 392.6563,43.25 Q392.6094,42.8906 392.4219,42.7031 Q392.0938,42.3281 391.4844,42.1094 Q390.875,41.8906 390.25,41.8906 Q389.4844,41.8906 388.8516,42.2188 Q388.2188,42.5469 387.7266,43.2969 Q387.2344,44.0469 387.2344,45.0781 L387.2344,46.1719 Q387.2344,47.4063 388.125,48.2266 Q389.0156,49.0469 390.6094,49.0469 Q391.5469,49.0469 392.2031,48.7969 Q392.5938,48.6406 393.0156,48.2031 Q393.2813,47.9375 393.4297,47.8594 Q393.5781,47.7813 393.7813,47.7813 Q394.1094,47.7813 394.3672,48.0391 Q394.625,48.2969 394.625,48.6406 Q394.625,48.9844 394.2813,49.3906 Q393.7813,49.9688 392.9844,50.2969 Q391.9063,50.75 390.6094,50.75 Q389.0938,50.75 387.8906,50.125 Q386.9063,49.625 386.2188,48.5547 Q385.5313,47.4844 385.5313,46.2031 L385.5313,45.0469 Q385.5313,43.7188 386.1484,42.5703 Q386.7656,41.4219 387.8594,40.8047 Q388.9531,40.1875 390.1875,40.1875 Q390.9219,40.1875 391.5703,40.3516 Q392.2188,40.5156 392.7656,40.875 Z "/><text fill="#000000" font-family="sans-serif" font-size="12" lengthAdjust="spacingAndGlyphs" textLength="29" x="404" y="49.9102">Page</text><line style="stroke: #A80036; stroke-width: 1.5;" x1="376" x2="435" y1="61" y2="61"/><line style="stroke: #A80036; stroke-width: 1.5;" x1="376" x2="435" y1="69" y2="69"/><rect fill="#FEFECE" filter="url(#f1)" height="48" style="stroke: #A80036; stroke-width: 1.5;" width="64" x="32" y="29"/><ellipse cx="47" cy="45" fill="#ADD1B2" rx="11" ry="11" style="stroke: #A80036; stroke-width: 1.0;"/><path d="M49.7656,40.875 Q49.9219,40.6563 50.1094,40.5469 Q50.2969,40.4375 50.5156,40.4375 Q50.8906,40.4375 51.125,40.6953 Q51.3594,40.9531 51.3594,41.5625 L51.3594,43.0156 Q51.3594,43.625 51.125,43.8906 Q50.8906,44.1563 50.5156,44.1563 Q50.1719,44.1563 49.9688,43.9531 Q49.7656,43.7656 49.6563,43.25 Q49.6094,42.8906 49.4219,42.7031 Q49.0938,42.3281 48.4844,42.1094 Q47.875,41.8906 47.25,41.8906 Q46.4844,41.8906 45.8516,42.2188 Q45.2188,42.5469 44.7266,43.2969 Q44.2344,44.0469 44.2344,45.0781 L44.2344,46.1719 Q44.2344,47.4063 45.125,48.2266 Q46.0156,49.0469 47.6094,49.0469 Q48.5469,49.0469 49.2031,48.7969 Q49.5938,48.6406 50.0156,48.2031 Q50.2813,47.9375 50.4297,47.8594 Q50.5781,47.7813 50.7813,47.7813 Q51.1094,47.7813 51.3672,48.0391 Q51.625,48.2969 51.625,48.6406 Q51.625,48.9844 51.2813,49.3906 Q50.7813,49.9688 49.9844,50.2969 Q48.9063,50.75 47.6094,50.75 Q46.0938,50.75 44.8906,50.125 Q43.9063,49.625 43.2188,48.5547 Q42.5313,47.4844 42.5313,46.2031 L42.5313,45.0469 Q42.5313,43.7188 43.1484,42.5703 Q43.7656,41.4219 44.8594,40.8047 Q45.9531,40.1875 47.1875,40.1875 Q47.9219,40.1875 48.5703,40.3516 Q49.2188,40.5156 49.7656,40.875 Z "/><text fill="#000000" font-family="sans-serif" font-size="12" lengthAdjust="spacingAndGlyphs" textLength="32" x="61" y="49.9102">Cover</text><line style="stroke: #A80036; stroke-width: 1.5;" x1="33" x2="95" y1="61" y2="61"/><line style="stroke: #A80036; stroke-width: 1.5;" x1="33" x2="95" y1="69" y2="69"/><path d="M279.624,53 C309.389,53 348.393,53 374.941,53 " fill="none" style="stroke: #A80036; stroke-width: 1.0;"/><polygon fill="#A80036" points="266.263,53,272.263,57,278.263,53,272.263,49,266.263,53" style="stroke: #A80036; stroke-width: 1.0;"/><text fill="#000000" font-family="sans-serif" font-size="13" lengthAdjust="spacingAndGlyphs" textLength="7" x="274.0707" y="52.6873">1</text><text fill="#000000" font-family="sans-serif" font-size="13" lengthAdjust="spacingAndGlyphs" textLength="22" x="345.1179" y="67.747">1..n</text><path d="M96.1806,53 C123.279,53 162.775,53 192.716,53 " fill="none" style="stroke: #A80036; stroke-width: 1.0;"/><polygon fill="none" points="205.722,53,199.722,49,193.722,53,199.722,57,205.722,53" style="stroke: #A80036; stroke-width: 1.0;"/><text fill="#000000" font-family="sans-serif" font-size="13" lengthAdjust="spacingAndGlyphs" textLength="22" x="103.8721" y="52.9303">0..1</text><text fill="#000000" font-family="sans-serif" font-size="13" lengthAdjust="spacingAndGlyphs" textLength="7" x="191.3288" y="51.2865">1</text></g></svg>