<?xml version="1.0" encoding="UTF-8" standalone="yes"?><svg xmlns="http://www.w3.org/2000/svg" xmlns:xlink="http://www.w3.org/1999/xlink" height="360pt" style="width:743px;height:360px;" version="1.1" viewBox="0 0 743 360" width="743pt"><defs><filter height="300%" id="f1" width="300%" x="-1" y="-1"><feGaussianBlur result="blurOut" stdDeviation="2.0"/><feColorMatrix in="blurOut" result="blurOut2" type="matrix" values="0 0 0 0 0 0 0 0 0 0 0 0 0 0 0 0 0 0 .4 0"/><feOffset dx="4.0" dy="4.0" in="blurOut2" result="blurOut3"/><feBlend in="SourceGraphic" in2="blurOut3" mode="normal"/></filter></defs><g><rect fill="#FEFECE" filter="url(#f1)" height="48" style="stroke: #A80036; stroke-width: 1.5;" width="39" x="269.25" y="30"/><ellipse cx="284.25" cy="46" fill="#ADD1B2" rx="11" ry="11" style="stroke: #A80036; stroke-width: 1.0;"/><path d="M287.0156,41.875 Q287.1719,41.6563 287.3594,41.5469 Q287.5469,41.4375 287.7656,41.4375 Q288.1406,41.4375 288.375,41.6953 Q288.6094,41.9531 288.6094,42.5625 L288.6094,44.0156 Q288.6094,44.625 288.375,44.8906 Q288.1406,45.1563 287.7656,45.1563 Q287.4219,45.1563 287.2188,44.9531 Q287.0156,44.7656 286.9063,44.25 Q286.8594,43.8906 286.6719,43.7031 Q286.3438,43.3281 285.7344,43.1094 Q285.125,42.8906 284.5,42.8906 Q283.7344,42.8906 283.1016,43.2188 Q282.4688,43.5469 281.9766,44.2969 Q281.4844,45.0469 281.4844,46.0781 L281.4844,47.1719 Q281.4844,48.4063 282.375,49.2266 Q283.2656,50.0469 284.8594,50.0469 Q285.7969,50.0469 286.4531,49.7969 Q286.8438,49.6406 287.2656,49.2031 Q287.5313,48.9375 287.6797,48.8594 Q287.8281,48.7813 288.0313,48.7813 Q288.3594,48.7813 288.6172,49.0391 Q288.875,49.2969 288.875,49.6406 Q288.875,49.9844 288.5313,50.3906 Q288.0313,50.9688 287.2344,51.2969 Q286.1563,51.75 284.8594,51.75 Q283.3438,51.75 282.1406,51.125 Q281.1563,50.625 280.4688,49.5547 Q279.7813,48.4844 279.7813,47.2031 L279.7813,46.0469 Q279.7813,44.7188 280.3984,43.5703 Q281.0156,42.4219 282.1094,41.8047 Q283.2031,41.1875 284.4375,41.1875 Q285.1719,41.1875 285.8203,41.3516 Q286.4688,41.5156 287.0156,41.875 Z "/><text fill="#000000" font-family="sans-serif" font-size="12" lengthAdjust="spacingAndGlyphs" textLength="7" x="298.25" y="50.9102">A</text><line style="stroke: #A80036; stroke-width: 1.5;" x1="270.25" x2="307.25" y1="62" y2="62"/><line style="stroke: #A80036; stroke-width: 1.5;" x1="270.25" x2="307.25" y1="70" y2="70"/><rect fill="#FEFECE" filter="url(#f1)" height="48" style="stroke: #A80036; stroke-width: 1.5;" width="40" x="269.25" y="180"/><ellipse cx="284.25" cy="196" fill="#ADD1B2" rx="11" ry="11" style="stroke: #A80036; stroke-width: 1.0;"/><path d="M287.0156,191.875 Q287.1719,191.6563 287.3594,191.5469 Q287.5469,191.4375 287.7656,191.4375 Q288.1406,191.4375 288.375,191.6953 Q288.6094,191.9531 288.6094,192.5625 L288.6094,194.0156 Q288.6094,194.625 288.375,194.8906 Q288.1406,195.1563 287.7656,195.1563 Q287.4219,195.1563 287.2188,194.9531 Q287.0156,194.7656 286.9063,194.25 Q286.8594,193.8906 286.6719,193.7031 Q286.3438,193.3281 285.7344,193.1094 Q285.125,192.8906 284.5,192.8906 Q283.7344,192.8906 283.1016,193.2188 Q282.4688,193.5469 281.9766,194.2969 Q281.4844,195.0469 281.4844,196.0781 L281.4844,197.1719 Q281.4844,198.4063 282.375,199.2266 Q283.2656,200.0469 284.8594,200.0469 Q285.7969,200.0469 286.4531,199.7969 Q286.8438,199.6406 287.2656,199.2031 Q287.5313,198.9375 287.6797,198.8594 Q287.8281,198.7813 288.0313,198.7813 Q288.3594,198.7813 288.6172,199.0391 Q288.875,199.2969 288.875,199.6406 Q288.875,199.9844 288.5313,200.3906 Q288.0313,200.9688 287.2344,201.2969 Q286.1563,201.75 284.8594,201.75 Q283.3438,201.75 282.1406,201.125 Q281.1563,200.625 280.4688,199.5547 Q279.7813,198.4844 279.7813,197.2031 L279.7813,196.0469 Q279.7813,194.7188 280.3984,193.5703 Q281.0156,192.4219 282.1094,191.8047 Q283.2031,191.1875 284.4375,191.1875 Q285.1719,191.1875 285.8203,191.3516 Q286.4688,191.5156 287.0156,191.875 Z "/><text fill="#000000" font-family="sans-serif" font-size="12" lengthAdjust="spacingAndGlyphs" textLength="8" x="298.25" y="200.9102">B</text><line style="stroke: #A80036; stroke-width: 1.5;" x1="270.25" x2="308.25" y1="212" y2="212"/><line style="stroke: #A80036; stroke-width: 1.5;" x1="270.25" x2="308.25" y1="220" y2="220"/><polygon fill="#FBFB77" filter="url(#f1)" points="220,308.5,220,351.2031,359,351.2031,359,318.5,349,308.5,220,308.5" style="stroke: #A80036; stroke-width: 1.0;"/><polygon fill="#FBFB77" points="220,308.5,220,351.2031,359,351.2031,359,318.5,349,308.5,293.25,308.5,289.25,228.033,285.25,308.5,220,308.5" style="stroke: #A80036; stroke-width: 1.0;"/><line style="stroke: #A80036; stroke-width: 1.0;" x1="349" x2="349" y1="308.5" y2="318.5"/><line style="stroke: #A80036; stroke-width: 1.0;" x1="359" x2="349" y1="318.5" y2="318.5"/><text fill="#000000" font-family="sans-serif" font-size="13" lengthAdjust="spacingAndGlyphs" textLength="106" x="226" y="326.9951">A has 0 or more B</text><text fill="#000000" font-family="sans-serif" font-size="13" lengthAdjust="spacingAndGlyphs" textLength="118" x="226" y="343.3467">B has exactly one A</text><rect fill="#FEFECE" filter="url(#f1)" height="48" style="stroke: #A80036; stroke-width: 1.5;" width="41" x="168" y="179"/><ellipse cx="183" cy="195" fill="#ADD1B2" rx="11" ry="11" style="stroke: #A80036; stroke-width: 1.0;"/><path d="M185.7656,190.875 Q185.9219,190.6563 186.1094,190.5469 Q186.2969,190.4375 186.5156,190.4375 Q186.8906,190.4375 187.125,190.6953 Q187.3594,190.9531 187.3594,191.5625 L187.3594,193.0156 Q187.3594,193.625 187.125,193.8906 Q186.8906,194.1563 186.5156,194.1563 Q186.1719,194.1563 185.9688,193.9531 Q185.7656,193.7656 185.6563,193.25 Q185.6094,192.8906 185.4219,192.7031 Q185.0938,192.3281 184.4844,192.1094 Q183.875,191.8906 183.25,191.8906 Q182.4844,191.8906 181.8516,192.2188 Q181.2188,192.5469 180.7266,193.2969 Q180.2344,194.0469 180.2344,195.0781 L180.2344,196.1719 Q180.2344,197.4063 181.125,198.2266 Q182.0156,199.0469 183.6094,199.0469 Q184.5469,199.0469 185.2031,198.7969 Q185.5938,198.6406 186.0156,198.2031 Q186.2813,197.9375 186.4297,197.8594 Q186.5781,197.7813 186.7813,197.7813 Q187.1094,197.7813 187.3672,198.0391 Q187.625,198.2969 187.625,198.6406 Q187.625,198.9844 187.2813,199.3906 Q186.7813,199.9688 185.9844,200.2969 Q184.9063,200.75 183.6094,200.75 Q182.0938,200.75 180.8906,200.125 Q179.9063,199.625 179.2188,198.5547 Q178.5313,197.4844 178.5313,196.2031 L178.5313,195.0469 Q178.5313,193.7188 179.1484,192.5703 Q179.7656,191.4219 180.8594,190.8047 Q181.9531,190.1875 183.1875,190.1875 Q183.9219,190.1875 184.5703,190.3516 Q185.2188,190.5156 185.7656,190.875 Z "/><text fill="#000000" font-family="sans-serif" font-size="12" lengthAdjust="spacingAndGlyphs" textLength="9" x="197" y="199.9102">H</text><line style="stroke: #A80036; stroke-width: 1.5;" x1="169" x2="208" y1="211" y2="211"/><line style="stroke: #A80036; stroke-width: 1.5;" x1="169" x2="208" y1="219" y2="219"/><rect fill="#FEFECE" filter="url(#f1)" height="48" style="stroke: #A80036; stroke-width: 1.5;" width="41" x="168" y="29"/><ellipse cx="183" cy="45" fill="#ADD1B2" rx="11" ry="11" style="stroke: #A80036; stroke-width: 1.0;"/><path d="M185.7656,40.875 Q185.9219,40.6563 186.1094,40.5469 Q186.2969,40.4375 186.5156,40.4375 Q186.8906,40.4375 187.125,40.6953 Q187.3594,40.9531 187.3594,41.5625 L187.3594,43.0156 Q187.3594,43.625 187.125,43.8906 Q186.8906,44.1563 186.5156,44.1563 Q186.1719,44.1563 185.9688,43.9531 Q185.7656,43.7656 185.6563,43.25 Q185.6094,42.8906 185.4219,42.7031 Q185.0938,42.3281 184.4844,42.1094 Q183.875,41.8906 183.25,41.8906 Q182.4844,41.8906 181.8516,42.2188 Q181.2188,42.5469 180.7266,43.2969 Q180.2344,44.0469 180.2344,45.0781 L180.2344,46.1719 Q180.2344,47.4063 181.125,48.2266 Q182.0156,49.0469 183.6094,49.0469 Q184.5469,49.0469 185.2031,48.7969 Q185.5938,48.6406 186.0156,48.2031 Q186.2813,47.9375 186.4297,47.8594 Q186.5781,47.7813 186.7813,47.7813 Q187.1094,47.7813 187.3672,48.0391 Q187.625,48.2969 187.625,48.6406 Q187.625,48.9844 187.2813,49.3906 Q186.7813,49.9688 185.9844,50.2969 Q184.9063,50.75 183.6094,50.75 Q182.0938,50.75 180.8906,50.125 Q179.9063,49.625 179.2188,48.5547 Q178.5313,47.4844 178.5313,46.2031 L178.5313,45.0469 Q178.5313,43.7188 179.1484,42.5703 Q179.7656,41.4219 180.8594,40.8047 Q181.9531,40.1875 183.1875,40.1875 Q183.9219,40.1875 184.5703,40.3516 Q185.2188,40.5156 185.7656,40.875 Z "/><text fill="#000000" font-family="sans-serif" font-size="12" lengthAdjust="spacingAndGlyphs" textLength="9" x="197" y="49.9102">G</text><line style="stroke: #A80036; stroke-width: 1.5;" x1="169" x2="208" y1="61" y2="61"/><line style="stroke: #A80036; stroke-width: 1.5;" x1="169" x2="208" y1="69" y2="69"/><polygon fill="#FBFB77" filter="url(#f1)" points="6,31.5,6,74.2031,133,74.2031,133,41.5,123,31.5,6,31.5" style="stroke: #A80036; stroke-width: 1.0;"/><polygon fill="#FBFB77" points="6,31.5,6,74.2031,133,74.2031,133,57,167.939,53,133,49,133,41.5,123,31.5,6,31.5" style="stroke: #A80036; stroke-width: 1.0;"/><line style="stroke: #A80036; stroke-width: 1.0;" x1="123" x2="123" y1="31.5" y2="41.5"/><line style="stroke: #A80036; stroke-width: 1.0;" x1="133" x2="123" y1="41.5" y2="41.5"/><text fill="#000000" font-family="sans-serif" font-size="13" lengthAdjust="spacingAndGlyphs" textLength="92" x="12" y="49.9951">H specializes G</text><text fill="#000000" font-family="sans-serif" font-size="13" lengthAdjust="spacingAndGlyphs" textLength="106" x="12" y="66.3467">(H inherits from G)</text><rect fill="#FEFECE" filter="url(#f1)" height="48" style="stroke: #A80036; stroke-width: 1.5;" width="41" x="459" y="29"/><ellipse cx="474" cy="45" fill="#ADD1B2" rx="11" ry="11" style="stroke: #A80036; stroke-width: 1.0;"/><path d="M476.7656,40.875 Q476.9219,40.6563 477.1094,40.5469 Q477.2969,40.4375 477.5156,40.4375 Q477.8906,40.4375 478.125,40.6953 Q478.3594,40.9531 478.3594,41.5625 L478.3594,43.0156 Q478.3594,43.625 478.125,43.8906 Q477.8906,44.1563 477.5156,44.1563 Q477.1719,44.1563 476.9688,43.9531 Q476.7656,43.7656 476.6563,43.25 Q476.6094,42.8906 476.4219,42.7031 Q476.0938,42.3281 475.4844,42.1094 Q474.875,41.8906 474.25,41.8906 Q473.4844,41.8906 472.8516,42.2188 Q472.2188,42.5469 471.7266,43.2969 Q471.2344,44.0469 471.2344,45.0781 L471.2344,46.1719 Q471.2344,47.4063 472.125,48.2266 Q473.0156,49.0469 474.6094,49.0469 Q475.5469,49.0469 476.2031,48.7969 Q476.5938,48.6406 477.0156,48.2031 Q477.2813,47.9375 477.4297,47.8594 Q477.5781,47.7813 477.7813,47.7813 Q478.1094,47.7813 478.3672,48.0391 Q478.625,48.2969 478.625,48.6406 Q478.625,48.9844 478.2813,49.3906 Q477.7813,49.9688 476.9844,50.2969 Q475.9063,50.75 474.6094,50.75 Q473.0938,50.75 471.8906,50.125 Q470.9063,49.625 470.2188,48.5547 Q469.5313,47.4844 469.5313,46.2031 L469.5313,45.0469 Q469.5313,43.7188 470.1484,42.5703 Q470.7656,41.4219 471.8594,40.8047 Q472.9531,40.1875 474.1875,40.1875 Q474.9219,40.1875 475.5703,40.3516 Q476.2188,40.5156 476.7656,40.875 Z "/><text fill="#000000" font-family="sans-serif" font-size="12" lengthAdjust="spacingAndGlyphs" textLength="9" x="488" y="49.9102">C</text><line style="stroke: #A80036; stroke-width: 1.5;" x1="460" x2="499" y1="61" y2="61"/><line style="stroke: #A80036; stroke-width: 1.5;" x1="460" x2="499" y1="69" y2="69"/><rect fill="#FEFECE" filter="url(#f1)" height="48" style="stroke: #A80036; stroke-width: 1.5;" width="41" x="459" y="179"/><ellipse cx="474" cy="195" fill="#ADD1B2" rx="11" ry="11" style="stroke: #A80036; stroke-width: 1.0;"/><path d="M476.7656,190.875 Q476.9219,190.6563 477.1094,190.5469 Q477.2969,190.4375 477.5156,190.4375 Q477.8906,190.4375 478.125,190.6953 Q478.3594,190.9531 478.3594,191.5625 L478.3594,193.0156 Q478.3594,193.625 478.125,193.8906 Q477.8906,194.1563 477.5156,194.1563 Q477.1719,194.1563 476.9688,193.9531 Q476.7656,193.7656 476.6563,193.25 Q476.6094,192.8906 476.4219,192.7031 Q476.0938,192.3281 475.4844,192.1094 Q474.875,191.8906 474.25,191.8906 Q473.4844,191.8906 472.8516,192.2188 Q472.2188,192.5469 471.7266,193.2969 Q471.2344,194.0469 471.2344,195.0781 L471.2344,196.1719 Q471.2344,197.4063 472.125,198.2266 Q473.0156,199.0469 474.6094,199.0469 Q475.5469,199.0469 476.2031,198.7969 Q476.5938,198.6406 477.0156,198.2031 Q477.2813,197.9375 477.4297,197.8594 Q477.5781,197.7813 477.7813,197.7813 Q478.1094,197.7813 478.3672,198.0391 Q478.625,198.2969 478.625,198.6406 Q478.625,198.9844 478.2813,199.3906 Q477.7813,199.9688 476.9844,200.2969 Q475.9063,200.75 474.6094,200.75 Q473.0938,200.75 471.8906,200.125 Q470.9063,199.625 470.2188,198.5547 Q469.5313,197.4844 469.5313,196.2031 L469.5313,195.0469 Q469.5313,193.7188 470.1484,192.5703 Q470.7656,191.4219 471.8594,190.8047 Q472.9531,190.1875 474.1875,190.1875 Q474.9219,190.1875 475.5703,190.3516 Q476.2188,190.5156 476.7656,190.875 Z "/><text fill="#000000" font-family="sans-serif" font-size="12" lengthAdjust="spacingAndGlyphs" textLength="9" x="488" y="199.9102">D</text><line style="stroke: #A80036; stroke-width: 1.5;" x1="460" x2="499" y1="211" y2="211"/><line style="stroke: #A80036; stroke-width: 1.5;" x1="460" x2="499" y1="219" y2="219"/><polygon fill="#FBFB77" filter="url(#f1)" points="394,317,394,343.3516,565,343.3516,565,327,555,317,394,317" style="stroke: #A80036; stroke-width: 1.0;"/><polygon fill="#FBFB77" points="394,317,394,343.3516,565,343.3516,565,327,555,317,483.25,317,479.25,227.219,475.25,317,394,317" style="stroke: #A80036; stroke-width: 1.0;"/><line style="stroke: #A80036; stroke-width: 1.0;" x1="555" x2="555" y1="317" y2="327"/><line style="stroke: #A80036; stroke-width: 1.0;" x1="565" x2="555" y1="327" y2="327"/><text fill="#000000" font-family="sans-serif" font-size="13" lengthAdjust="spacingAndGlyphs" textLength="150" x="400" y="335.4951">C has an aggregation of D</text><rect fill="#FEFECE" filter="url(#f1)" height="48" style="stroke: #A80036; stroke-width: 1.5;" width="40" x="647.25" y="29"/><ellipse cx="662.25" cy="45" fill="#ADD1B2" rx="11" ry="11" style="stroke: #A80036; stroke-width: 1.0;"/><path d="M665.0156,40.875 Q665.1719,40.6563 665.3594,40.5469 Q665.5469,40.4375 665.7656,40.4375 Q666.1406,40.4375 666.375,40.6953 Q666.6094,40.9531 666.6094,41.5625 L666.6094,43.0156 Q666.6094,43.625 666.375,43.8906 Q666.1406,44.1563 665.7656,44.1563 Q665.4219,44.1563 665.2188,43.9531 Q665.0156,43.7656 664.9063,43.25 Q664.8594,42.8906 664.6719,42.7031 Q664.3438,42.3281 663.7344,42.1094 Q663.125,41.8906 662.5,41.8906 Q661.7344,41.8906 661.1016,42.2188 Q660.4688,42.5469 659.9766,43.2969 Q659.4844,44.0469 659.4844,45.0781 L659.4844,46.1719 Q659.4844,47.4063 660.375,48.2266 Q661.2656,49.0469 662.8594,49.0469 Q663.7969,49.0469 664.4531,48.7969 Q664.8438,48.6406 665.2656,48.2031 Q665.5313,47.9375 665.6797,47.8594 Q665.8281,47.7813 666.0313,47.7813 Q666.3594,47.7813 666.6172,48.0391 Q666.875,48.2969 666.875,48.6406 Q666.875,48.9844 666.5313,49.3906 Q666.0313,49.9688 665.2344,50.2969 Q664.1563,50.75 662.8594,50.75 Q661.3438,50.75 660.1406,50.125 Q659.1563,49.625 658.4688,48.5547 Q657.7813,47.4844 657.7813,46.2031 L657.7813,45.0469 Q657.7813,43.7188 658.3984,42.5703 Q659.0156,41.4219 660.1094,40.8047 Q661.2031,40.1875 662.4375,40.1875 Q663.1719,40.1875 663.8203,40.3516 Q664.4688,40.5156 665.0156,40.875 Z "/><text fill="#000000" font-family="sans-serif" font-size="12" lengthAdjust="spacingAndGlyphs" textLength="8" x="676.25" y="49.9102">E</text><line style="stroke: #A80036; stroke-width: 1.5;" x1="648.25" x2="686.25" y1="61" y2="61"/><line style="stroke: #A80036; stroke-width: 1.5;" x1="648.25" x2="686.25" y1="69" y2="69"/><rect fill="#FEFECE" filter="url(#f1)" height="48" style="stroke: #A80036; stroke-width: 1.5;" width="39" x="648" y="179"/><ellipse cx="663" cy="195" fill="#ADD1B2" rx="11" ry="11" style="stroke: #A80036; stroke-width: 1.0;"/><path d="M665.7656,190.875 Q665.9219,190.6563 666.1094,190.5469 Q666.2969,190.4375 666.5156,190.4375 Q666.8906,190.4375 667.125,190.6953 Q667.3594,190.9531 667.3594,191.5625 L667.3594,193.0156 Q667.3594,193.625 667.125,193.8906 Q666.8906,194.1563 666.5156,194.1563 Q666.1719,194.1563 665.9688,193.9531 Q665.7656,193.7656 665.6563,193.25 Q665.6094,192.8906 665.4219,192.7031 Q665.0938,192.3281 664.4844,192.1094 Q663.875,191.8906 663.25,191.8906 Q662.4844,191.8906 661.8516,192.2188 Q661.2188,192.5469 660.7266,193.2969 Q660.2344,194.0469 660.2344,195.0781 L660.2344,196.1719 Q660.2344,197.4063 661.125,198.2266 Q662.0156,199.0469 663.6094,199.0469 Q664.5469,199.0469 665.2031,198.7969 Q665.5938,198.6406 666.0156,198.2031 Q666.2813,197.9375 666.4297,197.8594 Q666.5781,197.7813 666.7813,197.7813 Q667.1094,197.7813 667.3672,198.0391 Q667.625,198.2969 667.625,198.6406 Q667.625,198.9844 667.2813,199.3906 Q666.7813,199.9688 665.9844,200.2969 Q664.9063,200.75 663.6094,200.75 Q662.0938,200.75 660.8906,200.125 Q659.9063,199.625 659.2188,198.5547 Q658.5313,197.4844 658.5313,196.2031 L658.5313,195.0469 Q658.5313,193.7188 659.1484,192.5703 Q659.7656,191.4219 660.8594,190.8047 Q661.9531,190.1875 663.1875,190.1875 Q663.9219,190.1875 664.5703,190.3516 Q665.2188,190.5156 665.7656,190.875 Z "/><text fill="#000000" font-family="sans-serif" font-size="12" lengthAdjust="spacingAndGlyphs" textLength="7" x="677" y="199.9102">F</text><line style="stroke: #A80036; stroke-width: 1.5;" x1="649" x2="686" y1="211" y2="211"/><line style="stroke: #A80036; stroke-width: 1.5;" x1="649" x2="686" y1="219" y2="219"/><polygon fill="#FBFB77" filter="url(#f1)" points="600.25,317,600.25,343.3516,734.25,343.3516,734.25,327,724.25,317,600.25,317" style="stroke: #A80036; stroke-width: 1.0;"/><polygon fill="#FBFB77" points="600.25,317,600.25,343.3516,734.25,343.3516,734.25,327,724.25,317,671.25,317,667.25,227.219,663.25,317,600.25,317" style="stroke: #A80036; stroke-width: 1.0;"/><line style="stroke: #A80036; stroke-width: 1.0;" x1="724.25" x2="724.25" y1="317" y2="327"/><line style="stroke: #A80036; stroke-width: 1.0;" x1="734.25" x2="724.25" y1="327" y2="327"/><text fill="#000000" font-family="sans-serif" font-size="13" lengthAdjust="spacingAndGlyphs" textLength="113" x="606.25" y="335.4951">E is composed of F</text><path d="M289.25,78.125 C289.25,105.767 289.25,151.764 289.25,179.549 " fill="none" style="stroke: #A80036; stroke-width: 1.0;"/><text fill="#000000" font-family="sans-serif" font-size="13" lengthAdjust="spacingAndGlyphs" textLength="7" x="274.65" y="99.8664">1</text><text fill="#000000" font-family="sans-serif" font-size="13" lengthAdjust="spacingAndGlyphs" textLength="5" x="282.5281" y="169.1811">*</text><path d="M188.25,97.517 C188.25,124.019 188.25,156.842 188.25,178.549 " fill="none" style="stroke: #A80036; stroke-width: 1.0;"/><polygon fill="none" points="181.25,97.125,188.25,77.125,195.25,97.125,181.25,97.125" style="stroke: #A80036; stroke-width: 1.0;"/><path d="M479.25,90.15 C479.25,117.682 479.25,154.78 479.25,178.549 " fill="none" style="stroke: #A80036; stroke-width: 1.0;"/><polygon fill="none" points="479.25,77.125,475.25,83.125,479.25,89.125,483.25,83.125,479.25,77.125" style="stroke: #A80036; stroke-width: 1.0;"/><path d="M667.25,90.15 C667.25,117.682 667.25,154.78 667.25,178.549 " fill="none" style="stroke: #A80036; stroke-width: 1.0;"/><polygon fill="#A80036" points="667.25,77.125,663.25,83.125,667.25,89.125,671.25,83.125,667.25,77.125" style="stroke: #A80036; stroke-width: 1.0;"/></g></svg>