<?xml version="1.0" encoding="UTF-8" standalone="yes"?><svg xmlns="http://www.w3.org/2000/svg" xmlns:xlink="http://www.w3.org/1999/xlink" height="175pt" style="width:139px;height:175px;" version="1.1" viewBox="0 0 139 175" width="139pt"><defs><filter height="300%" id="f1" width="300%" x="-1" y="-1"><feGaussianBlur result="blurOut" stdDeviation="2.0"/><feColorMatrix in="blurOut" result="blurOut2" type="matrix" values="0 0 0 0 0 0 0 0 0 0 0 0 0 0 0 0 0 0 .4 0"/><feOffset dx="4.0" dy="4.0" in="blurOut2" result="blurOut3"/><feBlend in="SourceGraphic" in2="blurOut3" mode="normal"/></filter></defs><g><ellipse cx="74" cy="20" fill="#000000" filter="url(#f1)" rx="10" ry="10" style="stroke: none; stroke-width: 1.0;"/><polygon fill="#FEFECE" filter="url(#f1)" points="62,50,86,50,98,62,86,74,62,74,50,62,62,50" style="stroke: #A80036; stroke-width: 1.5;"/><text fill="#000000" font-family="sans-serif" font-size="11" lengthAdjust="spacingAndGlyphs" textLength="21" x="63.5" y="66.501">gate</text><text fill="#000000" font-family="sans-serif" font-size="11" lengthAdjust="spacingAndGlyphs" textLength="40" x="10" y="59.583">branch1</text><text fill="#000000" font-family="sans-serif" font-size="11" lengthAdjust="spacingAndGlyphs" textLength="40" x="98" y="59.583">branch2</text><polygon fill="#FEFECE" filter="url(#f1)" points="74,104,86,116,74,128,62,116,74,104" style="stroke: #A80036; stroke-width: 1.5;"/><ellipse cx="74" cy="158" fill="none" filter="url(#f1)" rx="10" ry="10" style="stroke: #000000; stroke-width: 1.0;"/><ellipse cx="74.5" cy="158.5" fill="#000000" filter="url(#f1)" rx="6" ry="6" style="stroke: none; stroke-width: 1.0;"/><line style="stroke: #A80036; stroke-width: 1.5;" x1="35" x2="50" y1="62" y2="62"/><line style="stroke: #A80036; stroke-width: 1.5;" x1="35" x2="35" y1="62" y2="94"/><polygon fill="#A80036" points="31,84,35,94,39,84,35,88" style="stroke: #A80036; stroke-width: 1.0;"/><line style="stroke: #A80036; stroke-width: 1.5;" x1="98" x2="113" y1="62" y2="62"/><line style="stroke: #A80036; stroke-width: 1.5;" x1="113" x2="113" y1="62" y2="94"/><polygon fill="#A80036" points="109,84,113,94,117,84,113,88" style="stroke: #A80036; stroke-width: 1.0;"/><line style="stroke: #A80036; stroke-width: 1.5;" x1="35" x2="35" y1="94" y2="116"/><line style="stroke: #A80036; stroke-width: 1.5;" x1="35" x2="62" y1="116" y2="116"/><polygon fill="#A80036" points="52,112,62,116,52,120,56,116" style="stroke: #A80036; stroke-width: 1.0;"/><line style="stroke: #A80036; stroke-width: 1.5;" x1="113" x2="113" y1="94" y2="116"/><line style="stroke: #A80036; stroke-width: 1.5;" x1="86" x2="113" y1="116" y2="116"/><polygon fill="#A80036" points="96,112,86,116,96,120,92,116" style="stroke: #A80036; stroke-width: 1.0;"/><line style="stroke: #A80036; stroke-width: 1.5;" x1="74" x2="74" y1="30" y2="50"/><polygon fill="#A80036" points="70,40,74,50,78,40,74,44" style="stroke: #A80036; stroke-width: 1.0;"/><line style="stroke: #A80036; stroke-width: 1.5;" x1="74" x2="74" y1="128" y2="148"/><polygon fill="#A80036" points="70,138,74,148,78,138,74,142" style="stroke: #A80036; stroke-width: 1.0;"/></g></svg>