<?xml version="1.0" encoding="UTF-8" standalone="yes"?><svg xmlns="http://www.w3.org/2000/svg" xmlns:xlink="http://www.w3.org/1999/xlink" height="134pt" style="width:180px;height:134px;" version="1.1" viewBox="0 0 180 134" width="180pt"><defs><filter height="300%" id="f1" width="300%" x="-1" y="-1"><feGaussianBlur result="blurOut" stdDeviation="2.0"/><feColorMatrix in="blurOut" result="blurOut2" type="matrix" values="0 0 0 0 0 0 0 0 0 0 0 0 0 0 0 0 0 0 .4 0"/><feOffset dx="4.0" dy="4.0" in="blurOut2" result="blurOut3"/><feBlend in="SourceGraphic" in2="blurOut3" mode="normal"/></filter></defs><g><rect fill="#FEFECE" filter="url(#f1)" height="117.1797" style="stroke: #A80036; stroke-width: 1.5;" width="165" x="6" y="8.5"/><ellipse cx="65.25" cy="24.5" fill="#ADD1B2" rx="11" ry="11" style="stroke: #A80036; stroke-width: 1.0;"/><path d="M68.0156,20.375 Q68.1719,20.1563 68.3594,20.0469 Q68.5469,19.9375 68.7656,19.9375 Q69.1406,19.9375 69.375,20.1953 Q69.6094,20.4531 69.6094,21.0625 L69.6094,22.5156 Q69.6094,23.125 69.375,23.3906 Q69.1406,23.6563 68.7656,23.6563 Q68.4219,23.6563 68.2188,23.4531 Q68.0156,23.2656 67.9063,22.75 Q67.8594,22.3906 67.6719,22.2031 Q67.3438,21.8281 66.7344,21.6094 Q66.125,21.3906 65.5,21.3906 Q64.7344,21.3906 64.1016,21.7188 Q63.4688,22.0469 62.9766,22.7969 Q62.4844,23.5469 62.4844,24.5781 L62.4844,25.6719 Q62.4844,26.9063 63.375,27.7266 Q64.2656,28.5469 65.8594,28.5469 Q66.7969,28.5469 67.4531,28.2969 Q67.8438,28.1406 68.2656,27.7031 Q68.5313,27.4375 68.6797,27.3594 Q68.8281,27.2813 69.0313,27.2813 Q69.3594,27.2813 69.6172,27.5391 Q69.875,27.7969 69.875,28.1406 Q69.875,28.4844 69.5313,28.8906 Q69.0313,29.4688 68.2344,29.7969 Q67.1563,30.25 65.8594,30.25 Q64.3438,30.25 63.1406,29.625 Q62.1563,29.125 61.4688,28.0547 Q60.7813,26.9844 60.7813,25.7031 L60.7813,24.5469 Q60.7813,23.2188 61.3984,22.0703 Q62.0156,20.9219 63.1094,20.3047 Q64.2031,19.6875 65.4375,19.6875 Q66.1719,19.6875 66.8203,19.8516 Q67.4688,20.0156 68.0156,20.375 Z "/><text fill="#000000" font-family="sans-serif" font-size="12" lengthAdjust="spacingAndGlyphs" textLength="38" x="85.75" y="29.4102">Identity</text><line style="stroke: #A80036; stroke-width: 1.5;" x1="7" x2="170" y1="40.5" y2="40.5"/><rect fill="none" height="6" style="stroke: #C82930; stroke-width: 1.0;" width="6" x="14" y="49.918"/><text fill="#000000" font-family="sans-serif" font-size="11" lengthAdjust="spacingAndGlyphs" textLength="92" x="26" y="55.9189">String displayName</text><rect fill="none" height="6" style="stroke: #C82930; stroke-width: 1.0;" width="6" x="14" y="63.7539"/><text fill="#000000" font-family="sans-serif" font-size="11" lengthAdjust="spacingAndGlyphs" textLength="45" x="26" y="69.7549">String uid</text><rect fill="none" height="6" style="stroke: #C82930; stroke-width: 1.0;" width="6" x="14" y="77.5898"/><text fill="#000000" font-family="sans-serif" font-size="11" lengthAdjust="spacingAndGlyphs" textLength="55" x="26" y="83.5908">String email</text><rect fill="none" height="6" style="stroke: #C82930; stroke-width: 1.0;" width="6" x="14" y="91.4258"/><text fill="#000000" font-family="sans-serif" font-size="11" lengthAdjust="spacingAndGlyphs" textLength="139" x="26" y="97.4268">Map&lt;String,String&gt; attributes</text><line style="stroke: #A80036; stroke-width: 1.5;" x1="7" x2="170" y1="103.8438" y2="103.8438"/><text fill="#000000" font-family="sans-serif" font-size="11" lengthAdjust="spacingAndGlyphs" textLength="58" x="12" y="119.2627">methods()...</text></g></svg>