<?xml version="1.0" encoding="UTF-8" standalone="yes"?><svg xmlns="http://www.w3.org/2000/svg" xmlns:xlink="http://www.w3.org/1999/xlink" height="312pt" style="width:569px;height:312px;" version="1.1" viewBox="0 0 569 312" width="569pt"><defs><filter height="300%" id="f1" width="300%" x="-1" y="-1"><feGaussianBlur result="blurOut" stdDeviation="2.0"/><feColorMatrix in="blurOut" result="blurOut2" type="matrix" values="0 0 0 0 0 0 0 0 0 0 0 0 0 0 0 0 0 0 .4 0"/><feOffset dx="4.0" dy="4.0" in="blurOut2" result="blurOut3"/><feBlend in="SourceGraphic" in2="blurOut3" mode="normal"/></filter></defs><g><rect fill="#FFFFFF" filter="url(#f1)" height="85" style="stroke: #000000; stroke-width: 2.0;" width="102" x="140" y="24"/><text fill="#000000" font-family="sans-serif" font-size="14" font-weight="bold" lengthAdjust="spacingAndGlyphs" textLength="68" x="157" y="40.5332">Definition</text><rect fill="#FFFFFF" filter="url(#f1)" height="85" style="stroke: #000000; stroke-width: 2.0;" width="338" x="22" y="220"/><text fill="#000000" font-family="sans-serif" font-size="14" font-weight="bold" lengthAdjust="spacingAndGlyphs" textLength="68" x="157" y="236.5332">Instances</text><ellipse cx="190.8198" cy="76.9517" fill="#FEFECE" filter="url(#f1)" rx="34.8198" ry="15.4517" style="stroke: #A80036; stroke-width: 1.5;"/><text fill="#000000" font-family="sans-serif" font-size="14" lengthAdjust="spacingAndGlyphs" textLength="45" x="168.3198" y="82.2564">Identity</text><ellipse cx="305.1053" cy="272.9517" fill="#FEFECE" filter="url(#f1)" rx="38.3553" ry="15.4517" style="stroke: #A80036; stroke-width: 1.5;"/><text fill="#000000" font-family="sans-serif" font-size="14" lengthAdjust="spacingAndGlyphs" textLength="50" x="280.1053" y="278.2564">Quentin</text><ellipse cx="190.7696" cy="272.9517" fill="#FEFECE" filter="url(#f1)" rx="39.7696" ry="15.4517" style="stroke: #A80036; stroke-width: 1.5;"/><text fill="#000000" font-family="sans-serif" font-size="14" lengthAdjust="spacingAndGlyphs" textLength="52" x="164.7696" y="278.2564">Clément</text><ellipse cx="77.0624" cy="272.9517" fill="#FEFECE" filter="url(#f1)" rx="39.0624" ry="15.4517" style="stroke: #A80036; stroke-width: 1.5;"/><text fill="#000000" font-family="sans-serif" font-size="14" lengthAdjust="spacingAndGlyphs" textLength="51" x="51.5624" y="278.2564">Thomas</text><ellipse cx="191.1311" cy="175.0262" fill="#FEFECE" filter="url(#f1)" rx="68.1311" ry="16.0262" style="stroke: #A80036; stroke-width: 1.5;"/><text fill="#000000" font-family="sans-serif" font-size="14" lengthAdjust="spacingAndGlyphs" textLength="96" x="143.1311" y="180.3309">"new" Operator</text><polygon fill="#FBFB77" filter="url(#f1)" points="294,153.5,294,196.2031,560,196.2031,560,163.5,550,153.5,294,153.5" style="stroke: #A80036; stroke-width: 1.0;"/><polygon fill="#FBFB77" points="294,153.5,294,171,259.219,175,294,179,294,196.2031,560,196.2031,560,163.5,550,153.5,294,153.5" style="stroke: #A80036; stroke-width: 1.0;"/><line style="stroke: #A80036; stroke-width: 1.0;" x1="550" x2="550" y1="153.5" y2="163.5"/><line style="stroke: #A80036; stroke-width: 1.0;" x1="560" x2="550" y1="163.5" y2="163.5"/><text fill="#000000" font-family="sans-serif" font-size="13" lengthAdjust="spacingAndGlyphs" textLength="53" x="300" y="171.9951">example:</text><text fill="#000000" font-family="sans-serif" font-size="13" lengthAdjust="spacingAndGlyphs" textLength="245" x="300" y="188.3467">Identity Thomas = new Identity("Thomas");</text><path d="M191,92.58 C191,110.519 191,140.821 191,158.965 " fill="none" style="stroke: #A80036; stroke-width: 1.0;"/><path d="M216.536,189.867 C227.021,196.057 239.018,203.8 249,212 C264.432,224.6763 279.752,241.4568 290.457,254.048 " fill="none" style="stroke: #A80036; stroke-width: 1.0;"/><polygon fill="#A80036" points="293.904,258.1454,291.1707,248.6834,290.685,254.3194,285.0491,253.8338,293.904,258.1454" style="stroke: #A80036; stroke-width: 1.0;"/><path d="M191,191 C191,207.44 191,233.8899 191,252.065 " fill="none" style="stroke: #A80036; stroke-width: 1.0;"/><polygon fill="#A80036" points="191,257.4197,195,248.4197,191,252.4197,187,248.4197,191,257.4197" style="stroke: #A80036; stroke-width: 1.0;"/><path d="M165.956,189.973 C155.66,196.179 143.862,203.907 134,212 C118.633,224.6105 103.2263,241.1161 92.3122,253.6229 " fill="none" style="stroke: #A80036; stroke-width: 1.0;"/><polygon fill="#A80036" points="88.7896,257.6997,97.7005,253.505,92.0586,253.9164,91.6472,248.2745,88.7896,257.6997" style="stroke: #A80036; stroke-width: 1.0;"/></g></svg>