<?xml version="1.0" encoding="UTF-8" standalone="yes"?><svg xmlns="http://www.w3.org/2000/svg" xmlns:xlink="http://www.w3.org/1999/xlink" height="92pt" style="width:477px;height:92px;" version="1.1" viewBox="0 0 477 92" width="477pt"><defs><filter height="300%" id="f1" width="300%" x="-1" y="-1"><feGaussianBlur result="blurOut" stdDeviation="2.0"/><feColorMatrix in="blurOut" result="blurOut2" type="matrix" values="0 0 0 0 0 0 0 0 0 0 0 0 0 0 0 0 0 0 .4 0"/><feOffset dx="4.0" dy="4.0" in="blurOut2" result="blurOut3"/><feBlend in="SourceGraphic" in2="blurOut3" mode="normal"/></filter></defs><g><rect fill="#FEFECE" filter="url(#f1)" height="75.6719" style="stroke: #A80036; stroke-width: 1.5;" width="103" x="6.5" y="8"/><ellipse cx="28.7" cy="24" fill="#ADD1B2" rx="11" ry="11" style="stroke: #A80036; stroke-width: 1.0;"/><path d="M31.4656,19.875 Q31.6219,19.6563 31.8094,19.5469 Q31.9969,19.4375 32.2156,19.4375 Q32.5906,19.4375 32.825,19.6953 Q33.0594,19.9531 33.0594,20.5625 L33.0594,22.0156 Q33.0594,22.625 32.825,22.8906 Q32.5906,23.1563 32.2156,23.1563 Q31.8719,23.1563 31.6688,22.9531 Q31.4656,22.7656 31.3563,22.25 Q31.3094,21.8906 31.1219,21.7031 Q30.7938,21.3281 30.1844,21.1094 Q29.575,20.8906 28.95,20.8906 Q28.1844,20.8906 27.5516,21.2188 Q26.9188,21.5469 26.4266,22.2969 Q25.9344,23.0469 25.9344,24.0781 L25.9344,25.1719 Q25.9344,26.4063 26.825,27.2266 Q27.7156,28.0469 29.3094,28.0469 Q30.2469,28.0469 30.9031,27.7969 Q31.2938,27.6406 31.7156,27.2031 Q31.9813,26.9375 32.1297,26.8594 Q32.2781,26.7813 32.4813,26.7813 Q32.8094,26.7813 33.0672,27.0391 Q33.325,27.2969 33.325,27.6406 Q33.325,27.9844 32.9813,28.3906 Q32.4813,28.9688 31.6844,29.2969 Q30.6063,29.75 29.3094,29.75 Q27.7938,29.75 26.5906,29.125 Q25.6063,28.625 24.9188,27.5547 Q24.2313,26.4844 24.2313,25.2031 L24.2313,24.0469 Q24.2313,22.7188 24.8484,21.5703 Q25.4656,20.4219 26.5594,19.8047 Q27.6531,19.1875 28.8875,19.1875 Q29.6219,19.1875 30.2703,19.3516 Q30.9188,19.5156 31.4656,19.875 Z "/><text fill="#000000" font-family="sans-serif" font-size="12" lengthAdjust="spacingAndGlyphs" textLength="55" x="44.3" y="28.9102">Mammals</text><line style="stroke: #A80036; stroke-width: 1.5;" x1="7.5" x2="108.5" y1="40" y2="40"/><rect fill="none" height="6" style="stroke: #C82930; stroke-width: 1.0;" width="6" x="14.5" y="49.418"/><text fill="#000000" font-family="sans-serif" font-size="11" lengthAdjust="spacingAndGlyphs" textLength="42" x="26.5" y="55.4189">hotBlood</text><line style="stroke: #A80036; stroke-width: 1.5;" x1="7.5" x2="108.5" y1="61.8359" y2="61.8359"/><ellipse cx="17.5" cy="74.2539" fill="#84BE84" rx="3" ry="3" style="stroke: #038048; stroke-width: 1.0;"/><text fill="#000000" font-family="sans-serif" font-size="11" lengthAdjust="spacingAndGlyphs" textLength="77" x="26.5" y="77.2549">breastFeeding()</text><rect fill="#FEFECE" filter="url(#f1)" height="75.6719" style="stroke: #A80036; stroke-width: 1.5;" width="149" x="170.5" y="8"/><ellipse cx="185.5" cy="24" fill="#ADD1B2" rx="11" ry="11" style="stroke: #A80036; stroke-width: 1.0;"/><path d="M188.2656,19.875 Q188.4219,19.6563 188.6094,19.5469 Q188.7969,19.4375 189.0156,19.4375 Q189.3906,19.4375 189.625,19.6953 Q189.8594,19.9531 189.8594,20.5625 L189.8594,22.0156 Q189.8594,22.625 189.625,22.8906 Q189.3906,23.1563 189.0156,23.1563 Q188.6719,23.1563 188.4688,22.9531 Q188.2656,22.7656 188.1563,22.25 Q188.1094,21.8906 187.9219,21.7031 Q187.5938,21.3281 186.9844,21.1094 Q186.375,20.8906 185.75,20.8906 Q184.9844,20.8906 184.3516,21.2188 Q183.7188,21.5469 183.2266,22.2969 Q182.7344,23.0469 182.7344,24.0781 L182.7344,25.1719 Q182.7344,26.4063 183.625,27.2266 Q184.5156,28.0469 186.1094,28.0469 Q187.0469,28.0469 187.7031,27.7969 Q188.0938,27.6406 188.5156,27.2031 Q188.7813,26.9375 188.9297,26.8594 Q189.0781,26.7813 189.2813,26.7813 Q189.6094,26.7813 189.8672,27.0391 Q190.125,27.2969 190.125,27.6406 Q190.125,27.9844 189.7813,28.3906 Q189.2813,28.9688 188.4844,29.2969 Q187.4063,29.75 186.1094,29.75 Q184.5938,29.75 183.3906,29.125 Q182.4063,28.625 181.7188,27.5547 Q181.0313,26.4844 181.0313,25.2031 L181.0313,24.0469 Q181.0313,22.7188 181.6484,21.5703 Q182.2656,20.4219 183.3594,19.8047 Q184.4531,19.1875 185.6875,19.1875 Q186.4219,19.1875 187.0703,19.3516 Q187.7188,19.5156 188.2656,19.875 Z "/><text fill="#000000" font-family="sans-serif" font-size="12" lengthAdjust="spacingAndGlyphs" textLength="117" x="199.5" y="28.9102">QuadrupedMammals</text><line style="stroke: #A80036; stroke-width: 1.5;" x1="171.5" x2="318.5" y1="40" y2="40"/><rect fill="none" height="6" style="stroke: #C82930; stroke-width: 1.0;" width="6" x="178.5" y="49.418"/><text fill="#000000" font-family="sans-serif" font-size="11" lengthAdjust="spacingAndGlyphs" textLength="26" x="190.5" y="55.4189">leg[4]</text><line style="stroke: #A80036; stroke-width: 1.5;" x1="171.5" x2="318.5" y1="61.8359" y2="61.8359"/><ellipse cx="181.5" cy="74.2539" fill="#84BE84" rx="3" ry="3" style="stroke: #038048; stroke-width: 1.0;"/><text fill="#000000" font-family="sans-serif" font-size="11" lengthAdjust="spacingAndGlyphs" textLength="24" x="190.5" y="77.2549">run()</text><rect fill="#FEFECE" filter="url(#f1)" height="75.6719" style="stroke: #A80036; stroke-width: 1.5;" width="88" x="380" y="8"/><ellipse cx="409.4" cy="24" fill="#ADD1B2" rx="11" ry="11" style="stroke: #A80036; stroke-width: 1.0;"/><path d="M412.1656,19.875 Q412.3219,19.6563 412.5094,19.5469 Q412.6969,19.4375 412.9156,19.4375 Q413.2906,19.4375 413.525,19.6953 Q413.7594,19.9531 413.7594,20.5625 L413.7594,22.0156 Q413.7594,22.625 413.525,22.8906 Q413.2906,23.1563 412.9156,23.1563 Q412.5719,23.1563 412.3688,22.9531 Q412.1656,22.7656 412.0563,22.25 Q412.0094,21.8906 411.8219,21.7031 Q411.4938,21.3281 410.8844,21.1094 Q410.275,20.8906 409.65,20.8906 Q408.8844,20.8906 408.2516,21.2188 Q407.6188,21.5469 407.1266,22.2969 Q406.6344,23.0469 406.6344,24.0781 L406.6344,25.1719 Q406.6344,26.4063 407.525,27.2266 Q408.4156,28.0469 410.0094,28.0469 Q410.9469,28.0469 411.6031,27.7969 Q411.9938,27.6406 412.4156,27.2031 Q412.6813,26.9375 412.8297,26.8594 Q412.9781,26.7813 413.1813,26.7813 Q413.5094,26.7813 413.7672,27.0391 Q414.025,27.2969 414.025,27.6406 Q414.025,27.9844 413.6813,28.3906 Q413.1813,28.9688 412.3844,29.2969 Q411.3063,29.75 410.0094,29.75 Q408.4938,29.75 407.2906,29.125 Q406.3063,28.625 405.6188,27.5547 Q404.9313,26.4844 404.9313,25.2031 L404.9313,24.0469 Q404.9313,22.7188 405.5484,21.5703 Q406.1656,20.4219 407.2594,19.8047 Q408.3531,19.1875 409.5875,19.1875 Q410.3219,19.1875 410.9703,19.3516 Q411.6188,19.5156 412.1656,19.875 Z "/><text fill="#000000" font-family="sans-serif" font-size="12" lengthAdjust="spacingAndGlyphs" textLength="24" x="426.6" y="28.9102">Wolf</text><line style="stroke: #A80036; stroke-width: 1.5;" x1="381" x2="467" y1="40" y2="40"/><rect fill="none" height="6" style="stroke: #C82930; stroke-width: 1.0;" width="6" x="388" y="49.418"/><text fill="#000000" font-family="sans-serif" font-size="11" lengthAdjust="spacingAndGlyphs" textLength="62" x="400" y="55.4189">yellowEye[2]</text><line style="stroke: #A80036; stroke-width: 1.5;" x1="381" x2="467" y1="61.8359" y2="61.8359"/><ellipse cx="391" cy="74.2539" fill="#84BE84" rx="3" ry="3" style="stroke: #038048; stroke-width: 1.0;"/><text fill="#000000" font-family="sans-serif" font-size="11" lengthAdjust="spacingAndGlyphs" textLength="53" x="400" y="77.2549">packHunt()</text><path d="M129.721,46 C142.995,46 156.905,46 170.268,46 " fill="none" style="stroke: #A80036; stroke-width: 1.0;"/><polygon fill="none" points="129.552,52.9999,109.552,46,129.552,38.9999,129.552,52.9999" style="stroke: #A80036; stroke-width: 1.0;"/><path d="M339.917,46 C353.857,46 367.617,46 379.807,46 " fill="none" style="stroke: #A80036; stroke-width: 1.0;"/><polygon fill="none" points="339.526,52.9999,319.526,46,339.526,38.9999,339.526,52.9999" style="stroke: #A80036; stroke-width: 1.0;"/></g></svg>