<?xml version="1.0" encoding="UTF-8" standalone="yes"?><svg xmlns="http://www.w3.org/2000/svg" xmlns:xlink="http://www.w3.org/1999/xlink" height="86pt" style="width:265px;height:86px;" version="1.1" viewBox="0 0 265 86" width="265pt"><defs><filter height="300%" id="f1" width="300%" x="-1" y="-1"><feGaussianBlur result="blurOut" stdDeviation="2.0"/><feColorMatrix in="blurOut" result="blurOut2" type="matrix" values="0 0 0 0 0 0 0 0 0 0 0 0 0 0 0 0 0 0 .4 0"/><feOffset dx="4.0" dy="4.0" in="blurOut2" result="blurOut3"/><feBlend in="SourceGraphic" in2="blurOut3" mode="normal"/></filter></defs><g><rect fill="#FEFECE" filter="url(#f1)" height="48" style="stroke: #A80036; stroke-width: 1.5;" width="62" x="32" y="29"/><ellipse cx="47" cy="45" fill="#ADD1B2" rx="11" ry="11" style="stroke: #A80036; stroke-width: 1.0;"/><path d="M49.7656,40.875 Q49.9219,40.6563 50.1094,40.5469 Q50.2969,40.4375 50.5156,40.4375 Q50.8906,40.4375 51.125,40.6953 Q51.3594,40.9531 51.3594,41.5625 L51.3594,43.0156 Q51.3594,43.625 51.125,43.8906 Q50.8906,44.1563 50.5156,44.1563 Q50.1719,44.1563 49.9688,43.9531 Q49.7656,43.7656 49.6563,43.25 Q49.6094,42.8906 49.4219,42.7031 Q49.0938,42.3281 48.4844,42.1094 Q47.875,41.8906 47.25,41.8906 Q46.4844,41.8906 45.8516,42.2188 Q45.2188,42.5469 44.7266,43.2969 Q44.2344,44.0469 44.2344,45.0781 L44.2344,46.1719 Q44.2344,47.4063 45.125,48.2266 Q46.0156,49.0469 47.6094,49.0469 Q48.5469,49.0469 49.2031,48.7969 Q49.5938,48.6406 50.0156,48.2031 Q50.2813,47.9375 50.4297,47.8594 Q50.5781,47.7813 50.7813,47.7813 Q51.1094,47.7813 51.3672,48.0391 Q51.625,48.2969 51.625,48.6406 Q51.625,48.9844 51.2813,49.3906 Q50.7813,49.9688 49.9844,50.2969 Q48.9063,50.75 47.6094,50.75 Q46.0938,50.75 44.8906,50.125 Q43.9063,49.625 43.2188,48.5547 Q42.5313,47.4844 42.5313,46.2031 L42.5313,45.0469 Q42.5313,43.7188 43.1484,42.5703 Q43.7656,41.4219 44.8594,40.8047 Q45.9531,40.1875 47.1875,40.1875 Q47.9219,40.1875 48.5703,40.3516 Q49.2188,40.5156 49.7656,40.875 Z "/><text fill="#000000" font-family="sans-serif" font-size="12" lengthAdjust="spacingAndGlyphs" textLength="30" x="61" y="49.9102">EMail</text><line style="stroke: #A80036; stroke-width: 1.5;" x1="33" x2="93" y1="61" y2="61"/><line style="stroke: #A80036; stroke-width: 1.5;" x1="33" x2="93" y1="69" y2="69"/><rect fill="#FEFECE" filter="url(#f1)" height="48" style="stroke: #A80036; stroke-width: 1.5;" width="52" x="204" y="29"/><ellipse cx="219" cy="45" fill="#ADD1B2" rx="11" ry="11" style="stroke: #A80036; stroke-width: 1.0;"/><path d="M221.7656,40.875 Q221.9219,40.6563 222.1094,40.5469 Q222.2969,40.4375 222.5156,40.4375 Q222.8906,40.4375 223.125,40.6953 Q223.3594,40.9531 223.3594,41.5625 L223.3594,43.0156 Q223.3594,43.625 223.125,43.8906 Q222.8906,44.1563 222.5156,44.1563 Q222.1719,44.1563 221.9688,43.9531 Q221.7656,43.7656 221.6563,43.25 Q221.6094,42.8906 221.4219,42.7031 Q221.0938,42.3281 220.4844,42.1094 Q219.875,41.8906 219.25,41.8906 Q218.4844,41.8906 217.8516,42.2188 Q217.2188,42.5469 216.7266,43.2969 Q216.2344,44.0469 216.2344,45.0781 L216.2344,46.1719 Q216.2344,47.4063 217.125,48.2266 Q218.0156,49.0469 219.6094,49.0469 Q220.5469,49.0469 221.2031,48.7969 Q221.5938,48.6406 222.0156,48.2031 Q222.2813,47.9375 222.4297,47.8594 Q222.5781,47.7813 222.7813,47.7813 Q223.1094,47.7813 223.3672,48.0391 Q223.625,48.2969 223.625,48.6406 Q223.625,48.9844 223.2813,49.3906 Q222.7813,49.9688 221.9844,50.2969 Q220.9063,50.75 219.6094,50.75 Q218.0938,50.75 216.8906,50.125 Q215.9063,49.625 215.2188,48.5547 Q214.5313,47.4844 214.5313,46.2031 L214.5313,45.0469 Q214.5313,43.7188 215.1484,42.5703 Q215.7656,41.4219 216.8594,40.8047 Q217.9531,40.1875 219.1875,40.1875 Q219.9219,40.1875 220.5703,40.3516 Q221.2188,40.5156 221.7656,40.875 Z "/><text fill="#000000" font-family="sans-serif" font-size="12" lengthAdjust="spacingAndGlyphs" textLength="20" x="233" y="49.9102">File</text><line style="stroke: #A80036; stroke-width: 1.5;" x1="205" x2="255" y1="61" y2="61"/><line style="stroke: #A80036; stroke-width: 1.5;" x1="205" x2="255" y1="69" y2="69"/><path d="M94.2635,53 C121.41,53 161.376,53 190.732,53 " fill="none" style="stroke: #A80036; stroke-width: 1.0;"/><polygon fill="none" points="203.789,53,197.789,49,191.789,53,197.789,57,203.789,53" style="stroke: #A80036; stroke-width: 1.0;"/><text fill="#000000" font-family="sans-serif" font-size="13" lengthAdjust="spacingAndGlyphs" textLength="5" x="102.0713" y="52.6873">*</text><text fill="#000000" font-family="sans-serif" font-size="13" lengthAdjust="spacingAndGlyphs" textLength="5" x="191.2344" y="50.2573">*</text></g></svg>