<?xml version="1.0" encoding="UTF-8" standalone="yes"?><svg xmlns="http://www.w3.org/2000/svg" xmlns:xlink="http://www.w3.org/1999/xlink" height="419pt" " version="1.1" viewBox="0 0 652 419" width="652pt"><defs><filter height="300%" id="f1" width="300%" x="-1" y="-1"><feGaussianBlur result="blurOut" stdDeviation="2.0"/><feColorMatrix in="blurOut" result="blurOut2" type="matrix" values="0 0 0 0 0 0 0 0 0 0 0 0 0 0 0 0 0 0 .4 0"/><feOffset dx="4.0" dy="4.0" in="blurOut2" result="blurOut3"/><feBlend in="SourceGraphic" in2="blurOut3" mode="normal"/></filter></defs><g><rect fill="#FFFFFF" filter="url(#f1)" height="193" style="stroke: #000000; stroke-width: 2.0;" width="176" x="30" y="156"/><text fill="#000000" font-size="14" font-weight="bold" lengthAdjust="spacingAndGlyphs" textLength="32" x="102" y="172">Role</text><ellipse cx="158.2561" cy="216.9517" fill="#FEFECE" filter="url(#f1)" rx="23.5061" ry="15.4517" style="stroke: #A80036; stroke-width: 1.5;"/><text fill="#000000" font-size="14" lengthAdjust="spacingAndGlyphs" textLength="29" x="143.7561" y="222.2564">Role</text><ellipse cx="122.3185" cy="308.9517" fill="#FEFECE" filter="url(#f1)" rx="59.5685" ry="15.4517" style="stroke: #A80036; stroke-width: 1.5;"/><text fill="#000000" font-size="14" lengthAdjust="spacingAndGlyphs" textLength="80" x="82.3185" y="314.2564">Organization</text><ellipse cx="157.8198" cy="23.9517" fill="#FEFECE" filter="url(#f1)" rx="34.8198" ry="15.4517" style="stroke: #A80036; stroke-width: 1.5;"/><text fill="#000000" font-size="14" lengthAdjust="spacingAndGlyphs" textLength="45" x="135.3198" y="29.2564">Identity</text><ellipse cx="158.3688" cy="115.9517" fill="#FEFECE" filter="url(#f1)" rx="54.6188" ry="15.4517" style="stroke: #A80036; stroke-width: 1.5;"/><text fill="#000000" font-size="14" lengthAdjust="spacingAndGlyphs" textLength="73" x="121.8688" y="121.2564">Assignment</text><ellipse cx="288.1972" cy="308.9517" fill="#FEFECE" filter="url(#f1)" rx="57.4472" ry="15.4517" style="stroke: #A80036; stroke-width: 1.5;"/><text fill="#000000" font-size="14" lengthAdjust="spacingAndGlyphs" textLength="77" x="249.6972" y="314.2564">Permission1</text><ellipse cx="438.1972" cy="308.9517" fill="#FEFECE" filter="url(#f1)" rx="57.4472" ry="15.4517" style="stroke: #A80036; stroke-width: 1.5;"/><text fill="#000000" font-size="14" lengthAdjust="spacingAndGlyphs" textLength="77" x="399.6972" y="314.2564">Permission2</text><ellipse cx="588.1972" cy="308.9517" fill="#FEFECE" filter="url(#f1)" rx="57.4472" ry="15.4517" style="stroke: #A80036; stroke-width: 1.5;"/><text fill="#000000" font-size="14" lengthAdjust="spacingAndGlyphs" textLength="77" x="549.6972" y="314.2564">Permission3</text><path d="M158,39.862 C158,54.933 158,78.353 158,95.037 " fill="none" style="stroke: #A80036; stroke-width: 1.0;"/><path d="M158,131.608 C158,148.717 158,177.141 158,196.217 " fill="none" style="stroke: #A80036; stroke-width: 1.0;"/><path d="M173.423,228.678 C195.803,244.171 237.488,273.0299 263.932,291.3375 " fill="none" style="stroke: #A80036; stroke-width: 1.0;"/><path d="M178.589,224.618 C224.777,239.464 337.337,275.6441 397.885,295.1059 " fill="none" style="stroke: #A80036; stroke-width: 1.0;"/><path d="M179.915,222.587 C246.262,236.474 446.095,278.2989 539.233,297.793 " fill="none" style="stroke: #A80036; stroke-width: 1.0;"/><path d="M152.375,232.062 C146.318,247.206 136.636,271.41 129.835,288.4124 " fill="none" style="stroke: #A80036; stroke-width: 1.0; stroke-dasharray: 7.0,7.0;"/><polygon fill="#DDDDDD" points="204,391,204,418.6094,458,418.6094,458,391,204,391" style="stroke: #000000; stroke-width: 1.0;"/><text fill="#000000" font-size="14" lengthAdjust="spacingAndGlyphs" textLength="242" x="210" y="410">Subject Role-Organization Assignment</text></g></svg>