<svg fill="#000000" xmlns="http://www.w3.org/2000/svg" xmlns:xlink="http://www.w3.org/1999/xlink" xmlns:sketch="http://www.bohemiancoding.com/sketch/ns" viewBox="0 0 512 512" version="1.1" x="0px" y="0px"><title>3</title><desc>Created with Sketch.</desc><g stroke="none" stroke-width="1" fill="none" fill-rule="evenodd" sketch:type="MSPage"><path d="M76.5684001,23 L75.0738124,24.0016392 L92.8348042,50.5147175 L75.0738124,77.0273461 L76.5679503,78.0289852 L95,50.5147175 L76.5684001,23 Z M23.4320497,23 L5,50.5147175 L23.4320497,78.0289852 L24.9266374,77.0273461 L7.16519575,50.5147175 L24.9266374,24.0016392 L23.4320497,23 Z M47.164646,58.0461265 L30.0081458,58.0461265 C29.1387392,58.0461265 28.4339487,58.750917 28.4339487,59.6203236 C28.4339487,60.4897302 29.1387392,61.1945208 30.0081458,61.1945208 L47.164646,61.1945208 C48.0340526,61.1945208 48.7388432,60.4897302 48.7388432,59.6203236 C48.7388432,58.750917 48.0340526,58.0461265 47.164646,58.0461265 L47.164646,58.0461265 Z M67.5428531,39.8349142 L42.9484963,39.8349142 C42.0790897,39.8349142 41.3742991,40.5397048 41.3742991,41.4091114 C41.3742991,42.278518 42.0790897,42.9833085 42.9484963,42.9833085 L67.5428531,42.9833085 C68.4122597,42.9833085 69.1170503,42.278518 69.1170503,41.4091114 C69.1170503,40.5397048 68.4122597,39.8349142 67.5428531,39.8349142 L67.5428531,39.8349142 Z M57.951045,64.1166805 L30.0081458,64.1166805 C29.1387392,64.1166805 28.4339487,64.821471 28.4339487,65.6908777 C28.4339487,66.5602843 29.1387392,67.2650748 30.0081458,67.2650748 L57.951045,67.2650748 C58.8209013,67.2650748 59.5252421,66.5602843 59.5252421,65.6908777 C59.5252421,64.821471 58.8209013,64.1166805 57.951045,64.1166805 L57.951045,64.1166805 Z M30.0081458,42.9833085 L36.4511099,42.9833085 C37.3205165,42.9833085 38.0253071,42.278518 38.0253071,41.4091114 C38.0253071,40.5397048 37.3205165,39.8349142 36.4511099,39.8349142 L30.0081458,39.8349142 C29.1387392,39.8349142 28.4339487,40.5397048 28.4339487,41.4091114 C28.4339487,42.278518 29.1387392,42.9833085 30.0081458,42.9833085 L30.0081458,42.9833085 Z M65.8571129,58.0461265 L53.1942709,58.0461265 C52.3248643,58.0461265 51.6200738,58.750917 51.6200738,59.6203236 C51.6200738,60.4897302 52.3248643,61.1945208 53.1942709,61.1945208 L65.8571129,61.1945208 C66.7265195,61.1945208 67.43131,60.4897302 67.43131,59.6203236 C67.43131,58.750917 66.7265195,58.0461265 65.8571129,58.0461265 L65.8571129,58.0461265 Z M74.2273441,45.9050184 L30.0081458,45.9050184 C29.1387392,45.9050184 28.4339487,46.609809 28.4339487,47.4792156 C28.4339487,48.3486222 29.1387392,49.0534128 30.0081458,49.0534128 L74.2273441,49.0534128 C75.0967507,49.0534128 75.8015412,48.3486222 75.8015412,47.4792156 C75.8015412,46.609809 75.0967507,45.9050184 74.2273441,45.9050184 L74.2273441,45.9050184 Z M30.0081458,36.9127545 L70.2747599,36.9127545 C71.1441665,36.9127545 71.848957,36.2079639 71.848957,35.3385573 C71.848957,34.4691507 71.1441665,33.7643602 70.2747599,33.7643602 L30.0081458,33.7643602 C29.1387392,33.7643602 28.4339487,34.4691507 28.4339487,35.3385573 C28.4339487,36.2079639 29.1387392,36.9127545 30.0081458,36.9127545 L30.0081458,36.9127545 Z M60.2763591,55.1239668 L30.0081458,55.1239668 C29.1387392,55.1239668 28.4339487,54.4191762 28.4339487,53.5497696 C28.4339487,52.680363 29.1387392,51.9755725 30.0081458,51.9755725 L60.2763591,51.9755725 C61.1457657,51.9755725 61.8505562,52.680363 61.8505562,53.5497696 C61.8505562,54.4191762 61.1457657,55.1239668 60.2763591,55.1239668 L60.2763591,55.1239668 Z" fill="#000000" sketch:type="MSShapeGroup"/></g></svg>