<?xml version="1.0" encoding="UTF-8" standalone="yes"?><svg xmlns="http://www.w3.org/2000/svg" xmlns:xlink="http://www.w3.org/1999/xlink" height="321pt" style="width:498px;height:321px;" version="1.1" viewBox="0 0 498 321" width="498pt"><defs><filter height="300%" id="f1" width="300%" x="-1" y="-1"><feGaussianBlur result="blurOut" stdDeviation="2.0"/><feColorMatrix in="blurOut" result="blurOut2" type="matrix" values="0 0 0 0 0 0 0 0 0 0 0 0 0 0 0 0 0 0 .4 0"/><feOffset dx="4.0" dy="4.0" in="blurOut2" result="blurOut3"/><feBlend in="SourceGraphic" in2="blurOut3" mode="normal"/></filter></defs><g><rect fill="#FEFECE" filter="url(#f1)" height="48" style="stroke: #A80036; stroke-width: 1.5;" width="74" x="254.679" y="264"/><ellipse cx="269.679" cy="280" fill="#B4A7E5" rx="11" ry="11" style="stroke: #A80036; stroke-width: 1.0;"/><path d="M270.6321,276.6406 L270.6321,283.2969 L272.3509,283.2969 Q272.9603,283.2969 273.2259,283.5313 Q273.4915,283.7656 273.4915,284.1563 Q273.4915,284.5313 273.2259,284.7656 Q272.9603,285 272.3509,285 L267.2103,285 Q266.6009,285 266.3353,284.7656 Q266.0696,284.5313 266.0696,284.1406 Q266.0696,283.7656 266.3353,283.5313 Q266.6009,283.2969 267.2103,283.2969 L268.929,283.2969 L268.929,276.6406 L267.2103,276.6406 Q266.6009,276.6406 266.3353,276.4063 Q266.0696,276.1719 266.0696,275.7813 Q266.0696,275.4063 266.3353,275.1719 Q266.6009,274.9375 267.2103,274.9375 L272.3509,274.9375 Q272.9603,274.9375 273.2259,275.1719 Q273.4915,275.4063 273.4915,275.7813 Q273.4915,276.1719 273.2259,276.4063 Q272.9603,276.6406 272.3509,276.6406 L270.6321,276.6406 Z "/><text fill="#000000" font-family="sans-serif" font-size="12" font-style="italic" lengthAdjust="spacingAndGlyphs" textLength="42" x="283.679" y="284.4531">Product</text><line style="stroke: #A80036; stroke-width: 1.5;" x1="255.679" x2="327.679" y1="296" y2="296"/><line style="stroke: #A80036; stroke-width: 1.5;" x1="255.679" x2="327.679" y1="304" y2="304"/><rect fill="#FEFECE" filter="url(#f1)" height="48" style="stroke: #A80036; stroke-width: 1.5;" width="124" x="365.679" y="136"/><ellipse cx="380.679" cy="152" fill="#ADD1B2" rx="11" ry="11" style="stroke: #A80036; stroke-width: 1.0;"/><path d="M383.4446,147.875 Q383.6009,147.6563 383.7884,147.5469 Q383.9759,147.4375 384.1946,147.4375 Q384.5696,147.4375 384.804,147.6953 Q385.0384,147.9531 385.0384,148.5625 L385.0384,150.0156 Q385.0384,150.625 384.804,150.8906 Q384.5696,151.1563 384.1946,151.1563 Q383.8509,151.1563 383.6478,150.9531 Q383.4446,150.7656 383.3353,150.25 Q383.2884,149.8906 383.1009,149.7031 Q382.7728,149.3281 382.1634,149.1094 Q381.554,148.8906 380.929,148.8906 Q380.1634,148.8906 379.5306,149.2188 Q378.8978,149.5469 378.4056,150.2969 Q377.9134,151.0469 377.9134,152.0781 L377.9134,153.1719 Q377.9134,154.4063 378.804,155.2266 Q379.6946,156.0469 381.2884,156.0469 Q382.2259,156.0469 382.8821,155.7969 Q383.2728,155.6406 383.6946,155.2031 Q383.9603,154.9375 384.1087,154.8594 Q384.2571,154.7813 384.4603,154.7813 Q384.7884,154.7813 385.0462,155.0391 Q385.304,155.2969 385.304,155.6406 Q385.304,155.9844 384.9603,156.3906 Q384.4603,156.9688 383.6634,157.2969 Q382.5853,157.75 381.2884,157.75 Q379.7728,157.75 378.5696,157.125 Q377.5853,156.625 376.8978,155.5547 Q376.2103,154.4844 376.2103,153.2031 L376.2103,152.0469 Q376.2103,150.7188 376.8274,149.5703 Q377.4446,148.4219 378.5384,147.8047 Q379.6321,147.1875 380.8665,147.1875 Q381.6009,147.1875 382.2493,147.3516 Q382.8978,147.5156 383.4446,147.875 Z "/><text fill="#000000" font-family="sans-serif" font-size="12" lengthAdjust="spacingAndGlyphs" textLength="92" x="394.679" y="156.4531">ConcreteProduct</text><line style="stroke: #A80036; stroke-width: 1.5;" x1="366.679" x2="488.679" y1="168" y2="168"/><line style="stroke: #A80036; stroke-width: 1.5;" x1="366.679" x2="488.679" y1="176" y2="176"/><rect fill="#FEFECE" filter="url(#f1)" height="48" style="stroke: #A80036; stroke-width: 1.5;" width="71" x="121.429" y="136"/><ellipse cx="136.429" cy="152" fill="#ADD1B2" rx="11" ry="11" style="stroke: #A80036; stroke-width: 1.0;"/><path d="M139.1946,147.875 Q139.3509,147.6563 139.5384,147.5469 Q139.7259,147.4375 139.9446,147.4375 Q140.3196,147.4375 140.554,147.6953 Q140.7884,147.9531 140.7884,148.5625 L140.7884,150.0156 Q140.7884,150.625 140.554,150.8906 Q140.3196,151.1563 139.9446,151.1563 Q139.6009,151.1563 139.3978,150.9531 Q139.1946,150.7656 139.0853,150.25 Q139.0384,149.8906 138.8509,149.7031 Q138.5228,149.3281 137.9134,149.1094 Q137.304,148.8906 136.679,148.8906 Q135.9134,148.8906 135.2806,149.2188 Q134.6478,149.5469 134.1556,150.2969 Q133.6634,151.0469 133.6634,152.0781 L133.6634,153.1719 Q133.6634,154.4063 134.554,155.2266 Q135.4446,156.0469 137.0384,156.0469 Q137.9759,156.0469 138.6321,155.7969 Q139.0228,155.6406 139.4446,155.2031 Q139.7103,154.9375 139.8587,154.8594 Q140.0071,154.7813 140.2103,154.7813 Q140.5384,154.7813 140.7962,155.0391 Q141.054,155.2969 141.054,155.6406 Q141.054,155.9844 140.7103,156.3906 Q140.2103,156.9688 139.4134,157.2969 Q138.3353,157.75 137.0384,157.75 Q135.5228,157.75 134.3196,157.125 Q133.3353,156.625 132.6478,155.5547 Q131.9603,154.4844 131.9603,153.2031 L131.9603,152.0469 Q131.9603,150.7188 132.5774,149.5703 Q133.1946,148.4219 134.2884,147.8047 Q135.3821,147.1875 136.6165,147.1875 Q137.3509,147.1875 137.9993,147.3516 Q138.6478,147.5156 139.1946,147.875 Z "/><text fill="#000000" font-family="sans-serif" font-size="12" lengthAdjust="spacingAndGlyphs" textLength="39" x="150.429" y="156.4531">Factory</text><line style="stroke: #A80036; stroke-width: 1.5;" x1="122.429" x2="191.429" y1="168" y2="168"/><line style="stroke: #A80036; stroke-width: 1.5;" x1="122.429" x2="191.429" y1="176" y2="176"/><rect fill="#FEFECE" filter="url(#f1)" height="48" style="stroke: #A80036; stroke-width: 1.5;" width="64" x="150.679" y="8"/><ellipse cx="165.679" cy="24" fill="#ADD1B2" rx="11" ry="11" style="stroke: #A80036; stroke-width: 1.0;"/><path d="M168.4446,19.875 Q168.6009,19.6563 168.7884,19.5469 Q168.9759,19.4375 169.1946,19.4375 Q169.5696,19.4375 169.804,19.6953 Q170.0384,19.9531 170.0384,20.5625 L170.0384,22.0156 Q170.0384,22.625 169.804,22.8906 Q169.5696,23.1563 169.1946,23.1563 Q168.8509,23.1563 168.6478,22.9531 Q168.4446,22.7656 168.3353,22.25 Q168.2884,21.8906 168.1009,21.7031 Q167.7728,21.3281 167.1634,21.1094 Q166.554,20.8906 165.929,20.8906 Q165.1634,20.8906 164.5306,21.2188 Q163.8978,21.5469 163.4056,22.2969 Q162.9134,23.0469 162.9134,24.0781 L162.9134,25.1719 Q162.9134,26.4063 163.804,27.2266 Q164.6946,28.0469 166.2884,28.0469 Q167.2259,28.0469 167.8821,27.7969 Q168.2728,27.6406 168.6946,27.2031 Q168.9603,26.9375 169.1087,26.8594 Q169.2571,26.7813 169.4603,26.7813 Q169.7884,26.7813 170.0462,27.0391 Q170.304,27.2969 170.304,27.6406 Q170.304,27.9844 169.9603,28.3906 Q169.4603,28.9688 168.6634,29.2969 Q167.5853,29.75 166.2884,29.75 Q164.7728,29.75 163.5696,29.125 Q162.5853,28.625 161.8978,27.5547 Q161.2103,26.4844 161.2103,25.2031 L161.2103,24.0469 Q161.2103,22.7188 161.8274,21.5703 Q162.4446,20.4219 163.5384,19.8047 Q164.6321,19.1875 165.8665,19.1875 Q166.6009,19.1875 167.2493,19.3516 Q167.8978,19.5156 168.4446,19.875 Z "/><text fill="#000000" font-family="sans-serif" font-size="12" lengthAdjust="spacingAndGlyphs" textLength="32" x="179.679" y="28.4531">Client</text><line style="stroke: #A80036; stroke-width: 1.5;" x1="151.679" x2="213.679" y1="40" y2="40"/><line style="stroke: #A80036; stroke-width: 1.5;" x1="151.679" x2="213.679" y1="48" y2="48"/><path d="M421.174,203.933 C417.915,214.6703 413.022,225.5279 405.679,234 C385.808,256.9248 353.907,270.5799 328.897,278.273 " fill="none" style="stroke: #A80036; stroke-width: 1.0; stroke-dasharray: 7.0,7.0;"/><polygon fill="none" points="414.419,202.066,425.645,184.094,428.077,205.144,414.419,202.066" style="stroke: #A80036; stroke-width: 1.0;"/><path d="M149.036,184.036 C145.412,199.488 143.765,219.5734 153.679,234 C174.995,265.0204 217.177,277.893 249.322,283.2302 " fill="none" style="stroke: #A80036; stroke-width: 1.0;"/><polygon fill="#A80036" points="254.391,284.0237,246.119,278.6783,249.4513,283.2494,244.8802,286.5818,254.391,284.0237" style="stroke: #A80036; stroke-width: 1.0;"/><text fill="#000000" font-family="sans-serif" font-size="13" lengthAdjust="spacingAndGlyphs" textLength="245" x="154.679" y="228.5">Handles the creation of a concrete product</text><path d="M150.651,32.516 C110.866,33.861 44.3731,42.92 12.6788,86 C-16.8483,126.134 64.0666,145.73 116.28,153.959 " fill="none" style="stroke: #A80036; stroke-width: 1.0;"/><polygon fill="#A80036" points="121.239,154.72,112.9499,149.4011,116.2969,153.9615,111.7364,157.3085,121.239,154.72" style="stroke: #A80036; stroke-width: 1.0;"/><text fill="#000000" font-family="sans-serif" font-size="13" lengthAdjust="spacingAndGlyphs" textLength="124" x="13.6788" y="100.5">ask for a new product</text><path d="M161.505,135.609 C165.858,114.517 172.267,83.458 176.893,61.04 " fill="none" style="stroke: #A80036; stroke-width: 1.0;"/><polygon fill="#A80036" points="177.91,56.11,172.1718,64.1146,176.8984,61.0066,180.0064,65.7332,177.91,56.11" style="stroke: #A80036; stroke-width: 1.0;"/><text fill="#000000" font-family="sans-serif" font-size="13" lengthAdjust="spacingAndGlyphs" textLength="202" x="172.679" y="100.5">gives a product of the required type</text><path d="M214.984,34.04 C257.827,36.952 333.929,47.617 384.679,86 C399.776,97.418 410.56,115.803 417.553,131.266 " fill="none" style="stroke: #A80036; stroke-width: 1.0;"/><polygon fill="#A80036" points="419.602,135.96,419.6657,126.1113,417.6009,131.3779,412.3343,129.3131,419.602,135.96" style="stroke: #A80036; stroke-width: 1.0;"/><text fill="#000000" font-family="sans-serif" font-size="13" lengthAdjust="spacingAndGlyphs" textLength="28" x="402.679" y="100.5">uses</text></g></svg>