<?xml version="1.0" encoding="UTF-8" standalone="yes"?><svg xmlns="http://www.w3.org/2000/svg" xmlns:xlink="http://www.w3.org/1999/xlink" height="478pt" style="width:1273px;height:478px;" version="1.1" viewBox="0 0 1273 478" width="1273pt"><defs><filter height="300%" id="f1" width="300%" x="-1" y="-1"><feGaussianBlur result="blurOut" stdDeviation="2.0"/><feColorMatrix in="blurOut" result="blurOut2" type="matrix" values="0 0 0 0 0 0 0 0 0 0 0 0 0 0 0 0 0 0 .4 0"/><feOffset dx="4.0" dy="4.0" in="blurOut2" result="blurOut3"/><feBlend in="SourceGraphic" in2="blurOut3" mode="normal"/></filter></defs><g><polygon fill="#FFFFFF" filter="url(#f1)" points="22,358,69,358,76,381.6094,210,381.6094,210,447,22,447,22,358" style="stroke: #000000; stroke-width: 2.0;"/><line style="stroke: #000000; stroke-width: 2.0;" x1="22" x2="76" y1="381.6094" y2="381.6094"/><text fill="#000000" font-family="sans-serif" font-size="14" font-weight="bold" lengthAdjust="spacingAndGlyphs" textLength="41" x="25" y="375">Client</text><polygon fill="#FFFFFF" filter="url(#f1)" points="268,24,458,24,465,47.6094,1266,47.6094,1266,471,268,471,268,24" style="stroke: #000000; stroke-width: 2.0;"/><line style="stroke: #000000; stroke-width: 2.0;" x1="268" x2="465" y1="47.6094" y2="47.6094"/><text fill="#000000" font-family="sans-serif" font-size="14" font-weight="bold" lengthAdjust="spacingAndGlyphs" textLength="184" x="271" y="41">Tomcat Application Server</text><polygon fill="#FFFFFF" filter="url(#f1)" points="292,358,384,358,391,381.6094,582,381.6094,582,447,292,447,292,358" style="stroke: #000000; stroke-width: 2.0;"/><line style="stroke: #000000; stroke-width: 2.0;" x1="292" x2="391" y1="381.6094" y2="381.6094"/><text fill="#000000" font-family="sans-serif" font-size="14" font-weight="bold" lengthAdjust="spacingAndGlyphs" textLength="86" x="295" y="375">Web Facade</text><polygon fill="#FFFFFF" filter="url(#f1)" points="452,182,580,182,587,205.6094,1242,205.6094,1242,334,452,334,452,182" style="stroke: #000000; stroke-width: 2.0;"/><line style="stroke: #000000; stroke-width: 2.0;" x1="452" x2="587" y1="205.6094" y2="205.6094"/><text fill="#000000" font-family="sans-serif" font-size="14" font-weight="bold" lengthAdjust="spacingAndGlyphs" textLength="122" x="455" y="199">Java web module</text><polygon fill="#FFFFFF" filter="url(#f1)" points="1062,69,1139,69,1146,92.6094,1170,92.6094,1170,158,1062,158,1062,69" style="stroke: #000000; stroke-width: 2.0;"/><line style="stroke: #000000; stroke-width: 2.0;" x1="1062" x2="1146" y1="92.6094" y2="92.6094"/><text fill="#000000" font-family="sans-serif" font-size="14" font-weight="bold" lengthAdjust="spacingAndGlyphs" textLength="71" x="1065" y="86">Java Core</text><rect fill="#FEFECE" filter="url(#f1)" height="35.0938" rx="12.5" ry="12.5" style="stroke: #A80036; stroke-width: 1.5;" width="47" x="38.5" y="395.5"/><text fill="#000000" font-family="sans-serif" font-size="12" lengthAdjust="spacingAndGlyphs" textLength="27" x="48.5" y="417.5">User</text><rect fill="#FEFECE" filter="url(#f1)" height="35.0938" rx="12.5" ry="12.5" style="stroke: #A80036; stroke-width: 1.5;" width="66" x="128" y="395.5"/><text fill="#000000" font-family="sans-serif" font-size="12" lengthAdjust="spacingAndGlyphs" textLength="46" x="138" y="417.5">Browser</text><rect fill="#FEFECE" filter="url(#f1)" height="35.0938" rx="12.5" ry="12.5" style="stroke: #A80036; stroke-width: 1.5;" width="105" x="308.5" y="395.5"/><text fill="#000000" font-family="sans-serif" font-size="12" lengthAdjust="spacingAndGlyphs" textLength="85" x="318.5" y="417.5">Apache Coyotte</text><polygon fill="#FBFB77" filter="url(#f1)" points="482.5,400,482.5,426.3516,565.5,426.3516,565.5,410,555.5,400,482.5,400" style="stroke: #A80036; stroke-width: 1.0;"/><polygon fill="#FBFB77" points="482.5,400,482.5,409,413.828,413,482.5,417,482.5,426.3516,565.5,426.3516,565.5,410,555.5,400,482.5,400" style="stroke: #A80036; stroke-width: 1.0;"/><line style="stroke: #A80036; stroke-width: 1.0;" x1="555.5" x2="555.5" y1="400" y2="410"/><line style="stroke: #A80036; stroke-width: 1.0;" x1="565.5" x2="555.5" y1="410" y2="410"/><text fill="#000000" font-family="sans-serif" font-size="13" lengthAdjust="spacingAndGlyphs" textLength="62" x="488.5" y="418">Http server</text><rect fill="#FEFECE" filter="url(#f1)" height="35.0938" rx="12.5" ry="12.5" style="stroke: #A80036; stroke-width: 1.5;" width="111" x="468.5" y="278.5"/><text fill="#000000" font-family="sans-serif" font-size="12" lengthAdjust="spacingAndGlyphs" textLength="91" x="478.5" y="300.5">Tomcat Runtime</text><polygon fill="#FBFB77" filter="url(#f1)" points="622,274.5,622,317.2031,794,317.2031,794,284.5,784,274.5,622,274.5" style="stroke: #A80036; stroke-width: 1.0;"/><polygon fill="#FBFB77" points="622,274.5,622,292,579.606,296,622,300,622,317.2031,794,317.2031,794,284.5,784,274.5,622,274.5" style="stroke: #A80036; stroke-width: 1.0;"/><line style="stroke: #A80036; stroke-width: 1.0;" x1="784" x2="784" y1="274.5" y2="284.5"/><line style="stroke: #A80036; stroke-width: 1.0;" x1="794" x2="784" y1="284.5" y2="284.5"/><text fill="#000000" font-family="sans-serif" font-size="13" lengthAdjust="spacingAndGlyphs" textLength="151" x="628" y="292.5">Http parts are transformed</text><text fill="#000000" font-family="sans-serif" font-size="13" lengthAdjust="spacingAndGlyphs" textLength="93" x="628" y="308.8516">into java objects</text><rect fill="#FEFECE" filter="url(#f1)" height="35.0938" rx="12.5" ry="12.5" style="stroke: #A80036; stroke-width: 1.5;" width="114" x="651" y="219.5"/><text fill="#000000" font-family="sans-serif" font-size="12" lengthAdjust="spacingAndGlyphs" textLength="94" x="661" y="241.5">Servlet Container</text><rect fill="#FEFECE" filter="url(#f1)" height="35.0938" rx="12.5" ry="12.5" style="stroke: #A80036; stroke-width: 1.5;" width="60" x="870" y="219.5"/><text fill="#000000" font-family="sans-serif" font-size="12" font-weight="bold" lengthAdjust="spacingAndGlyphs" textLength="40" x="880" y="241.5">Servlet</text><rect fill="#FEFECE" filter="url(#f1)" height="35.0938" rx="12.5" ry="12.5" style="stroke: #A80036; stroke-width: 1.5;" width="127" x="836.5" y="274.5"/><text fill="#000000" font-family="sans-serif" font-size="12" font-weight="bold" lengthAdjust="spacingAndGlyphs" textLength="107" x="846.5" y="296.5">Java Server Pages</text><rect fill="#FEFECE" filter="url(#f1)" height="35.0938" rx="12.5" ry="12.5" style="stroke: #A80036; stroke-width: 1.5;" width="219" x="1006.5" y="274.5"/><text fill="#000000" font-family="sans-serif" font-size="12" lengthAdjust="spacingAndGlyphs" textLength="199" x="1016.5" y="296.5">Java + Web (HTML, JavaScript, CSS)</text><rect fill="#FEFECE" filter="url(#f1)" height="35.0938" rx="12.5" ry="12.5" style="stroke: #A80036; stroke-width: 1.5;" width="75" x="1078.5" y="106.5"/><text fill="#000000" font-family="sans-serif" font-size="12" lengthAdjust="spacingAndGlyphs" textLength="55" x="1088.5" y="128.5">Java code</text><path d="M85.9876,413 C96.8703,413 110.149,413 122.438,413 " fill="none" style="stroke: #A80036; stroke-width: 1.0;"/><polygon fill="#A80036" points="127.635,413,118.635,409,122.635,413,118.635,417,127.635,413" style="stroke: #A80036; stroke-width: 1.0;"/><path d="M194.253,413 C223.706,413 267.913,413 303.267,413 " fill="none" style="stroke: #A80036; stroke-width: 1.0;"/><polygon fill="#A80036" points="308.416,413,299.416,409,303.416,413,299.416,417,308.416,413" style="stroke: #A80036; stroke-width: 1.0;"/><text fill="#000000" font-family="sans-serif" font-size="13" lengthAdjust="spacingAndGlyphs" textLength="22" x="227.5" y="408">http</text><path d="M385.756,395.7362 C414.888,374.566 464.192,338.736 495.098,316.276 " fill="none" style="stroke: #A80036; stroke-width: 1.0;"/><polygon fill="#A80036" points="499.146,313.335,489.5134,315.3877,495.1005,316.2734,494.2149,321.8605,499.146,313.335" style="stroke: #A80036; stroke-width: 1.0;"/><path d="M578.622,278.617 C600.745,271.445 626.436,263.117 648.997,255.803 " fill="none" style="stroke: #A80036; stroke-width: 1.0;"/><polygon fill="#A80036" points="653.762,254.259,643.9672,253.2289,649.0056,255.8006,646.4338,260.8391,653.762,254.259" style="stroke: #A80036; stroke-width: 1.0;"/><path d="M765.235,237 C797.582,237 837.166,237 864.848,237 " fill="none" style="stroke: #A80036; stroke-width: 1.0;"/><polygon fill="#A80036" points="869.874,237,860.874,233,864.874,237,860.874,241,869.874,237" style="stroke: #A80036; stroke-width: 1.0;"/><path d="M765.235,253.279 C786.904,259.551 811.821,266.764 834.232,273.251 " fill="none" style="stroke: #A80036; stroke-width: 1.0;"/><polygon fill="#A80036" points="839.271,274.71,831.7378,268.3657,834.4681,273.32,829.5138,276.0503,839.271,274.71" style="stroke: #A80036; stroke-width: 1.0;"/><path d="M963.761,292 C975.629,292 988.378,292 1001.257,292 " fill="none" style="stroke: #A80036; stroke-width: 1.0;"/><polygon fill="#A80036" points="1006.39,292,997.39,288,1001.39,292,997.39,296,1006.39,292" style="stroke: #A80036; stroke-width: 1.0;"/><path d="M930.307,221.525 C968.632,201.288 1035.81,165.816 1077.72,143.687 " fill="none" style="stroke: #A80036; stroke-width: 1.0;"/><polygon fill="#A80036" points="1082.19,141.322,1072.3629,141.9767,1077.766,143.6519,1076.0908,149.055,1082.19,141.322" style="stroke: #A80036; stroke-width: 1.0;"/></g></svg>